<svg xmlns="http://www.w3.org/2000/svg" xmlns:xlink="http://www.w3.org/1999/xlink" width="123.089" height="118" viewBox="0 0 123.089 118"><defs><style>.a{fill:url(#a);}.b{filter:url(#b);}</style><linearGradient id="a" x1="0.5" x2="0.5" y2="1" gradientUnits="objectBoundingBox"><stop offset="0" stop-color="#0b0957"/><stop offset="1" stop-color="#0c078f"/></linearGradient><filter id="b" x="0" y="0" width="123.089" height="118" filterUnits="userSpaceOnUse"><feOffset dy="3" input="SourceAlpha"/><feGaussianBlur stdDeviation="3" result="c"/><feFlood flood-opacity="0.251"/><feComposite operator="in" in2="c"/><feComposite in="SourceGraphic"/></filter></defs><g class="b" transform="matrix(1, 0, 0, 1, 0, 0)"><path class="a" d="M26.978,99.474H21.952L16.925,97.9a26.985,26.985,0,0,1-11.31-8.678L1.092,79.752a18.235,18.235,0,0,1-.7-3.539,9.236,9.236,0,0,1-.445-3,12.456,12.456,0,0,1,.512-3.364q.057-.56.131-1.137Q3.7,54.614,13.406,47.408L23.962,41.1l8.545-2.63,9.048-.526.5-.526.754.263-.754.789q-2.362-.632-3.016.526L32,39.519l-8.043,2.63A40.486,40.486,0,0,0,8.631,53.456,34.434,34.434,0,0,0,2.1,65.552l-.056.295A31.452,31.452,0,0,1,7.564,58.1a31.8,31.8,0,0,1,7.926-6.07,17.619,17.619,0,0,1,8.347-2.369A3.264,3.264,0,0,1,25.313,50q.7.35.7.81a1.224,1.224,0,0,1-.225.76,7.327,7.327,0,0,0-.431.635,2.676,2.676,0,0,1-.348.482,7.744,7.744,0,0,1,1.763-.164,3.144,3.144,0,0,1,2.1.9,2.654,2.654,0,0,1,1.015,2.01,10.182,10.182,0,0,1-.554,2.881,25.761,25.761,0,0,1-1.549,3.774,38.469,38.469,0,0,1-2.419,4.143,49.957,49.957,0,0,1-3.1,4.163A37.332,37.332,0,0,1,18.6,74.235a33.475,33.475,0,0,1-4.05,3.168A15.848,15.848,0,0,1,5.81,80.356a4.561,4.561,0,0,1-2.625-.779,9.478,9.478,0,0,1-1.538-1.263l2.963,7.75,4.775,6.048A24.138,24.138,0,0,0,19.438,97.9l5.53,1.051H31l8.042-1.578,8.546-3.681A58.027,58.027,0,0,0,64.426,79.226l6.534-9.466,1.913-2a3.463,3.463,0,0,0,.446-.917l-.041-.04q-.676.061-3.353,2.666T65.506,74q-1.743,1.928-4.162,5.147-.678.882-1.108.882a3.494,3.494,0,0,1-1.158-.277q-.441-.167-.675-.279A5.511,5.511,0,0,1,55.263,80.7a2.88,2.88,0,0,1-2.43-1.005,3.545,3.545,0,0,1-.779-2.225,5.228,5.228,0,0,1,.41-2.143,17.683,17.683,0,0,1-3.907,3.753,6.929,6.929,0,0,1-3.6,1.538,3.162,3.162,0,0,1-2.276-.841,3.357,3.357,0,0,1-.945-1.537q-.389.358-.839.717a7.383,7.383,0,0,1-4.614,1.784q-3.383,0-3.383-2.994a7.387,7.387,0,0,1,.491-2.276l-3.4,2.963L32,75.808l1.91-1.679a63.064,63.064,0,0,1,3.517-6.754q.165-.288.226-.41A50.593,50.593,0,0,0,31.618,73q-4.46,4.933-5.936,6.983a1.54,1.54,0,0,1-.616.41,2.022,2.022,0,0,1-.769.226,1.248,1.248,0,0,1-.595-.175,1.325,1.325,0,0,0-.4-.175c-.178,0-.267-.058-.267-.174a13.467,13.467,0,0,1,.728-1.887q.729-1.712,1.918-4.255,3.26-7.013,9.7-18.252a53.107,53.107,0,0,1,3.527-5.578,3.6,3.6,0,0,1,3.035-1.169q.452,0,.513.267a2.525,2.525,0,0,1,.061.574,1.648,1.648,0,0,1-.122.615L40.2,53.839A183,183,0,0,0,30.378,70.7a32.3,32.3,0,0,1,6.214-6.008,5.789,5.789,0,0,1,2.8-1.334,4.6,4.6,0,0,1,1.691.3q.759.3.76,1.425a14.223,14.223,0,0,1-1.334,3.036q-.419.824-.793,1.572l.081.338,1.006.263-1.5.224q-2.794,5.622-2.794,6.35,0,.872.718.872,1.045,0,3.219-2.03.967-.906,1.513-1.428a10.481,10.481,0,0,1,.424-1.125,13.474,13.474,0,0,1,2.184-3.424A21.931,21.931,0,0,1,47.542,66.9q3.4-2.665,6.276-2.666a3.852,3.852,0,0,1,1.8.369,1.689,1.689,0,0,1,.882.923,3.066,3.066,0,0,1,.831-.933A2.085,2.085,0,0,1,58.35,64.4q1.558,0,1.558,1.066a1.149,1.149,0,0,1-.266.841A12.328,12.328,0,0,0,58.5,68.082q-.872,1.507-1.928,3.856a18.234,18.234,0,0,0-1.364,4.009,2.116,2.116,0,0,0-.061.574q0,1.129.616,1.129a2.694,2.694,0,0,0,1.455-.585,10.491,10.491,0,0,0,1.5-1.251q.656-.667,1.282-1.364t.749-.8a.418.418,0,0,1,.169-.081q.8-1.364,1.983-3.343,1.887-3.159,2.256-3.814a16.7,16.7,0,0,1,1.272-1.969,3.743,3.743,0,0,1,3.117-1.169q.493,0,.492.616,0,.964-1.784,3.63l-.861,1.292q3.548-3.938,5.988-4.984a5.5,5.5,0,0,1,2.143-.512,2.327,2.327,0,0,1,1.281.331l1.947-2.037,6.535-3.681,6.534-.527A8.479,8.479,0,0,1,97.1,60.819q2.364,2.524,1.508,8.414A20.989,20.989,0,0,1,96.685,73.8a1.142,1.142,0,0,1,.094.341,9.111,9.111,0,0,1,.082,1.23,2.184,2.184,0,0,1-.123.882,9.987,9.987,0,0,1-2.615,2.81A6.081,6.081,0,0,1,90.453,80.7a4.116,4.116,0,0,1-1.078-.131l-5.6,3.123-5.027,1.052v-.526a33.728,33.728,0,0,0,9.779-4.037,2.358,2.358,0,0,1-.508-.487,3.545,3.545,0,0,1-.779-2.225,5.229,5.229,0,0,1,.41-2.143,17.684,17.684,0,0,1-3.907,3.753,6.929,6.929,0,0,1-3.6,1.538,3.162,3.162,0,0,1-2.276-.841A3.368,3.368,0,0,1,76.9,78.15,12.738,12.738,0,0,1,73.483,80.4a5.789,5.789,0,0,1-1.989.287,3.4,3.4,0,0,1-2.154-.943A2.865,2.865,0,0,1,68.274,77.5a6.982,6.982,0,0,1,.369-2.113,75.462,75.462,0,0,1-7.986,9.366,53.425,53.425,0,0,1-17.593,12.1l-8.546,2.63L27.481,100Zm50.627-34.51a3.51,3.51,0,0,1-.43,1.5A16.065,16.065,0,0,1,76.3,68.02q-.44.687-1.158,1.733t-.779,1.138c-.041.062-.147.226-.318.492s-.3.462-.38.585-.219.338-.41.645-.346.564-.462.77l-.431.759q-.256.451-.41.779t-.319.717a3.375,3.375,0,0,0-.287,1.19q0,.9,1.231.9a3.239,3.239,0,0,0,1.651-.656,12.177,12.177,0,0,0,1.795-1.436q.572-.567,1.012-.982a10.16,10.16,0,0,1,.535-1.509,13.425,13.425,0,0,1,2.184-3.424A21.931,21.931,0,0,1,82.732,66.9q3.4-2.665,6.276-2.666a3.855,3.855,0,0,1,1.8.369,1.692,1.692,0,0,1,.882.923,3.054,3.054,0,0,1,.831-.933,2.084,2.084,0,0,1,1.014-.194q1.559,0,1.559,1.066a1.153,1.153,0,0,1-.266.841,12.381,12.381,0,0,0-1.138,1.774q-.871,1.507-1.928,3.856A18.273,18.273,0,0,0,90.4,75.947a2.116,2.116,0,0,0-.061.574q0,1.129.615,1.129a2.7,2.7,0,0,0,1.456-.585,10.541,10.541,0,0,0,1.5-1.251l.04-.041q.588-.62,1.14-1.279,3.418-3.26,2.513-11.044L94.334,59.5q-2.363-2-7.54-1.052a31.71,31.71,0,0,0-9.521,5.619A1.4,1.4,0,0,1,77.605,64.965Zm5.946,5.609A17.2,17.2,0,0,0,81.1,73.916a7.068,7.068,0,0,0-1.117,2.667q0,.717.41.717.575,0,3.2-2.266A31.553,31.553,0,0,0,87.08,71.7q.942-1.189,3.732-5.024Q87.3,66.677,83.551,70.574Zm-35.189,0a17.166,17.166,0,0,0-2.451,3.343,7.06,7.06,0,0,0-1.118,2.667q0,.717.41.717.574,0,3.2-2.266A31.468,31.468,0,0,0,51.889,71.7q.944-1.189,3.732-5.024Q52.115,66.677,48.362,70.574ZM16.925,55.542a28.3,28.3,0,0,0-6.645,5.486,31.224,31.224,0,0,0-4.6,6.7,13.509,13.509,0,0,0-1.754,5.66,4.242,4.242,0,0,0,.595,2.287,2.193,2.193,0,0,0,2.021.953,8.108,8.108,0,0,0,3.434-.985,19.334,19.334,0,0,0,3.917-2.584A43.334,43.334,0,0,0,24.144,60.71a10.438,10.438,0,0,0,1.5-3.856q0-.431-.287-.43A4.794,4.794,0,0,0,22.975,57.5a16.716,16.716,0,0,0-2.728,2.369q-1.189,1.292-1.189,1.866L19.12,62q0,.41-.287.41t-1.19-.994a2.8,2.8,0,0,1-.9-1.671q0-1.58,2.122-3.589A14.935,14.935,0,0,1,23.59,53.1,15.149,15.149,0,0,0,16.925,55.542ZM65.988,95.907a.188.188,0,0,1-.056-.1q0-.189.041-.595a4.6,4.6,0,0,0,.049-.6v-.364l-.042-.042V91.445c-.038-.009-.056-.042-.056-.1v-.035c0-.079.032-.123.1-.133l.21.042a.124.124,0,0,0,.052-.014.139.139,0,0,0,.046-.028v.035q.252,0,.571-.014c.212-.01.36-.016.445-.022q.686-.042,1.029-.041a1.307,1.307,0,0,1,.343.041c.1.028.154.085.154.168v.441c0,.023-.025.035-.076.035-.187,0-.366-.007-.539-.021q-.365-.015-.546-.014a.783.783,0,0,0-.14.017.828.828,0,0,1-.148.018c-.023,0-.084-.006-.182-.018a2.307,2.307,0,0,0-.273-.017c-.2,0-.3.042-.3.126v.567a.168.168,0,0,0-.021.032.088.088,0,0,0-.014.046,1.245,1.245,0,0,0,.077.608,5.362,5.362,0,0,0,.84.05l.463-.007c.022.009.076.035.158.076a.526.526,0,0,0,.15.063.12.12,0,0,0,.052-.028.133.133,0,0,1,.074-.028s.012.006.021.018a.054.054,0,0,1,.014.032.6.6,0,0,0-.081.13.43.43,0,0,0-.024.112c0,.044-.012.092-.021.143s-.18.1-.5.1a2.209,2.209,0,0,1-.482-.069,2.337,2.337,0,0,0-.491-.07.137.137,0,0,1-.084-.022.088.088,0,0,0-.042-.021.2.2,0,0,0-.143.035.253.253,0,0,0-.032.154c0,.122.007.284.021.491s.035.31.063.315v1.2c0,.061-.041.091-.126.091a.106.106,0,0,1-.084-.041l-.147.045a.786.786,0,0,1-.231.039C66.056,95.973,66.025,95.951,65.988,95.907Zm.245-.41.049.042a.085.085,0,0,0-.049.07.942.942,0,0,0-.007.126.244.244,0,0,0,.239-.109.679.679,0,0,0,.056-.3v-.2a.68.68,0,0,0-.021-.238l-.14-.057h.154l.007-.041c0-.023-.01-.091-.028-.2a2.684,2.684,0,0,1-.035-.294.508.508,0,0,0-.273-.1l-.007.329a1.306,1.306,0,0,0,.045.372.286.286,0,0,0,.185.2h-.175Zm-.011-1.41c.026.049.095.074.207.074a.453.453,0,0,0-.042-.2.257.257,0,0,1-.035-.14h-.167A.654.654,0,0,0,66.222,94.087Zm.1-.665a.373.373,0,0,0-.122.081.153.153,0,0,0-.049.112l.006.028c.005.038.033.066.085.084a.411.411,0,0,0,.14.029.263.263,0,0,0-.028-.12.244.244,0,0,1-.028-.112.073.073,0,0,1,.046-.07c.03-.013.045-.032.045-.056l-.007-.014C66.4,93.389,66.37,93.4,66.32,93.422Zm1.516.185a.562.562,0,0,0,.182-.028.106.106,0,0,0,.085-.105h-.266Zm-.434-.056a.176.176,0,0,0,.14.049.178.178,0,0,0,.137-.038.241.241,0,0,0,.032-.144A.324.324,0,0,0,67.4,93.551Zm-.913-.1a.158.158,0,0,0,.067.046.184.184,0,0,1,.076.056,1.839,1.839,0,0,0,.284-.021.261.261,0,0,0,.185-.105.72.72,0,0,1-.112.007,1.1,1.1,0,0,1-.266-.035,1.439,1.439,0,0,0-.252-.028A.14.14,0,0,0,66.488,93.45Zm.717-.01a.307.307,0,0,0-.063.069h.217a.073.073,0,0,0-.084-.091A.112.112,0,0,0,67.206,93.44Zm-.973-.049a.206.206,0,0,0,.175-.1.6.6,0,0,0-.266-.049C66.142,93.342,66.173,93.39,66.233,93.39Zm-.024-.284a.1.1,0,0,0-.032.032l.013.028a.586.586,0,0,0,.095.028.453.453,0,0,0,.109.014.1.1,0,0,0,.067-.039c.025-.025.039-.043.039-.052A.222.222,0,0,0,66.433,93a.366.366,0,0,0-.1-.092l.056.014q.07,0,.07-.105a.206.206,0,0,0-.024-.1.141.141,0,0,1-.025-.063.635.635,0,0,1,.032-.185l.039-.123a1.242,1.242,0,0,0,.07-.336.773.773,0,0,1-.266-.049c0-.038.073-.057.218-.057v-.2c-.08,0-.126-.019-.14-.057a.149.149,0,0,0,.08-.014.069.069,0,0,0,.018-.056.246.246,0,0,0-.007-.07c0-.014-.019-.023-.042-.028l.049-.035H66.1a.13.13,0,0,0,.059.1.455.455,0,0,0,.122.067.268.268,0,0,0-.108.014q-.024.013-.024.07a.5.5,0,0,0,.024.119.512.512,0,0,1,.024.133c0,.023,0,.064,0,.122a.334.334,0,0,0,.028.154.287.287,0,0,0,.109.115h-.14a.413.413,0,0,1,.07.175.164.164,0,0,1-.039.094.194.194,0,0,0-.038.115c0,.066.011.107.034.126-.051,0-.076.044-.076.119s.023.113.07.113l.021-.007C66.233,93.084,66.225,93.1,66.209,93.107Zm.549-1.46a.167.167,0,0,0,.057.007c.046,0,.069-.025.069-.076s-.013-.089-.041-.1C66.8,91.5,66.776,91.554,66.757,91.647Zm1.778-.192a.175.175,0,0,0-.056.066c0,.019.023.035.069.049a.583.583,0,0,0,.161.021.289.289,0,0,0-.017-.119q-.018-.035-.081-.035A.144.144,0,0,0,68.536,91.455Zm-1.071-.029a.1.1,0,0,0-.021.053q0,.049.084.049a.316.316,0,0,0,.168-.059.9.9,0,0,0,.1-.074h-.3C67.49,91.4,67.478,91.406,67.465,91.427Zm.643-.024a.255.255,0,0,0-.013.077.037.037,0,0,0,.017.028.052.052,0,0,0,.025.014c.014,0,.041-.014.08-.032a.383.383,0,0,0,.1-.059.106.106,0,0,0,.041-.084h-.223A.147.147,0,0,0,68.108,91.4ZM61.263,95.96a3.288,3.288,0,0,1-.494-.032.761.761,0,0,1-.332-.13c.009-.01-.072-.085-.245-.224a1.326,1.326,0,0,0-.294-.211.154.154,0,0,0-.056.011.15.15,0,0,0-.049.032,1.359,1.359,0,0,0-.217-.385,2.172,2.172,0,0,1-.35-.651.554.554,0,0,1-.006-.1l.006-.2a.549.549,0,0,0-.041-.218v-.945a.351.351,0,0,0,.059-.129q.024-.088.035-.151a.832.832,0,0,1,.017-.084,1.068,1.068,0,0,1,.105-.378,2.171,2.171,0,0,1,.958-.836A3.35,3.35,0,0,1,61.7,91.08q.525,0,.525.14h.245a.064.064,0,0,0,.074.052l.074,0c.009.005.048.02.115.046a.685.685,0,0,1,.158.08l-.007.022a.043.043,0,0,0,.032.045c.022.007.031.067.031.179,0,.21-.044.315-.133.315a2.774,2.774,0,0,1-.616-.091,3.061,3.061,0,0,0-.6-.085.954.954,0,0,0-.287.042c-.088.028-.208.072-.356.133a1.49,1.49,0,0,0-.806.693,2.439,2.439,0,0,0-.238,1.127,2.247,2.247,0,0,0,.217.994.858.858,0,0,0,.658.518c.1.009.179.019.231.028a7.647,7.647,0,0,0,.84.056l.391-.007c.08-.051.12-.179.12-.384-.005-.061-.015-.149-.032-.263s-.031-.213-.046-.3a.186.186,0,0,0-.07-.122.244.244,0,0,0-.132-.032l-.1.007a.247.247,0,0,1-.2-.08.543.543,0,0,1-.07-.333c0-.177.042-.265.126-.265a.166.166,0,0,1,.049.006c.065.005.151.007.258.007l.526-.007a1.462,1.462,0,0,1,.234.018c.073.012.109.033.109.067v1.722a.386.386,0,0,1-.217.371,1.07,1.07,0,0,1-.5.113.194.194,0,0,1-.084-.024.178.178,0,0,0-.07-.025.477.477,0,0,1-.256.1,3.428,3.428,0,0,1-.43.022Zm-.116-.378a.269.269,0,0,0-.017.091l-.007.006q0,.022.095.035a1.115,1.115,0,0,0,.172.014c0-.131-.07-.2-.211-.2C61.169,95.532,61.159,95.549,61.147,95.582Zm.4.132a.788.788,0,0,0,.105-.006.185.185,0,0,0,.084-.035H62.2l.049-.049c-.349-.023-.595-.035-.734-.035l-.1-.006C61.417,95.67,61.459,95.714,61.543,95.714Zm-.634-.167a.188.188,0,0,0-.052.154.325.325,0,0,0,.185-.039.188.188,0,0,0,.052-.158A.307.307,0,0,0,60.909,95.547Zm-.347-.035a.107.107,0,0,0-.084.076.223.223,0,0,0,.2.085.1.1,0,0,0,.059-.014.141.141,0,0,0,.035-.056.144.144,0,0,1,.046-.063c-.01-.028-.045-.042-.105-.042A.688.688,0,0,0,60.563,95.512Zm1.862,0a.214.214,0,0,0-.091.076.161.161,0,0,0,.073.035.412.412,0,0,0,.067.007h.042c.145,0,.229-.031.252-.091a.414.414,0,0,0-.115-.035.851.851,0,0,0-.109-.007A.373.373,0,0,0,62.425,95.512Zm-2.94-1.68a.381.381,0,0,0-.1.035.081.081,0,0,0-.038.077.255.255,0,0,0,.032.1.34.34,0,0,1,.031.144l-.007.266a.155.155,0,0,1,.063.116.577.577,0,0,0,.021.1.449.449,0,0,0,.095.112.572.572,0,0,1,.081.084l-.007.022a2.762,2.762,0,0,1,.2.21,2.089,2.089,0,0,0,.29.3.44.44,0,0,0,.284.105.4.4,0,0,0,.1-.049.115.115,0,0,0-.021-.029l-.021-.021c-.066-.037-.1-.07-.1-.1v-.014a.085.085,0,0,0-.028-.057.236.236,0,0,0-.154-.084.089.089,0,0,1-.053-.017.285.285,0,0,1-.059-.074q-.055-.09-.22-.458a1.866,1.866,0,0,1-.165-.445c0-.005.007-.014.022-.025a.051.051,0,0,0,.021-.038.262.262,0,0,0-.031-.085c-.021-.041-.041-.079-.059-.112l.091-.049v-.3q0-.049-.224-.049l.049-.029-.049-.056h.224v-.1l-.042-.112a.361.361,0,0,1-.073-.067.122.122,0,0,1-.025-.08c-.2,0-.293.018-.293.056v.356a.068.068,0,0,1,.063.077.372.372,0,0,1-.007.07.372.372,0,0,0-.007.07.086.086,0,0,0,.024.069.152.152,0,0,0,.095.022.5.5,0,0,0,.092-.007A.115.115,0,0,1,59.485,93.831Zm3.059,1.512c0,.009.032.031.1.063a.427.427,0,0,0,.126.049c.019,0,.034-.022.046-.063a.486.486,0,0,0,.017-.12C62.639,95.273,62.544,95.3,62.544,95.343Zm.049-.28v.091h.217V94.98Zm.049-.168-.091.014v.076a.257.257,0,0,0,.178-.059.267.267,0,0,0,.081-.171.254.254,0,0,0-.217.091l.091-.007Zm-.077-.812a.309.309,0,0,0-.069.161h.258a.262.262,0,0,1-.112.182c-.07.061-.105.114-.105.161h.14a.1.1,0,0,1-.056.052.265.265,0,0,0-.067.039.09.09,0,0,0-.024.07.237.237,0,0,0,.23-.158.939.939,0,0,0,.081-.322c.006-.11.01-.248.01-.417l-.041-.041h-.337l-.182.21.042.007a.429.429,0,0,0,.147-.042l.067-.021a.291.291,0,0,1,.08-.014A.224.224,0,0,1,62.564,94.083Zm-.045.241a.162.162,0,0,0-.046.13h.077l.126-.167h-.014A.223.223,0,0,0,62.519,94.325Zm-.445-.255.021.006a.973.973,0,0,0,.2-.132h-.021A.278.278,0,0,0,62.075,94.07Zm-.175-.085c0,.014.009.023.028.028a.152.152,0,0,0,.041.007.632.632,0,0,0,.2-.087,1.617,1.617,0,0,0,.2-.122h-.378Zm-2.149-1.929a1.147,1.147,0,0,0-.133.158,1.6,1.6,0,0,0-.161.344,2.689,2.689,0,0,0-.112.3c0,.084.032.126.1.126h.308a.2.2,0,0,0-.042-.115.4.4,0,0,0-.091-.094h.021a.257.257,0,0,1,.077.021.254.254,0,0,0,.076.021.216.216,0,0,1-.034-.091c0-.019.02-.032.059-.041s.059-.026.059-.049a.214.214,0,0,0-.028-.094.193.193,0,0,1-.028-.087l.006-.07.133.133a.222.222,0,0,0,.084-.113c.023-.056.038-.088.042-.1a.331.331,0,0,1-.126-.092c.032,0,.049-.037.049-.1A.4.4,0,0,0,60,92.039.389.389,0,0,1,60,92a.733.733,0,0,0,.087.105.127.127,0,0,0,.087.028.108.108,0,0,0,.1-.07.876.876,0,0,0,.057-.143c.014-.049.022-.081.028-.094a.191.191,0,0,0,.084.133.066.066,0,0,0,.035-.035.164.164,0,0,0,.007-.049.32.32,0,0,0-.028-.094.257.257,0,0,0-.07-.1l.007-.029.132.092.049-.042-.049-.217a.285.285,0,0,0-.136.1.929.929,0,0,0-.081.2.234.234,0,0,0-.084-.133c-.158.117-.238.189-.238.218,0,0,.026.014.077.028s.077.023.077.028,0,.01-.011.017-.011.013-.011.018H59.87C59.855,91.956,59.816,91.989,59.751,92.057Zm.958-.269a.183.183,0,0,0,.154-.091.3.3,0,0,0-.217-.14C60.646,91.71,60.668,91.787,60.71,91.787Zm1.831-.217a.346.346,0,0,0-.067.076.162.162,0,0,0,.151.06l.122,0a.213.213,0,0,0-.059-.122c-.041-.049-.065-.074-.074-.074A.68.68,0,0,0,62.54,91.571Zm-1.5-.224c-.019.066-.036.133-.052.2a1.554,1.554,0,0,0-.032.154.186.186,0,0,0,.119-.046.137.137,0,0,0,.056-.108v-.035q0-.175-.07-.175Zm.938.224h.105a.216.216,0,0,0-.014-.07.154.154,0,0,0-.035-.063C62,91.452,61.977,91.5,61.977,91.571Zm-1.288-.133a.4.4,0,0,0,.091.077l.084.056a.544.544,0,0,0,.092-.266A.5.5,0,0,0,60.689,91.437Zm.777.084h.14a.472.472,0,0,0-.021-.08.162.162,0,0,0-.07-.094A.294.294,0,0,0,61.465,91.521Zm-.256-.1c.035.044.06.067.074.067s.04-.022.049-.067a.6.6,0,0,0,.014-.116h-.189A.205.205,0,0,0,61.21,91.42Zm.564.017c.032-.009.049-.04.049-.091h-.091Zm2.632,4.375-.042.042h-.35l-.041-.042v-.518c0-.023-.012-.053-.022-.088s-.016-.064-.021-.087a2.321,2.321,0,0,1,.021-.245l.022-.273q0-.428-.028-1.421l-.014-.6.007-.154-.021-.231q-.07-.651-.07-.959c0-.029.072-.049.217-.063s.252-.022.322-.022c.158,0,.238.042.238.126a.112.112,0,0,1-.042.087l-.049.046a3.512,3.512,0,0,0,.028.427l.035.287a5.013,5.013,0,0,1,.063.715.4.4,0,0,1-.017.1.4.4,0,0,0-.018.109q.035.35.035.483v2.324a.136.136,0,0,1-.011.049.109.109,0,0,1-.024.042A.26.26,0,0,1,64.406,95.812Zm-.28-.945a2.588,2.588,0,0,0-.028.322l.007.28a.2.2,0,0,0,.066.109.257.257,0,0,0,.13.024h.154a.88.88,0,0,0,.042-.273.244.244,0,0,0-.021-.092.206.206,0,0,1-.022-.069.235.235,0,0,1,.022-.074.435.435,0,0,0,.021-.15V94.9c0-.088-.023-.133-.07-.133a.472.472,0,0,0-.073.042.6.6,0,0,0-.074.056,1.29,1.29,0,0,1,.105-.133.487.487,0,0,0,.1-.167h-.336A2.242,2.242,0,0,1,64.126,94.867Zm.161-.553a.339.339,0,0,0-.07.175.413.413,0,0,0,.217-.039c.038-.025.056-.089.056-.192l-.024-.029a.051.051,0,0,0-.039-.021C64.38,94.209,64.334,94.244,64.287,94.315Zm-.056-.221a.281.281,0,0,0-.057.206h.057l.223-.217v-.042A.336.336,0,0,0,64.231,94.094Zm.059-.276a.879.879,0,0,0-.109.132l.049.049.223-.049v-.245A.45.45,0,0,0,64.291,93.818Zm-.13-.22a.256.256,0,0,0-.014.08.138.138,0,0,0,.022.08c.013.022.028.032.041.032a.208.208,0,0,0,.148-.091.268.268,0,0,0,.076-.167h-.252C64.177,93.544,64.17,93.567,64.161,93.6Zm.021-.193c0,.014.034.025.1.035a1.416,1.416,0,0,0,.185.013,1.418,1.418,0,0,0-.011-.2c-.006-.047-.024-.07-.052-.07Zm.046-.508c-.049.016-.076.039-.081.067l-.041.35a.544.544,0,0,0,.234-.158.358.358,0,0,0,.115-.242c0-.028-.03-.041-.091-.041A.434.434,0,0,0,64.228,92.9Zm.076-.274a.389.389,0,0,0-.122.165h.1a.354.354,0,0,0,.137-.021c.03-.014.045-.047.045-.1v-.021c0-.07-.019-.108-.056-.113Zm-.171-.367a.149.149,0,0,0-.028.105V92.4a.537.537,0,0,0,.021.137c.014.054.028.081.042.081.06,0,.115-.041.164-.123a.442.442,0,0,0,.074-.227c0-.028-.035-.042-.105-.042C64.208,92.228,64.151,92.237,64.133,92.256Zm.13-.206c-.059.04-.088.071-.088.094h.189v-.175A.468.468,0,0,1,64.263,92.05Zm-.081-.165q-.084.049-.084.105a.078.078,0,0,0,.017.045c.012.016.022.024.031.024a.154.154,0,0,0,.126-.08.259.259,0,0,0,.056-.144A.307.307,0,0,0,64.182,91.886Zm0-.28v.021a1.165,1.165,0,0,1-.076.168l.041.007q.224,0,.224-.189a.242.242,0,0,0-.042-.158.169.169,0,0,0-.139-.053c-.084,0-.126.016-.126.05a.363.363,0,0,0,.013.087.763.763,0,0,0,.029.087l.076-.049Zm19.463,4.249a.757.757,0,0,1-.221-.182q-.013-.351-.028-1.435t-.014-2.107a1.94,1.94,0,0,1-.057-.532l.007-.378.049-.035H83.9a.171.171,0,0,1,.046.035l.052.049c0,.005-.009.015-.028.031a.071.071,0,0,0-.028.053,1.311,1.311,0,0,0,.021.206c.014.082.023.134.028.158a1.838,1.838,0,0,1,.042.28l.007.455c0,.2,0,.324,0,.385s0,.093,0,.1c0,.041.016.063.049.063l.063-.007a1.518,1.518,0,0,1,.239.021,3.125,3.125,0,0,0,.419.028,1.683,1.683,0,0,0,.274-.024,1.5,1.5,0,0,1,.2-.024,2.574,2.574,0,0,1,.322.028,1.385,1.385,0,0,1,.144.011c.063.006.117.01.164.01a2.636,2.636,0,0,0,.8-.139l.007-.448c0-.117-.01-.287-.028-.511s-.028-.391-.028-.5a.351.351,0,0,1,.028-.182.326.326,0,0,1,.154-.07l.167-.049a.143.143,0,0,1,.077.021.378.378,0,0,1,.063.049.192.192,0,0,0,.126.07.071.071,0,0,1-.017.042.235.235,0,0,1-.039.035v.21a2.292,2.292,0,0,0,.07.462,1.8,1.8,0,0,1,.063.407.735.735,0,0,1-.022.076.472.472,0,0,1-.021.056,1.968,1.968,0,0,0,.028.287c0,.028.009.061.014.1a1.149,1.149,0,0,1,.006.133l-.006.168c.028,0,.051.128.069.371s.028.425.028.545V94.2c0,.088-.016.135-.049.14v1.421c0,.032-.032.049-.1.049a1.792,1.792,0,0,1-.42-.084c-.112-.028-.184-.044-.217-.049s-.047-.041-.056-.109a2.586,2.586,0,0,1-.014-.311l.006-.826a1.906,1.906,0,0,0-.041-.482.3.3,0,0,0-.207-.2,1.91,1.91,0,0,0-.556-.056c-.019-.042-.042-.063-.07-.063-.009,0-.021.01-.035.032a.1.1,0,0,0-.021.052H85.1l-1.071-.077-.091.057-.007.293q0,.378.049.932c.005.056.014.183.029.382s.021.383.021.556c0,.051-.044.076-.133.076A.524.524,0,0,1,83.645,95.854Zm.056-.728c-.076.042-.115.077-.115.105v0s0,0,.007,0l.042.085-.077.049v.245q.266,0,.266-.56C83.819,95.061,83.778,95.084,83.7,95.126Zm3.427.3a.148.148,0,0,0-.028.08.079.079,0,0,0,.066-.032.113.113,0,0,0,.025-.074A.076.076,0,0,0,87.128,95.424Zm-.133-.158a1.032,1.032,0,0,1-.2.028.427.427,0,0,0,.025.132c.016.051.045.077.087.077a.259.259,0,0,0,.165-.094.421.421,0,0,0,.115-.172A.953.953,0,0,0,86.995,95.267Zm-.113-.063h.085c.144,0,.217-.017.217-.049V94.93A3.043,3.043,0,0,0,86.882,95.2Zm-3.282-.4a.1.1,0,0,0-.057.074c0,.032-.006.11-.006.23a.2.2,0,0,0,.189-.094.131.131,0,1,0-.126-.21Zm3.317.021c-.084.017-.126.043-.126.081a.408.408,0,0,0,.014.095c.009.04.019.074.028.1a.287.287,0,0,0,.185-.1,1.021,1.021,0,0,0,.165-.2h-.049A1.179,1.179,0,0,0,86.918,94.828Zm-.084-.066a.886.886,0,0,0,.28-.039.163.163,0,0,0,.113-.172l-.007-.091A1.179,1.179,0,0,0,86.834,94.763Zm-3.325-.826c.014.047.03.1.049.171a1.277,1.277,0,0,1,.035.151.076.076,0,0,1-.018.038.075.075,0,0,0-.017.039v.3c0,.028.027.049.08.066a.44.44,0,0,0,.123.025v-.175l-.077.035a1.114,1.114,0,0,0,.109-.193.674.674,0,0,0,.024-.213.447.447,0,0,0-.063-.245.513.513,0,0,1,.035-.074.376.376,0,0,1,.069-.094A.515.515,0,0,0,83.509,93.937Zm3.377.469a.269.269,0,0,0-.122.245.536.536,0,0,0,.27-.108c.109-.073.164-.144.164-.214A.577.577,0,0,0,86.886,94.406Zm.1-.245-.07.084a.51.51,0,0,1-.035.042v.056a.442.442,0,0,0,.263-.094.266.266,0,0,0,.13-.213.335.335,0,0,0-.014-.088.246.246,0,0,0-.041-.087A2.258,2.258,0,0,1,86.988,94.161ZM86.8,93.9a.147.147,0,0,0-.087.133.367.367,0,0,0,.024.1.365.365,0,0,1,.024.091q.127,0,.294-.365l-.084-.007A.356.356,0,0,0,86.8,93.9Zm.122-.175c.014.033.049.049.105.049a.346.346,0,0,0,.189-.042.18.18,0,0,0,.063-.161.068.068,0,0,0-.017-.035.052.052,0,0,0-.039-.021C87.158,93.516,87.058,93.587,86.918,93.726Zm-2.911-.384a1.382,1.382,0,0,0-.413.35l-.007.021a.049.049,0,0,0,.021.032l.029.024a.252.252,0,0,0,.164-.049.547.547,0,0,0,.116-.148.567.567,0,0,1,.1-.132.234.234,0,0,1,.14-.049v.091a.819.819,0,0,0,.385-.091v.042a.416.416,0,0,0,.143-.028.322.322,0,0,0,.115-.07c0,.009-.014.027-.028.052a.2.2,0,0,0-.021.094.356.356,0,0,0,.175-.091c0,.051.017.077.049.077a.191.191,0,0,0,.07-.018.18.18,0,0,1,.056-.017v.1a.974.974,0,0,0,.777-.365.264.264,0,0,0-.059-.028.664.664,0,0,0-.067-.021.474.474,0,0,0-.213.087.237.237,0,0,0-.095.185h-.035v-.182a.316.316,0,0,1-.175.126l.084-.168q0-.013-.046-.049a.135.135,0,0,0-.073-.035.244.244,0,0,1-.116.15c-.063.04-.1.062-.108.067a.157.157,0,0,0-.1-.067.429.429,0,0,0-.119-.024v-.049a.218.218,0,0,0-.087.025.215.215,0,0,1-.081.024c-.032,0-.054-.007-.063-.021s-.019-.022-.028-.022A.992.992,0,0,0,84.006,93.342Zm-.385.024a.182.182,0,0,0-.07.122l.007.105.252-.259v-.042A.29.29,0,0,0,83.621,93.366Zm2.786-.052a.666.666,0,0,0-.1.1.176.176,0,0,0-.042.1h.217c.009,0,.029-.037.059-.112a.5.5,0,0,0,.046-.161.086.086,0,0,0-.011-.049.125.125,0,0,0-.045-.028A.619.619,0,0,1,86.407,93.314Zm-.778.2a1.007,1.007,0,0,0,.263-.024c.053-.016.08-.069.08-.158l-.006-.084A.761.761,0,0,0,85.63,93.516Zm.487-.248a.485.485,0,0,0-.018.137l.007.063q.358-.169.357-.357a.21.21,0,0,0-.1.031.205.205,0,0,1-.091.032.1.1,0,0,1-.053-.011.118.118,0,0,1-.038-.045A.783.783,0,0,0,86.117,93.268Zm.878,0a.229.229,0,0,0-.077.161.424.424,0,0,0,.207-.039.168.168,0,0,0,.067-.158l-.007-.119A1.339,1.339,0,0,0,86.995,93.271Zm-.259-.1a.39.39,0,0,0-.07.245.75.75,0,0,0,.207-.2c.058-.085.09-.129.094-.133h-.022A.25.25,0,0,0,86.736,93.173Zm-3.178.035s.012.019.035.042l.115-.011c.068-.007.1-.032.1-.074,0-.019,0-.057-.011-.115a.516.516,0,0,0-.038-.15A.6.6,0,0,0,83.558,93.209Zm-.049-.434a.776.776,0,0,0,.01.1.279.279,0,0,0,.039.116c.019-.014.051-.038.1-.07a.394.394,0,0,0,.105-.1.351.351,0,0,0,.049-.13l-.1-.006h-.028C83.567,92.684,83.509,92.714,83.509,92.775Zm3.534-.007c-.047.06-.072.094-.076.1,0,.028.032.041.084.041s.106-.02.122-.059a.469.469,0,0,0,.024-.171A.2.2,0,0,0,87.044,92.768Zm-.108-.193a.132.132,0,0,0-.053.074.044.044,0,0,0,.014.028c.009.009.016.013.021.013a.164.164,0,0,0,.109-.059.532.532,0,0,1,.074-.067l-.07-.006A.2.2,0,0,0,86.936,92.575Zm-3.3-.011h.175l.049-.21H83.81A.68.68,0,0,1,83.635,92.564Zm-.049-.332a.188.188,0,0,0-.076.158c0,.056.022.084.069.084s.085-.041.14-.122.086-.125.091-.13a.052.052,0,0,0-.017-.031.048.048,0,0,0-.032-.017A.28.28,0,0,0,83.586,92.232Zm3.318.22a.571.571,0,0,0,.193-.021c.03-.014.045-.057.045-.126a.636.636,0,0,0-.041-.224A.469.469,0,0,0,86.9,92.452Zm-3.213-.5a.357.357,0,0,0-.056.15.592.592,0,0,0,.175-.017q.049-.018.049-.116a.226.226,0,0,0-.013-.091.135.135,0,0,0-.084-.049C83.751,91.843,83.728,91.885,83.691,91.952ZM86.882,92l-.006.014a.08.08,0,0,0,.014.042.1.1,0,0,0,.028.028c.085-.005.136-.059.154-.165a2.14,2.14,0,0,0,.029-.374.5.5,0,0,0-.014-.144.081.081,0,0,0-.067-.049,1.071,1.071,0,0,0-.185-.011V91.7c.014,0,.034.039.059.1s.05.094.074.094a.03.03,0,0,0,.017,0A.451.451,0,0,0,86.882,92Zm-3.373,0a1.273,1.273,0,0,0,.126-.13.2.2,0,0,0,.049-.129A.248.248,0,0,0,83.509,92Zm.171-.479-.087.094a.088.088,0,0,0,.091.049.159.159,0,0,0,.087-.024.088.088,0,0,0,.039-.081.391.391,0,0,0-.017-.094c-.012-.04-.022-.061-.032-.067A.362.362,0,0,1,83.68,91.518Zm-.213-.123a.236.236,0,0,0,.028.094.133.133,0,0,0,.063.074l.126-.168c0-.009-.012-.02-.035-.032a.155.155,0,0,0-.07-.017C83.5,91.346,83.467,91.363,83.467,91.4ZM75.753,95.91a1.2,1.2,0,0,1-.259-.091H73.688a.705.705,0,0,1-.21-.035.2.2,0,0,1-.14-.112c0-.14,0-.264.007-.372s.01-.2.014-.266q.02-.329.021-.637v-.287c0-.224-.005-.419-.017-.588a3.129,3.129,0,0,0-.074-.49V91.178h.868a.631.631,0,0,0,.168.042c.051,0,.126.007.224.007a.155.155,0,0,0,.126-.049q.3,0,.679-.028l.231-.013q.09,0,.553.041a.284.284,0,0,1,.032.042.3.3,0,0,1,.024.049.584.584,0,0,1-.035.211.653.653,0,0,0-.028.182l.007.077-.168.041q-.294-.02-.595-.021a5.672,5.672,0,0,0-1.386.154.6.6,0,0,0-.046.133.76.76,0,0,0-.01.14,1.16,1.16,0,0,0,.028.217,1.509,1.509,0,0,1,.028.224l-.049.406.085.085.224.014a2.286,2.286,0,0,0,.371-.035.557.557,0,0,1,.139-.021c.033.032.054.049.063.049h-.006l.014.006c.038,0,.056-.023.056-.069h.784a.677.677,0,0,1,.085.147l.084-.042a.127.127,0,0,0-.035.074.746.746,0,0,0-.007.108c0,.173,0,.271.007.294l-.091.077q-.567,0-1.449.049l-.2.007L74,93.768c-.038,0-.057.014-.057.042v1.3l.049.077a1.064,1.064,0,0,0,.262.032c.171.012.319.017.445.017a1.689,1.689,0,0,0,.322-.056,1.729,1.729,0,0,1,.385-.07,1.614,1.614,0,0,1,.217.018.693.693,0,0,1,.133.024l.049.035c0-.028.031-.042.077-.042l.091.007-.077.035.1-.007h.042a.168.168,0,0,1,.067.011.082.082,0,0,1,.039.045.172.172,0,0,0,.045-.024.163.163,0,0,1,.046-.024.185.185,0,0,1,.08.109.719.719,0,0,1,.018.178.7.7,0,0,1-.1.448l-.189.006A1.507,1.507,0,0,1,75.753,95.91Zm.167-.2a.149.149,0,0,0,.155-.084.611.611,0,0,0,.034-.224H75.92Zm-.206-.182c-.059.023-.087.042-.087.056v.07a.286.286,0,0,0,.15-.045.346.346,0,0,0,.115-.116h-.056A.4.4,0,0,0,75.714,95.532ZM74.5,95.484a.252.252,0,0,0-.126.1l.126.007a.472.472,0,0,0,.171-.024.165.165,0,0,0,.087-.115l-.084-.007A.448.448,0,0,0,74.5,95.484Zm-.378.069a.191.191,0,0,0-.057.035l.05.007a.082.082,0,0,0,.084-.056h-.021A.159.159,0,0,0,74.122,95.553Zm.9-.059a.671.671,0,0,0-.084.095.169.169,0,0,0,.084-.041.291.291,0,0,0,.084-.091l-.021-.007C75.072,95.449,75.05,95.464,75.018,95.494Zm-1.253.095a.238.238,0,0,0,.122-.024.481.481,0,0,0,.1-.108A.918.918,0,0,0,73.765,95.588Zm-.13-.189a.613.613,0,0,1-.046.1v.014a.064.064,0,0,0,.022.049l.028.028.1-.1c.058-.059.087-.1.087-.123h-.113v-.076A.211.211,0,0,0,73.635,95.4Zm1.859.14.343-.133H75.4l-.168.133a.782.782,0,0,0,.158-.011.221.221,0,0,0,.1-.073Zm-.221-.168a.064.064,0,0,0-.039.035h.014c.07,0,.11-.014.119-.042h-.042A.2.2,0,0,0,75.273,95.371Zm-1.684-.126a.086.086,0,0,0,.081-.041.182.182,0,0,0,.024-.092h-.105Zm.077-.7c-.066,0-.1.073-.1.218a.321.321,0,0,0,0,.056.163.163,0,0,1,0,.028h.063c.009,0,.024-.024.045-.074a.3.3,0,0,0,.032-.108.292.292,0,0,0-.013-.081c-.01-.03-.019-.045-.028-.045Zm-.032-.213a.5.5,0,0,0-.017.15c.069,0,.1-.067.1-.2A.08.08,0,0,0,73.635,94.332Zm-.007-.259a.046.046,0,0,0-.039.046c.005.009.012.023.022.042a.144.144,0,0,0,.028.041c.037-.014.056-.06.056-.14A.291.291,0,0,0,73.628,94.073Zm.018-.241a.145.145,0,0,0-.063.119.18.18,0,0,0,.112-.024.135.135,0,0,0,.028-.1l-.007-.049Zm-.057-.139a.213.213,0,0,0,.1-.025.084.084,0,0,0,.046-.08C73.639,93.587,73.589,93.622,73.589,93.692Zm.879-.291a.234.234,0,0,0-.109.193.5.5,0,0,0,.248-.081.519.519,0,0,0,.193-.178l-.1-.007h-.02A.352.352,0,0,0,74.469,93.4Zm.248.15h.217q.02,0,.035-.084a.9.9,0,0,0,.014-.133h-.049Zm-.91-.077h.258v.077a.434.434,0,0,0,.183-.046.138.138,0,0,0,.1-.122h-.49C73.823,93.383,73.807,93.414,73.807,93.474Zm1.515-.1a.388.388,0,0,0-.087.13h.35a.988.988,0,0,1-.133-.211A.313.313,0,0,0,75.322,93.373Zm-1.7-.165c-.053.009-.08.035-.08.076a.331.331,0,0,0,.021.112c.014.037.023.063.028.076l.224-.223v-.057A1.177,1.177,0,0,0,73.621,93.209ZM73.656,93a.156.156,0,0,0-.073.13c.154,0,.23-.061.23-.183A.268.268,0,0,0,73.656,93Zm-.1-.333c-.03.01-.045.016-.045.022v.28a.277.277,0,0,0,.168-.091.254.254,0,0,0,.1-.175c0-.009-.016-.02-.049-.032a.269.269,0,0,0-.091-.017A.292.292,0,0,0,73.558,92.662Zm-.01-.1a.691.691,0,0,0,.171-.014.076.076,0,0,0,.057-.052.811.811,0,0,0,.01-.158Q73.667,92.334,73.548,92.558Zm.063-.364a.3.3,0,0,0-.077.046.1.1,0,0,0-.028.08l.007.063a.82.82,0,0,0,.165-.168.36.36,0,0,0,.045-.2l-.007-.105a.94.94,0,0,1-.122.1c-.053.037-.08.06-.08.07,0,.037.037.056.112.056l.063-.007A.165.165,0,0,1,73.611,92.193Zm-.056-.378a.116.116,0,0,0-.057.105.21.21,0,0,0,.122-.042.337.337,0,0,0,.094-.1h-.028A.242.242,0,0,0,73.555,91.815Zm.034-.119h.049a1.227,1.227,0,0,0,.3-.113c.166-.075.251-.123.256-.147a.937.937,0,0,0-.35-.049,3.238,3.238,0,0,0-.336.006l-.049.211a.551.551,0,0,0,.224-.085Zm.722-.119c-.014.028-.023.047-.029.056s.007.014.022.014a.067.067,0,0,0,.076-.076l-.006-.049A.106.106,0,0,0,74.311,91.578ZM75.4,91.4c0,.038.009.062.028.074a.162.162,0,0,0,.085.018.3.3,0,0,0,.143-.035.113.113,0,0,0,.067-.105H75.4A.162.162,0,0,0,75.4,91.4Zm-.812.042h.049V91.4Zm28.147,4.421c-.214-.022-.382-.043-.5-.067a.04.04,0,0,0-.028-.014.084.084,0,0,0-.035.007.061.061,0,0,1-.028.007.448.448,0,0,1-.319-.13.779.779,0,0,1-.2-.3.157.157,0,0,0,.15-.087,1.236,1.236,0,0,0,.087-.241c.019-.1.04-.147.063-.147l.6.349a.249.249,0,0,0,.046-.006.333.333,0,0,1,.08-.007c.056,0,.086.013.091.042l.168-.007a.432.432,0,0,1,.182.028.211.211,0,0,0,.084.028,2.284,2.284,0,0,0,.815-.15.53.53,0,0,0,.4-.515.807.807,0,0,0-.091-.343.441.441,0,0,0-.217-.238l-1.9-.826a.755.755,0,0,1-.392-.361,1.247,1.247,0,0,1-.126-.571.654.654,0,0,1,.059-.276,1.662,1.662,0,0,1,.133-.238l.1-.151a1.164,1.164,0,0,1,.613-.406,2.934,2.934,0,0,1,.851-.119.922.922,0,0,1,.171.024,1.621,1.621,0,0,0,.319.025c.117.018.253.043.41.073a1.964,1.964,0,0,1,.241.053l.126.132v.518a.312.312,0,0,1-.063.13c-.041.063-.072.094-.091.094q-.077-.035-.364-.175-.323-.161-.522-.241a1.074,1.074,0,0,0-.41-.08,1.468,1.468,0,0,0-.7.164.551.551,0,0,0-.311.522.407.407,0,0,0,.109.241,1.2,1.2,0,0,0,.256.239.461.461,0,0,0,.23.1l.092-.006a1.528,1.528,0,0,1,.4.2,1.513,1.513,0,0,0,.311.175,1.03,1.03,0,0,0,.367.056,1.422,1.422,0,0,1,.48.2,1.47,1.47,0,0,1,.4.374.766.766,0,0,1,.161.459.691.691,0,0,1-.028.2l-.035.115a.872.872,0,0,0-.063.21,4.45,4.45,0,0,1-.136.445.377.377,0,0,1-.165.178,1.181,1.181,0,0,1-.4.113l-.021.021-.021.022a3.209,3.209,0,0,1-.441.136,1.9,1.9,0,0,1-.42.046C103.136,95.89,102.946,95.879,102.73,95.858Zm.648-.413a.1.1,0,0,0-.039.045.157.157,0,0,0,.07.13.241.241,0,0,0,.147.053h.021c.066,0,.1-.019.113-.057a3.135,3.135,0,0,0,.654-.154.411.411,0,0,0,.291-.364.2.2,0,0,0-.133-.042q-.028,0-.084.119a.766.766,0,0,1-.1.175.162.162,0,0,1-.13.063.115.115,0,0,1-.049-.024.118.118,0,0,0-.063-.025,1.959,1.959,0,0,0-.28.029l-.105.014a.944.944,0,0,1-.113.007.8.8,0,0,1-.147-.007C103.417,95.415,103.4,95.429,103.379,95.445Zm-.445.049a.261.261,0,0,0-.042.172h.365l.021-.021a.115.115,0,0,0,.021-.029.167.167,0,0,0-.041-.132.207.207,0,0,0-.133-.035A.272.272,0,0,0,102.934,95.494Zm-.448.081a.584.584,0,0,1,.067.028.267.267,0,0,0,.109.021.149.149,0,0,0,.126-.07.261.261,0,0,0,.049-.154C102.6,95.4,102.486,95.458,102.486,95.575Zm-.452-.238a.273.273,0,0,0-.038.126.108.108,0,0,0,.035.094.18.18,0,0,0,.1.025.135.135,0,0,0,.091-.039.16.16,0,0,0,.042-.122l-.007-.014-.175.084-.035-.014v-.028l.1-.046a.2.2,0,0,0,.108-.087.1.1,0,0,0-.045-.031.179.179,0,0,0-.074-.017A.119.119,0,0,0,102.034,95.336Zm.309.088a.237.237,0,0,0-.046.15h.1l-.042-.035a.414.414,0,0,0,.091-.091.08.08,0,1,0-.1-.024Zm2.32-.728c-.047.025-.07.052-.07.08a.244.244,0,0,0,.042.113.1.1,0,0,0-.1.1.2.2,0,0,0,.185-.1.448.448,0,0,0,.059-.238A.255.255,0,0,0,104.663,94.7Zm.035-.357c-.07.049-.105.094-.105.137s.032.069.1.069c.089,0,.141-.02.158-.059a.665.665,0,0,0,.024-.221A.334.334,0,0,0,104.7,94.339Zm-.189-.284q-.084.028-.084.049v.049l.21.084a.1.1,0,0,0-.1.112.245.245,0,0,0,.126-.039.446.446,0,0,0,.105-.087c.028-.033.041-.054.041-.063a.115.115,0,0,0-.056-.105.218.218,0,0,0-.119-.035A.866.866,0,0,0,104.509,94.055Zm-.231-.126h.3q0-.084-.175-.084C104.32,93.846,104.278,93.874,104.278,93.929Zm-.371-.252a.652.652,0,0,0,.14.13.279.279,0,0,0,.16.059V93.8h-.041a.251.251,0,0,0,.028-.035.067.067,0,0,0,.014-.035c0-.07-.051-.1-.154-.1h-.035C103.949,93.629,103.911,93.645,103.907,93.677Zm-.084-.042.035-.049h-.092Zm-.3-.126.042-.006a.853.853,0,0,0-.224-.085A.259.259,0,0,0,103.522,93.509Zm-.556-.217a.8.8,0,0,0,.178.014c0-.075-.079-.113-.238-.113C102.906,93.251,102.926,93.283,102.965,93.292Zm-.361-.133a.352.352,0,0,0,.088.053.271.271,0,0,0,.094.031c.009,0,.025-.011.049-.031s.035-.039.035-.053l-.049-.041Zm-.193-.147a.327.327,0,0,1-.017.05h.189a.073.073,0,0,0-.042-.06.165.165,0,0,0-.084-.024A.044.044,0,0,0,102.412,93.012Zm-.175-.1c-.044.014-.067.031-.067.049l-.007.006c0,.01.014.02.042.032a.19.19,0,0,1,.056.032c.07,0,.105-.046.105-.14A.442.442,0,0,0,102.237,92.914Zm-.119-.122a.156.156,0,0,0-.031.067l.049.007a.087.087,0,0,0,.091-.049.1.1,0,0,0-.035-.041.062.062,0,0,0-.034-.014C102.147,92.76,102.135,92.771,102.118,92.792Zm-.165-.024h.1v-.042h-.1Zm-.035-.133.035.007a.152.152,0,0,0,.074-.018.057.057,0,0,0,.032-.052l-.007-.014Zm.021-.076c.051,0,.077-.047.077-.14h-.154C101.863,92.511,101.888,92.558,101.939,92.558Zm-.045-.3q.024.046.059.046a.087.087,0,0,0,.077-.046.185.185,0,0,0,.028-.094h-.189A.2.2,0,0,0,101.894,92.26Zm.024-.178h.168v-.063C101.984,92.019,101.928,92.039,101.919,92.082Zm.193-.284a.256.256,0,0,0-.067.164.188.188,0,0,0,.158-.076.312.312,0,0,0,.059-.2A.331.331,0,0,0,102.111,91.8Zm2.272-.27a.36.36,0,0,1-.024.105.338.338,0,0,0-.025.1.114.114,0,0,0,.029.084.238.238,0,0,0,.1.049l.091-.344q0-.055-.479-.14a4.594,4.594,0,0,0-.69-.084.093.093,0,0,0-.032.031.073.073,0,0,0-.017.038q0,.07.105.07h.035c.074,0,.114-.019.119-.056a.186.186,0,0,0,.063.105.157.157,0,0,0,.1.041.154.154,0,0,0,.067-.01.069.069,0,0,0,.025-.046l.132.126.133-.126v.14l.081-.032c.04-.017.083-.037.129-.06Zm-.158.1a.068.068,0,0,0-.024.046l.006.013.085-.091h-.022A.125.125,0,0,0,104.225,91.63Zm-1.74-.154c-.088.035-.133.074-.133.115,0,.01.019.014.057.014a.443.443,0,0,0,.185-.059c.076-.04.115-.081.115-.122A.635.635,0,0,0,102.486,91.476Zm.686-.119c-.047.006-.091.015-.132.024a.149.149,0,0,0,.041.028l.042.021a.255.255,0,0,0,.1-.024c.037-.016.056-.036.056-.059A.76.76,0,0,0,103.172,91.357Zm-7.251,4.49c-.117-.023-.2-.042-.246-.056a.676.676,0,0,0-.13-.137l-.094-.08a1.48,1.48,0,0,1-.217-.207.347.347,0,0,1-.076-.227c-.042,0-.067-.005-.074-.014a.16.16,0,0,1-.011-.077.216.216,0,0,1-.182-.094,1.372,1.372,0,0,1-.147-.276,1.59,1.59,0,0,0-.113-.224.14.14,0,0,1-.122-.067.875.875,0,0,1-.08-.15c-.023-.056-.042-.1-.056-.126a1.075,1.075,0,0,0-.133-.154.868.868,0,0,1-.168-.238,2.693,2.693,0,0,0-.228-.4c-.123-.194-.247-.369-.371-.528s-.2-.238-.241-.238-.047.088-.07.265c0,.183.007.382.021.6s.023.361.029.431q.049.6.049,1.036a1.613,1.613,0,0,1-.021.248c-.014.086-.023.143-.028.171a2.132,2.132,0,0,0-.049.413c0,.075-.047.121-.14.14a1.731,1.731,0,0,1-.337.028.4.4,0,0,1-.087-.014l-.122-.028c-.01-.075-.019-.169-.028-.284s-.016-.209-.022-.284q0-.413.042-1.253.049-.763.049-1.337c-.023-.094-.046-.193-.067-.3a1.445,1.445,0,0,1-.031-.291,4.16,4.16,0,0,1,.028-.419,2.772,2.772,0,0,0,.035-.428l-.007-.161a1.327,1.327,0,0,1,.193-.035c.053,0,.111-.006.171-.006s.134,0,.193.006a1.9,1.9,0,0,1,.22.035c.164.252.257.394.28.427.187.284.331.51.435.679a4.106,4.106,0,0,1,.273.532,2.487,2.487,0,0,0,.263.41q.262.375.521.7t.329.326a2.939,2.939,0,0,0,.063-.98l-.007-.932c-.028-.112-.042-.167-.042-.167,0-.057,0-.121.011-.2s.01-.129.01-.161a2.74,2.74,0,0,0,.022-.35.168.168,0,0,1,.1-.178.732.732,0,0,1,.266-.039,1.085,1.085,0,0,1,.22.017q.081.018.081.081a.4.4,0,0,1-.014.084.431.431,0,0,0-.013.1.735.735,0,0,0,.024.137.723.723,0,0,1,.024.158,6.49,6.49,0,0,0,.049.734c.005.047.014.148.029.305s.021.3.021.445a5.415,5.415,0,0,1-.049.671q-.042.42-.041.637v.245a7.148,7.148,0,0,0,.041.854c.005.019.017.055.035.109a.449.449,0,0,1,.028.15A1.507,1.507,0,0,1,95.92,95.847Zm-.246-.392v.084l.168.035h.007c.023,0,.035-.049.035-.148v-.063ZM92.7,95.364a.23.23,0,0,0-.081.211h.113l.224-.211v-.049A.51.51,0,0,0,92.7,95.364Zm2.929-.041a.315.315,0,0,0,.189-.056.188.188,0,0,0,.076-.161h-.049Zm-.158-.105a.087.087,0,0,0-.039.084c.1,0,.147-.037.147-.112A.3.3,0,0,0,95.468,95.217Zm-2.776-.543a.4.4,0,0,0-.049.228l-.007.14a.3.3,0,0,0,.028.143.114.114,0,0,0,.112.052.647.647,0,0,0,.172-.017.086.086,0,0,0,.059-.094.192.192,0,0,0,0-.035.124.124,0,0,0-.011-.035.44.44,0,0,1-.265.133.141.141,0,0,0,.049-.112l-.006-.133a.7.7,0,0,1,.063-.168.761.761,0,0,0,.069-.189A.307.307,0,0,0,92.693,94.675Zm2.66.252a.242.242,0,0,0-.1.193.354.354,0,0,0,.206-.1c.082-.07.122-.131.122-.183l-.007-.028A.7.7,0,0,0,95.353,94.927Zm.23.053a1.146,1.146,0,0,0-.084.126.339.339,0,0,0,.343-.231,1.371,1.371,0,0,0,.091-.5q0-.084-.049-.084a.213.213,0,0,0-.158.052.547.547,0,0,0-.1.157.536.536,0,0,1-.1.165.213.213,0,0,1-.158.052l.007-.021a.084.084,0,0,0-.042-.07c-.014,0-.049.021-.1.049a.383.383,0,0,0-.12.085l.168.175c.014-.009.076-.053.185-.133a.516.516,0,0,1,.284-.119A.979.979,0,0,1,95.584,94.98Zm-2.674-.224a.345.345,0,0,0-.063.189A.179.179,0,0,0,93,94.85a.348.348,0,0,0,.059-.185H93.05A.166.166,0,0,0,92.91,94.756Zm2.149-.077a.28.28,0,0,0,.105-.031.77.77,0,0,0,.112-.059.423.423,0,0,0-.007-.091c0-.019-.013-.028-.028-.028a.1.1,0,0,0-.035.007.159.159,0,0,1-.049.006v-.119a.274.274,0,0,0-.144.053c-.053.034-.08.071-.08.108l.017.032a.143.143,0,0,0,.025.032.079.079,0,0,0,.045-.017.438.438,0,0,0,.039-.032Zm-2.247-.154q.224,0,.224-.154a.208.208,0,0,0-.014-.067.7.7,0,0,0-.029-.067A.383.383,0,0,0,92.812,94.524Zm2-.154c0,.028.028.042.084.042a.268.268,0,0,0,.119-.028.086.086,0,0,0,.057-.077c0-.028-.022-.059-.063-.094a.6.6,0,0,0-.091-.067.026.026,0,0,0-.014,0l-.007,0-.217-.434-.007,0a.025.025,0,0,0-.014,0,.089.089,0,0,0-.087.07.445.445,0,0,0-.025.154.177.177,0,0,0,.035.126.164.164,0,0,0,.119.035.2.2,0,0,1-.01.056.238.238,0,0,0-.011.07.056.056,0,0,0,.063.063.169.169,0,0,0,.056-.014.16.16,0,0,0,.057-.035C94.82,94.322,94.807,94.366,94.807,94.37Zm-2.055-.15c-.044.016-.067.039-.067.067a.224.224,0,0,0,.022.045l.021.039L92.9,94.2h-.049A.325.325,0,0,0,92.752,94.22Zm2.874.115a.332.332,0,0,0,.168-.056.389.389,0,0,0,.132-.126h-.167a.4.4,0,0,0,.087-.087.183.183,0,0,0,.045-.081h-.266Zm-2.849-.266c.154,0,.231-.061.231-.183a.235.235,0,0,0,0-.038.112.112,0,0,0-.011-.039A.663.663,0,0,0,92.777,94.07Zm.074-.368a.134.134,0,0,0-.1.07.416.416,0,0,0-.024.165l.224-.217v-.042Zm2.891-.84a.266.266,0,0,0-.087.171H95.7l.007.035a.685.685,0,0,1-.084.091,1.445,1.445,0,0,0-.049.448.269.269,0,0,0,.014.109.117.117,0,0,0,.042.041.108.108,0,0,1,.041.053c0,.009,0,.024-.013.045s-.026.031-.035.031h.3v-.175a.277.277,0,0,0-.08.017.474.474,0,0,0-.087.039,1.437,1.437,0,0,0,.143-.217.541.541,0,0,0,.087-.224.111.111,0,0,0-.076.024.356.356,0,0,0-.063.081.2.2,0,0,1-.14.112v-.076a.9.9,0,0,0,.185-.2.411.411,0,0,0,.074-.231H95.8a.209.209,0,0,1,.067-.052.4.4,0,0,0,.077-.052.1.1,0,0,0,.032-.077.093.093,0,0,0-.028-.052c-.019-.021-.033-.032-.042-.032A.24.24,0,0,0,95.741,92.862Zm-1.312.826c-.042.016-.063.033-.063.052a.17.17,0,0,0,.024.074c.016.03.031.045.046.045.037,0,.065-.025.084-.076a.408.408,0,0,0,.028-.14.391.391,0,0,0-.049-.178.145.145,0,0,0-.126-.094c-.01,0-.03.027-.059.08a.245.245,0,0,1-.074.095c0,.047.012.077.035.091a.2.2,0,0,0,.1.022.45.45,0,0,0,.085-.007l.041-.007A.163.163,0,0,1,94.429,93.688Zm-1.582-.081c.1,0,.154-.032.154-.1a.159.159,0,0,0-.007-.059c0-.012-.018-.022-.041-.031A.29.29,0,0,0,92.847,93.607Zm-.039-.356a.1.1,0,0,0-.08.1s.016.056.049.154a.831.831,0,0,0,.151-.132.238.238,0,0,0,.052-.155A.514.514,0,0,0,92.808,93.251Zm1.348,0c-.033.012-.049.043-.049.095a.145.145,0,0,0,.091.126.272.272,0,0,0,.1-.239A.429.429,0,0,0,94.156,93.247Zm-.172-.27a.082.082,0,0,0-.046.07.159.159,0,0,0,.042.122.123.123,0,0,0,.084.039.222.222,0,0,0,.1-.021.074.074,0,0,0,.042-.07.122.122,0,0,0-.035-.091.645.645,0,0,0-.119-.085A.413.413,0,0,0,93.984,92.977Zm-1.158.059a.175.175,0,0,0-.063.13.193.193,0,0,0,.143-.052.186.186,0,0,0,.053-.137A.191.191,0,0,0,92.826,93.037Zm-.105-.032a.729.729,0,0,0,.137-.073q.094-.059.094-.081V92.81C92.8,92.81,92.721,92.875,92.721,93.005Zm1.148-.241a.184.184,0,0,0-.1.052c.051.089.086.133.1.133a.107.107,0,0,0,.1-.063.27.27,0,0,0,.035-.133A.75.75,0,0,0,93.869,92.764Zm1.75-.154c-.023.04-.037.064-.042.074a.441.441,0,0,0,.018.1c.012.045.022.067.031.067h.049l.211-.21c-.01-.028-.04-.05-.091-.067a.44.44,0,0,0-.12-.024C95.661,92.551,95.642,92.57,95.619,92.61Zm-1.89-.137a.4.4,0,0,1-.028.122.428.428,0,0,0-.028.137c.182,0,.273-.021.273-.063a1.282,1.282,0,0,0-.308-.588l-.21-.217A1.218,1.218,0,0,0,93.2,92l.067.122a.266.266,0,0,0,.073.1.185.185,0,0,0,.105.025.645.645,0,0,0,.024.206.41.41,0,0,0,.122.15l.126-.175Zm-.91-.3a.631.631,0,0,0-.133.076v.435l.042.041a1.366,1.366,0,0,0,.168-.147.272.272,0,0,0,.1-.175.377.377,0,0,1-.045-.122.761.761,0,0,1-.018-.164A1.175,1.175,0,0,1,92.819,92.173Zm2.891.28q0,.07.189.07c0-.211-.019-.315-.056-.315A.466.466,0,0,0,95.71,92.452Zm-.133-.2V92.4c.023,0,.082-.062.175-.185a.871.871,0,0,0,.14-.214h-.049Zm-2.6-.427a1.942,1.942,0,0,0-.322.3h.035l.693-.343c0-.014-.015-.04-.032-.076s-.033-.057-.052-.057A.679.679,0,0,0,92.973,91.823Zm2.6.259h.049l.217-.217-.042-.042.085-.042a.727.727,0,0,0,.028-.126,1.021,1.021,0,0,0,.014-.14.1.1,0,0,0-.014-.046.082.082,0,0,0-.028-.032h-.259l-.049.168a.328.328,0,0,0,.035.143.168.168,0,0,0,.1.094h-.133Zm-2.81-.291a.177.177,0,0,0-.116.158h.035l.35-.217h-.042A.491.491,0,0,0,92.767,91.791Zm.006-.326a.355.355,0,0,0-.122.224.039.039,0,0,0,.014.028c.009.01.016.014.021.014l.35-.385-.042-.007A.338.338,0,0,0,92.773,91.465Zm.27-.007a1.011,1.011,0,0,0-.091.148l.021.007a.872.872,0,0,1,.105-.06.6.6,0,0,0,.126-.08.116.116,0,0,0-.022-.056c-.014-.023-.025-.035-.034-.035C93.115,91.382,93.08,91.407,93.043,91.458Zm-.392-.154a.329.329,0,0,0,.035.085l.14-.085-.1-.049C92.677,91.256,92.651,91.272,92.651,91.3Zm-1.036,4.522-.07-.028a.389.389,0,0,0-.175-.05.36.36,0,0,0-.1.022.384.384,0,0,1-.095.021c-.023,0-.048-.03-.073-.087a2.633,2.633,0,0,1-.094-.263c-.014-.032-.027-.067-.039-.1s-.024-.071-.039-.108c-.009-.019-.04-.1-.091-.231a1.315,1.315,0,0,0-.193-.35.313.313,0,0,0-.235-.147,1.672,1.672,0,0,0-.265.021l-.115.014c-.045,0-.1.006-.158.006a3.972,3.972,0,0,1-.407-.021c-.28-.013-.436-.021-.469-.021q-.07.266-.119.4t-.189.458a.773.773,0,0,0-.042.183.732.732,0,0,1-.059.224.132.132,0,0,1-.13.076,1.171,1.171,0,0,1-.217-.017A1.794,1.794,0,0,1,88,95.756a.861.861,0,0,1,.049-.269c.032-.1.081-.232.147-.4l.063-.154c.037-.112.076-.238.115-.378l.081-.287a5.636,5.636,0,0,1,.2-.679c.033-.089.082-.208.148-.357.014-.037.044-.111.091-.221A2.216,2.216,0,0,0,89,92.684l.035-.035a1.57,1.57,0,0,0,.035-.185.715.715,0,0,1,.07-.228.143.143,0,0,1,.126-.091,2.576,2.576,0,0,1,.13-.532,1.388,1.388,0,0,1,.2-.476c.243,0,.4,0,.487.013a.284.284,0,0,1,.193.1,1.051,1.051,0,0,1,.147.322l.085.168L90.5,91.8c.028,0,.049.018.067.056a1.153,1.153,0,0,1,.052.167,1.571,1.571,0,0,0,.059.2.27.27,0,0,0,.087.122.04.04,0,0,0-.028.014l-.021.021a.4.4,0,0,0,.042.147.317.317,0,0,1,.049.155h.091a.149.149,0,0,0-.028.041.12.12,0,0,0-.014.049.383.383,0,0,0,.085.147.5.5,0,0,1,.084.154l.028.154a1.452,1.452,0,0,0,.105.413.461.461,0,0,0,.119.154.314.314,0,0,1,.081.119,1.552,1.552,0,0,1,.059.329,1.624,1.624,0,0,0,.1.42q.081.209.249.58c.074.154.142.308.2.463a.111.111,0,0,1-.059.112.413.413,0,0,1-.172.028A.351.351,0,0,1,91.615,95.827Zm-3.289-.567a.408.408,0,0,0-.07.217.216.216,0,0,0,.011.076c.006.019.024.029.052.029s.042-.018.056-.053a.228.228,0,0,0,.021-.073h-.056a1.107,1.107,0,0,1,.1-.116.443.443,0,0,0,.115-.185l-.063-.007A.2.2,0,0,0,88.325,95.26Zm2.961.2c.018.056.1.084.252.084.065,0,.1-.026.1-.077a.817.817,0,0,0-.14-.356.574.574,0,0,1-.08.052.474.474,0,0,0-.109.084.134.134,0,0,0-.042.088.423.423,0,0,0,.189-.049ZM91.24,95q-.13.042-.13.105a.152.152,0,0,0,.035.084.094.094,0,0,0,.07.049l.013-.006.224-.2v-.07A.729.729,0,0,0,91.24,95Zm-.017-.259a1.459,1.459,0,0,0-.1.137c-.028.044-.049.078-.063.1a.632.632,0,0,0,.2-.039c.074-.026.112-.062.112-.109,0-.107-.021-.161-.063-.161Q91.278,94.671,91.223,94.741Zm-2.657,0a.236.236,0,0,0-.059.091l.007.057a1.094,1.094,0,0,0,.15-.109c.058-.049.1-.083.115-.1l-.091-.007A.164.164,0,0,0,88.566,94.741Zm2.489-.112a.374.374,0,0,0-.1.052.091.091,0,0,0-.028.074c0,.065.025.1.077.1s.1-.042.15-.126a.423.423,0,0,0,.08-.2v-.035c0-.112-.021-.167-.063-.167,0,0-.048.033-.13.087a.448.448,0,0,0-.15.136s.012.007.021.022a.049.049,0,0,0,.042.021.746.746,0,0,1,.119-.024c.051-.007.089-.013.113-.018A.219.219,0,0,1,91.055,94.63Zm-2.45-.042a.366.366,0,0,0,.3-.175h-.049C88.791,94.413,88.708,94.47,88.605,94.587Zm2.107-.217a.186.186,0,0,0,.056.074.161.161,0,0,0,.084.017.215.215,0,0,0,.189-.1.38.38,0,0,0,.07-.221,1.118,1.118,0,0,0-.021-.224c-.014-.065-.032-.134-.056-.206s-.04-.125-.049-.158a.25.25,0,0,0-.161.063.37.37,0,0,0-.112.154h.217v.042c-.019.023-.077.09-.175.2a1.715,1.715,0,0,0-.211.277l.085.006a.533.533,0,0,0,.223-.069.577.577,0,0,1,.211-.063A.916.916,0,0,1,90.712,94.37Zm-2.03-.126a.187.187,0,0,0-.041.126l.006.042.109-.053a.411.411,0,0,0,.15-.115c-.009-.032-.044-.049-.1-.049A.149.149,0,0,0,88.682,94.244Zm1.13,0a.115.115,0,0,0-.059.105l.183.006a.879.879,0,0,0,.284-.041.392.392,0,0,0,.2-.154.156.156,0,0,0-.1-.067.462.462,0,0,0-.122-.024.215.215,0,0,0-.119.073.515.515,0,0,0-.091.1v-.084A1.643,1.643,0,0,0,89.812,94.244Zm-.584-.074a1.232,1.232,0,0,0-.2.116.06.06,0,0,0,.063.041h.042a.871.871,0,0,0,.22-.028c.072-.019.108-.053.108-.1a.089.089,0,0,0-.024-.067.082.082,0,0,0-.059-.025A.742.742,0,0,0,89.228,94.171Zm1.176.144c.06,0,.1-.038.1-.113A.1.1,0,0,0,90.4,94.315Zm-.805-.13a.151.151,0,0,0-.056.122.373.373,0,0,0,.273-.147l-.091-.014h-.018A.164.164,0,0,0,89.6,94.185Zm-.784-.074H89v-.167Zm0-.374a.221.221,0,0,0-.087.207l.007.084c.028-.019.073-.047.136-.084a.9.9,0,0,0,.161-.12.344.344,0,0,0,.095-.14h-.041A.54.54,0,0,0,88.811,93.737Zm1.9.207.1-.085C90.744,93.859,90.712,93.887,90.712,93.944Zm-1.047-.795a3.3,3.3,0,0,1-.326.619l-.006.021c0,.07.086.105.258.105.089,0,.168,0,.239-.007L90,93.874c.187-.019.327-.028.42-.028a1.323,1.323,0,0,0-.133-.435c-.009-.018-.028-.061-.056-.129a.462.462,0,0,1-.042-.158l-.336-.652A3.28,3.28,0,0,1,89.665,93.149Zm.928.36-.007.014a.138.138,0,0,0,.028.076c.019.029.032.042.042.042a.214.214,0,0,0,.175-.091.314.314,0,0,0,.07-.2.7.7,0,0,0-.035-.21c-.023-.075-.058-.112-.105-.112q-.049.063-.167.259a.333.333,0,0,0-.057.063s.005.011.014.032a.044.044,0,0,0,.042.032.693.693,0,0,0,.132-.021.638.638,0,0,1,.126-.021ZM89.2,93.461a.284.284,0,0,0-.1.067.134.134,0,0,0-.035.095.269.269,0,0,0,.15-.056.154.154,0,0,0,.081-.12l-.007-.028C89.272,93.428,89.242,93.442,89.2,93.461Zm-.263-.1a.93.93,0,0,0-.052.137c-.014.047-.023.079-.028.1.041-.023.115-.067.22-.13s.193-.121.262-.172h-.308A.1.1,0,0,0,88.937,93.359Zm1.6-.385a.486.486,0,0,0-.1.046c-.021.014-.032.044-.032.091v.042a.19.19,0,0,0,.049.14.593.593,0,0,0,.259-.434,1.158,1.158,0,0,0-.018-.217c-.012-.061-.043-.091-.094-.091a.239.239,0,0,0-.07.035.467.467,0,0,0-.076.063l.168-.175a1.2,1.2,0,0,0-.074-.21c-.049-.121-.081-.182-.095-.182h-.042l-.3.3-.007.028a.085.085,0,0,0,.046.067.218.218,0,0,0,.087.039.05.05,0,0,0-.042.042.355.355,0,0,0-.007.069q0,.154.07.154a.356.356,0,0,0,.113-.056.371.371,0,0,1-.025.119.367.367,0,0,0-.024.113.4.4,0,0,0,.081-.007l.059-.014a.6.6,0,0,1,.161-.029A.147.147,0,0,1,90.54,92.974Zm-1.319.081a1.2,1.2,0,0,0-.112.084.111.111,0,0,0-.049.077.535.535,0,0,0,.315-.067.521.521,0,0,0,.133-.3h-.042A1.161,1.161,0,0,1,89.221,93.055Zm.217-.294a.565.565,0,0,1-.139.035.468.468,0,0,0-.165.056.158.158,0,0,0-.052.14.037.037,0,0,0,.017.028.055.055,0,0,0,.024.014q.574-.335.574-.608h-.049a.708.708,0,0,0-.228.133c-.124.088-.185.147-.185.175a.521.521,0,0,0,.14-.024.519.519,0,0,1,.133-.024A.124.124,0,0,1,89.438,92.76Zm.239-1.379a1,1,0,0,0-.049.2.954.954,0,0,1-.024.148.141.141,0,0,1-.052.091h.175a.249.249,0,0,1-.073.08.74.74,0,0,1-.088.053.408.408,0,0,0-.143.108.319.319,0,0,0-.046.193.111.111,0,0,0,.018.07.1.1,0,0,0,.073.021c-.121,0-.182.051-.182.154l.007.05a.909.909,0,0,0,.329-.176.891.891,0,0,0,.238-.293l.518-.175a.5.5,0,0,0-.137-.371,1.488,1.488,0,0,1-.137-.14l-.084.007a.454.454,0,0,1-.115-.045.373.373,0,0,0-.137-.046A.094.094,0,0,0,89.676,91.382Zm.273.742a.248.248,0,0,0,.046.109c.03.049.055.074.073.074.033,0,.1-.051.189-.155A1.045,1.045,0,0,1,90.418,92,.733.733,0,0,0,89.949,92.123Zm7.186,3.689c-.016-.009-.024-.035-.024-.076l-.007-.721q0-.294.028-.868.028-.6.028-.9a1.655,1.655,0,0,0-.028-.259,1.659,1.659,0,0,1-.028-.252,2.437,2.437,0,0,1,.021-.3c.014-.107.023-.177.028-.21a2.829,2.829,0,0,0,.049-.49.862.862,0,0,0-.021-.189c-.014-.113-.022-.173-.022-.183q0-.189,1.729-.189h.385a2.033,2.033,0,0,1,.539.161,3.092,3.092,0,0,1,.56.311,1.015,1.015,0,0,1,.322.319.878.878,0,0,1,.256.35,3.146,3.146,0,0,1,.2.563,2.118,2.118,0,0,1,.076.494,2.672,2.672,0,0,1-.094.727,2.727,2.727,0,0,1-.3.679.356.356,0,0,0-.042.084.386.386,0,0,1-.049.094.09.09,0,0,1-.077.039l.035.042-.084.049.049.028a.862.862,0,0,1-.406.276,3.151,3.151,0,0,1-.539.165q-.252.028-1.6.133l-.609.042a.45.45,0,0,0-.161.049.262.262,0,0,1-.133.042A.162.162,0,0,1,97.134,95.812Zm.2-1.82a1.4,1.4,0,0,1-.049.315l.049.042v.3a.048.048,0,0,0-.031.018c-.012.012-.018.02-.018.024a.612.612,0,0,0,.024.094c.012.035.02.061.025.08a.889.889,0,0,1-.025.087.721.721,0,0,0-.024.088l.022.063a.248.248,0,0,0,.028.063,2.087,2.087,0,0,0,.035.3c.135,0,.288,0,.458.007a.969.969,0,0,1,.326.042.4.4,0,0,1,.021-.049l.021-.042a.266.266,0,0,1,.085.022.282.282,0,0,0,.091.021,1.989,1.989,0,0,0,.325-.028l.221-.035a2.8,2.8,0,0,1,.539-.063h.259a.33.33,0,0,1,.154-.08.815.815,0,0,1,.2-.025c0-.009-.012-.021-.035-.034a.426.426,0,0,0-.07-.035.8.8,0,0,0,.483-.126c0-.014-.039-.035-.1-.063a.442.442,0,0,0-.178-.042c-.028,0-.086.037-.172.112a1.119,1.119,0,0,1-.15.12,1.337,1.337,0,0,1-.385.091c-.144.013-.329.023-.553.028l-.2.007c-.075.009-.181.018-.319.028l-.325.021a2.633,2.633,0,0,1-.35-.024c-.122-.016-.189-.05-.2-.1l-.007-.154a.723.723,0,0,1,.018-.175.473.473,0,0,0,.017-.105.3.3,0,0,0-.021-.1.151.151,0,0,0-.056-.077c.023-.009.041-.053.056-.132a1.192,1.192,0,0,0,.021-.168,1.143,1.143,0,0,0-.021-.217,1.73,1.73,0,0,1-.014-.182.3.3,0,0,1,.022-.12.226.226,0,0,0,.021-.084.157.157,0,0,0-.049-.13.256.256,0,0,0-.155-.039C97.34,93.729,97.339,93.881,97.334,93.992Zm.77-2.282c-.182.029-.28.059-.293.092l-.049.084q0,.385-.007.672c0,.191-.009.352-.013.482q-.028.784-.028,1.169v.224a1.882,1.882,0,0,0,.049.658l.084.028c.047,0,.112.01.2.014s.157.007.217.007a5.4,5.4,0,0,0,1.148-.105,1.363,1.363,0,0,0,.777-.469l.014.007c.047,0,.1-.077.147-.231a3.822,3.822,0,0,0,.13-.518,2.6,2.6,0,0,0,.052-.406,1.69,1.69,0,0,0-.063-.356,2.743,2.743,0,0,0-.154-.459c-.06-.138-.116-.216-.167-.234a.6.6,0,0,0-.081-.014.2.2,0,0,1-.084-.028.078.078,0,0,1-.032-.07.163.163,0,0,1,.014-.07c-.065-.037-.15-.089-.256-.158s-.175-.115-.213-.143c-.22-.075-.4-.13-.528-.165a1.658,1.658,0,0,0-.424-.052A3.013,3.013,0,0,0,98.1,91.71Zm2.59,2.164a.378.378,0,0,0,.024.039.3.3,0,0,1,.024.038.31.31,0,0,1-.084.105l.035.035a.086.086,0,0,0-.091.063.552.552,0,0,0-.024.161.674.674,0,0,1-.011.119q0,.014-.046.059a.239.239,0,0,0-.045.052c0,.014,0,.022.007.022l-.3.3a.185.185,0,0,0,.148.049.463.463,0,0,0,.284-.1.3.3,0,0,0,.129-.252.136.136,0,0,0-.013-.07c-.01-.014-.032-.021-.07-.021a.241.241,0,0,0,.252-.252c0-.019-.013-.035-.039-.049a.263.263,0,0,0-.073-.028.539.539,0,0,1-.057-.013.279.279,0,0,0,.081-.046.164.164,0,0,1,.094-.039.1.1,0,0,1,.042.007c.009-.056.018-.111.028-.165a.788.788,0,0,0,.013-.115C100.8,93.776,100.694,93.808,100.694,93.874Zm.1-.417a.472.472,0,0,0-.122.3.358.358,0,0,0,.293-.12.5.5,0,0,0,.1-.328A.347.347,0,0,0,100.8,93.457Zm-3.448-.41c.019.186.028.331.028.434h.161V92.97a.121.121,0,0,0-.056-.1.32.32,0,0,0-.112-.057h.23c0-.028-.013-.075-.024-.139s-.024-.1-.039-.1h-.224A3.528,3.528,0,0,0,97.348,93.047Zm2.933-.889c.1.1.154.159.154.182h.091a.3.3,0,0,1-.041.06l-.042.045a.525.525,0,0,1,.063.1.6.6,0,0,1,.035.077.558.558,0,0,0,.154.217c-.06,0-.091.025-.091.076a.112.112,0,0,0,.024.085.2.2,0,0,0,.091.032c.044.006.067.04.067.1,0,.005-.016.015-.049.032s-.049.027-.049.031,0,.007.007.007q0,.119.105.119c.112,0,.167-.025.167-.076,0-.01-.047-.038-.139-.085h.224V93.1l-.175-.091c.01,0,.019-.008.028-.024a.079.079,0,0,0,.014-.039c0-.018-.013-.032-.039-.038a.355.355,0,0,1-.052-.018.232.232,0,0,0,.073-.063.143.143,0,0,0,.018-.076c0-.057-.031-.085-.091-.085a.187.187,0,0,0-.126.042.41.41,0,0,0,.084-.126.577.577,0,0,0-.13-.357,2.9,2.9,0,0,0-.262-.3l-.175-.172h-.035l-.3-.084q0-.063-.14-.094a1.011,1.011,0,0,0-.21-.032l-.1.041a.2.2,0,0,0-.077.049.6.6,0,0,0,.315.076q0,.14.189.14c.061,0,.094-.016.1-.049v.132h.224l-.091.085h0C100.121,92.018,100.184,92.065,100.281,92.158ZM97.334,92.1a.3.3,0,0,0,.017.084.34.34,0,0,1,.018.1.463.463,0,0,1-.063.2h.286a.418.418,0,0,0-.041-.154.385.385,0,0,1-.049-.168.4.4,0,0,1,.022-.112.445.445,0,0,0,.021-.12v-.049a.205.205,0,0,0-.035-.133C97.392,91.8,97.334,91.916,97.334,92.1Zm.108-.588a.274.274,0,0,0-.08.217,1.3,1.3,0,0,0,.392-.109,1.579,1.579,0,0,0,.357-.171h-.245l-.189,0h-.016A.326.326,0,0,0,97.442,91.515Zm1.66-.081a.2.2,0,0,0-.088.067.2.2,0,0,0,.1.056.513.513,0,0,0,.144.022.81.81,0,0,0,.076-.028.176.176,0,0,0,.07-.049.069.069,0,0,0-.035-.042.19.19,0,0,0-.056-.006.171.171,0,0,0-.126.049v-.1A.283.283,0,0,0,99.1,91.434Zm-.606-.024c.013.028.053.05.119.067a.672.672,0,0,0,.14.024,1.253,1.253,0,0,0,.3-.126h-.042Zm-21.479,4.4c-.017-.009-.025-.035-.025-.076l-.006-.721q0-.294.028-.868c.018-.4.028-.7.028-.9a1.774,1.774,0,0,0-.028-.259,1.66,1.66,0,0,1-.028-.252,2.275,2.275,0,0,1,.021-.3c.014-.107.023-.177.028-.21a2.92,2.92,0,0,0,.049-.49.811.811,0,0,0-.022-.189c-.013-.113-.021-.173-.021-.183q0-.189,1.729-.189h.385a2.043,2.043,0,0,1,.539.161,3.123,3.123,0,0,1,.56.311,1.015,1.015,0,0,1,.322.319.878.878,0,0,1,.256.35,3.145,3.145,0,0,1,.2.563,2.127,2.127,0,0,1,.077.494,2.672,2.672,0,0,1-.094.727,2.7,2.7,0,0,1-.305.679.36.36,0,0,0-.041.084.386.386,0,0,1-.049.094.088.088,0,0,1-.076.039l.035.042-.085.049.049.028a.867.867,0,0,1-.406.276,3.175,3.175,0,0,1-.539.165q-.252.028-1.6.133l-.608.042a.45.45,0,0,0-.161.049.262.262,0,0,1-.133.042A.162.162,0,0,1,77.017,95.812Zm.2-1.82a1.349,1.349,0,0,1-.049.315l.049.042v.3a.05.05,0,0,0-.032.018c-.012.012-.017.02-.017.024a.612.612,0,0,0,.024.094c.012.035.02.061.024.08a.671.671,0,0,1-.024.087.721.721,0,0,0-.024.088l.021.063a.335.335,0,0,0,.028.063,2.087,2.087,0,0,0,.035.3c.136,0,.288,0,.459.007a.962.962,0,0,1,.325.042.308.308,0,0,1,.022-.049l.021-.042a.257.257,0,0,1,.084.022.287.287,0,0,0,.091.021,2,2,0,0,0,.326-.028l.22-.035a2.789,2.789,0,0,1,.539-.063H79.6a.322.322,0,0,1,.154-.08.809.809,0,0,1,.2-.025c0-.009-.012-.021-.035-.034a.426.426,0,0,0-.07-.035.8.8,0,0,0,.483-.126c-.005-.014-.039-.035-.1-.063a.442.442,0,0,0-.178-.042c-.029,0-.086.037-.172.112a1.187,1.187,0,0,1-.15.12,1.344,1.344,0,0,1-.385.091c-.145.013-.329.023-.553.028l-.2.007c-.075.009-.181.018-.319.028l-.326.021a2.654,2.654,0,0,1-.35-.024c-.121-.016-.189-.05-.2-.1l-.007-.154a.728.728,0,0,1,.017-.175.487.487,0,0,0,.018-.105.3.3,0,0,0-.021-.1.152.152,0,0,0-.057-.077q.035-.014.057-.132a1.191,1.191,0,0,0,.021-.168,1.143,1.143,0,0,0-.021-.217,1.73,1.73,0,0,1-.014-.182.317.317,0,0,1,.021-.12.213.213,0,0,0,.022-.084.157.157,0,0,0-.049-.13.251.251,0,0,0-.154-.039C77.223,93.729,77.22,93.881,77.215,93.992Zm.77-2.282c-.182.029-.28.059-.294.092l-.049.084q0,.385-.007.672c0,.191-.009.352-.014.482q-.027.784-.028,1.169v.224a1.841,1.841,0,0,0,.05.658l.084.028c.047,0,.113.01.2.014s.157.007.217.007a5.4,5.4,0,0,0,1.148-.105,1.363,1.363,0,0,0,.777-.469l.013.007c.047,0,.1-.077.148-.231a3.821,3.821,0,0,0,.13-.518,2.6,2.6,0,0,0,.052-.406,1.69,1.69,0,0,0-.063-.356,2.916,2.916,0,0,0-.154-.459c-.061-.138-.117-.216-.168-.234a.576.576,0,0,0-.08-.014.208.208,0,0,1-.085-.028.08.08,0,0,1-.032-.07.162.162,0,0,1,.014-.07c-.066-.037-.15-.089-.256-.158s-.176-.115-.213-.143q-.329-.112-.528-.165a1.658,1.658,0,0,0-.424-.052A3.012,3.012,0,0,0,77.986,91.71Zm2.59,2.164a.377.377,0,0,0,.024.039.3.3,0,0,1,.024.038.193.193,0,0,1-.039.059.19.19,0,0,1-.045.046l.035.035a.086.086,0,0,0-.091.063.581.581,0,0,0-.025.161.622.622,0,0,1-.01.119q0,.014-.046.059a.211.211,0,0,0-.045.052c0,.014,0,.022.006.022l-.3.3a.182.182,0,0,0,.147.049.463.463,0,0,0,.284-.1.3.3,0,0,0,.13-.252.135.135,0,0,0-.014-.07c-.01-.014-.033-.021-.07-.021a.241.241,0,0,0,.252-.252c0-.019-.013-.035-.039-.049a.279.279,0,0,0-.074-.028.515.515,0,0,1-.056-.013.279.279,0,0,0,.081-.046.16.16,0,0,1,.094-.039.1.1,0,0,1,.041.007c.01-.056.019-.111.028-.165a.7.7,0,0,0,.014-.115C80.679,93.776,80.576,93.808,80.576,93.874Zm.1-.417a.477.477,0,0,0-.122.3.361.361,0,0,0,.294-.12.5.5,0,0,0,.1-.328A.35.35,0,0,0,80.677,93.457Zm-3.447-.41c.019.186.028.331.028.434h.161V92.97a.121.121,0,0,0-.056-.1.316.316,0,0,0-.112-.057h.231c0-.028-.013-.075-.024-.139s-.025-.1-.039-.1h-.224A3.528,3.528,0,0,0,77.23,93.047Zm2.933-.889c.1.1.154.159.154.182h.091a.275.275,0,0,1-.042.06c-.018.021-.032.036-.041.045a.525.525,0,0,1,.063.1c.018.037.03.063.035.077a.54.54,0,0,0,.154.217c-.061,0-.091.025-.091.076a.112.112,0,0,0,.024.085.2.2,0,0,0,.091.032c.044.006.067.04.067.1,0,.005-.016.015-.049.032s-.049.027-.049.031,0,.007.007.007c0,.079.035.119.1.119.112,0,.168-.025.168-.076,0-.01-.047-.038-.14-.085h.224V93.1l-.175-.091c.009,0,.019-.008.028-.024a.09.09,0,0,0,.014-.039c0-.018-.013-.032-.039-.038a.378.378,0,0,1-.053-.018.228.228,0,0,0,.074-.063.144.144,0,0,0,.018-.076c0-.057-.031-.085-.092-.085a.189.189,0,0,0-.126.042.425.425,0,0,0,.085-.126.577.577,0,0,0-.13-.357,2.8,2.8,0,0,0-.263-.3l-.175-.172h-.035l-.3-.084c0-.042-.046-.074-.14-.094a1.02,1.02,0,0,0-.21-.032l-.1.041a.19.19,0,0,0-.077.049.594.594,0,0,0,.315.076q0,.14.189.14c.06,0,.094-.016.1-.049v.132h.224l-.091.085h0C80,92.018,80.066,92.065,80.163,92.158ZM77.215,92.1a.311.311,0,0,0,.018.084.336.336,0,0,1,.017.1.451.451,0,0,1-.063.2h.287a.406.406,0,0,0-.042-.154.4.4,0,0,1-.049-.168.424.424,0,0,1,.021-.112.417.417,0,0,0,.022-.12v-.049a.205.205,0,0,0-.035-.133C77.274,91.8,77.215,91.916,77.215,92.1Zm.109-.588a.271.271,0,0,0-.081.217,1.3,1.3,0,0,0,.392-.109,1.6,1.6,0,0,0,.357-.171h-.246l-.189,0h-.016A.322.322,0,0,0,77.324,91.515Zm1.659-.081a.206.206,0,0,0-.087.067.192.192,0,0,0,.1.056.5.5,0,0,0,.143.022.809.809,0,0,0,.077-.028.176.176,0,0,0,.07-.049.072.072,0,0,0-.035-.042.2.2,0,0,0-.057-.006.172.172,0,0,0-.126.049v-.1A.292.292,0,0,0,78.983,91.434Zm-.606-.024c.014.028.054.05.12.067a.667.667,0,0,0,.14.024,1.252,1.252,0,0,0,.3-.126H78.9Zm-7.5,4.379a.193.193,0,0,0-.077-.024.268.268,0,0,1-.08.028.5.5,0,0,1-.109.013.227.227,0,0,1-.1-.056q-.073-.055-.073-.07l.021-3.584v-.259c0-.041-.068-.069-.2-.084s-.273-.021-.412-.021l-.344.007c-.27,0-.406-.026-.406-.077a.358.358,0,0,1,.063-.189.948.948,0,0,0,.053-.109.338.338,0,0,0,.024-.129c0-.005.019-.023.042-.057s.121-.049.293-.049v.063c.275,0,.516,0,.721.007l.518.014q.84.028,1.253.028c.182,0,.32,0,.413-.006.056.018.084.084.084.2v.07a.4.4,0,0,1-.041.2l-.567.049a2.583,2.583,0,0,0-.385.063,2.167,2.167,0,0,1-.392.063,2.277,2.277,0,0,0-.049.546q0,.315.028.945t.028.945q0,.167-.021.734c-.014.155-.022.322-.022.5,0,.014,0,.049-.006.1a.153.153,0,0,1-.175.158A.186.186,0,0,1,70.874,95.788Zm-.14-.2a.231.231,0,0,0,.094-.045.094.094,0,0,0,.039-.074l-.007-.049A.511.511,0,0,0,70.734,95.588Zm-.084-.56-.042.441a.1.1,0,0,0,.07.035c.028,0,.076-.062.147-.185a.7.7,0,0,0,.105-.248h-.07v-.119Zm.041-.4a.207.207,0,0,0-.126.171c0,.019.015.043.046.074s.05.046.059.046a.252.252,0,0,1,.119-.2l.059-.059a.222.222,0,0,0,.06-.109h-.022A.434.434,0,0,0,70.691,94.626Zm.133.13a.162.162,0,0,0-.056.112.179.179,0,0,0,.13-.039.25.25,0,0,0,.052-.143l-.021-.007A.363.363,0,0,0,70.825,94.756Zm-.133-.2.259-.126.007-.056V94.35c0-.057-.016-.089-.049-.1Zm-.041-.126c.013,0,.025-.009.035-.028a.131.131,0,0,0,.013-.035l-.007-.028A.092.092,0,0,0,70.65,94.426Zm0-.265v.091a.546.546,0,0,0,.21-.113.254.254,0,0,0,.063-.189c0-.018,0-.041,0-.069a.262.262,0,0,0-.01-.063Zm.049-.41a.179.179,0,0,0-.1.157.187.187,0,0,0,.007.056c0,.014.019.023.042.028.047-.042.1-.09.147-.143a.592.592,0,0,0,.113-.158A.4.4,0,0,0,70.7,93.751Zm.046-.27a.352.352,0,0,0-.053.175.378.378,0,0,0,.155-.031.107.107,0,0,0,.069-.1.309.309,0,0,0-.056-.175A.4.4,0,0,0,70.744,93.481Zm-.087-.269a.152.152,0,0,0-.057.136v.022c0,.065.016.1.049.1a1.02,1.02,0,0,0,.21-.258.034.034,0,0,0-.011-.025l-.017-.017A.308.308,0,0,0,70.657,93.212Zm.076-.165h.1v-.175Zm-.063-.231A.628.628,0,0,0,70.65,93a.3.3,0,0,0,.133-.211l-.007-.041A.108.108,0,0,0,70.671,92.816Zm.126-.332a1.509,1.509,0,0,0-.063.165l.042.013c.06,0,.091-.056.091-.167l-.007-.148C70.846,92.375,70.825,92.421,70.8,92.484Zm.063-.437a.305.305,0,0,1-.045.095.2.2,0,0,0-.039.08.211.211,0,0,0,.147-.143.738.738,0,0,0,.028-.2v-.126Zm-.045-.613a.209.209,0,0,0-.123.213.567.567,0,0,0,.022.172.386.386,0,0,1,.021.1.292.292,0,0,1-.032.087,1.083,1.083,0,0,0-.052.13c.037,0,.083-.032.136-.1a.3.3,0,0,0,.081-.189c0-.009-.011-.021-.032-.035a.113.113,0,0,0-.059-.021.486.486,0,0,1,.041-.245.355.355,0,0,0,.042-.07v.154a.288.288,0,0,0,.175-.084.233.233,0,0,0,.1-.168A.81.81,0,0,0,70.815,91.434Zm.528-.032v.133h.3s.013-.008.024-.024a.2.2,0,0,0,.025-.046q0-.07-.175-.07Zm-.133.133h.042v-.084H71.21ZM70.5,91.4a.107.107,0,0,0-.069.077c.009.037.04.056.091.056a.257.257,0,0,0,.13-.024.281.281,0,0,0,.08-.109l-.112-.013A.462.462,0,0,0,70.5,91.4Zm-1.064.113a2.238,2.238,0,0,0,.27-.014.22.22,0,0,0,.164-.1,1.788,1.788,0,0,1-.21-.041,1.128,1.128,0,0,0-.224-.049Zm.6-.116a.666.666,0,0,0-.165.081l.259.007c.149,0,.224-.022.224-.063s-.047-.063-.14-.063A.574.574,0,0,0,70.037,91.4Zm1.912.022a.885.885,0,0,0-.172.032l.035.028h.5a.059.059,0,0,0-.046-.063.574.574,0,0,0-.158-.014C72.095,91.4,72.04,91.409,71.949,91.42Zm31.615,4.154V95.54l.021-.007c.01,0,.028.014.056.042ZM70.776,95.2l.056-.035V95.2Zm-6.485-.15a.188.188,0,0,1,.073-.011l.042.007a.25.25,0,0,0-.084.021.268.268,0,0,1-.091.021A.235.235,0,0,1,64.291,95.046Zm36.1-.354c0-.01.028-.014.084-.014s.091,0,.091.014a.125.125,0,0,1-.084.021C100.423,94.713,100.393,94.706,100.393,94.693Zm-20.119,0c0-.01.028-.014.085-.014s.091,0,.091.014a.127.127,0,0,1-.085.021C80.305,94.713,80.275,94.706,80.275,94.693ZM66.218,92.851h.014a.154.154,0,0,1,.049.007l-.028.007A.048.048,0,0,1,66.218,92.851ZM100.7,92.7l-.007.007Zm-20.119,0-.006.007Zm6.405-.819,0,0Zm.021-.014c-.009.01-.016.014-.021.014S87,91.871,87.008,91.871ZM44.069,64.764,51.86,58.19V57.4q1.86-.63,1.005,2.1L42.309,67.393Zm32.656-4.058.228-2.969.229,2.969ZM66.9,55.454l2.74-1.827-.457.913-3.654,2.741Zm-11.022.632.5-2.892,2.765-2.1-.251.789q.05,2.946-1.759,3.945l-1.508,1.051Zm20.157.282q-1.187.365-.685-1.142-.914.776-1.827-.914l-3.2-5.025v-3.2l2.513-2.055,1.371.456h.913l1.6,1.142q-.32,1.05.685.685l3.654-1.827q.684,1.6,1.371.457l1.6,1.6-.229.685q1.188-.365.686,1.142l-.457,1.142q-1.234-.5-.914.685v.913L80.834,53.4q.366,1.05-.685.685l-1.6,1.142q.366,1.188-1.142.685-.4.933-.8.932C76.419,56.842,76.229,56.684,76.038,56.367ZM73.07,50.885l-.457-.913Q71.7,51.341,73.07,50.885Zm10.277,2.741,2.512,2.056-.685.228ZM62.415,50.3l-.5-1.578,3.267-3.418.754.263,2.011-2.63-8.545-2.1,1.759-.788,7.54,2.1,3.518-3.155q.6,1.21,1.257-.263l-.252-.788L91.57,21.375q.4-1.157-.754-.788l-4.272-3.418-2.514-5.26V7.176A11.918,11.918,0,0,1,88.3,1.128L90.313.076q1.307-.367.754,1.052L86.543,4.02q-2.362,2.525-1.508,8.414a11.924,11.924,0,0,0,4.273,6.049l3.518,1.577,5.026-4.207h1.508q1.257.525.754,2.892L96.847,22.69,98.607,24q1.458,1.894,1.005,5.785l-4.272,7.1a26.057,26.057,0,0,1-9.049,5.259L81.768,43.2H76.741l-.5.526-.5-.526H71.715l-4.762,4.185,1.549.074-1.727.082-1.344,1.181-.251.788-.753-.263q.4,1.21-.754.789l-2.011,1.578Zm5.53-5.522,1.005.526-.5-1.579Zm2.011-2.1,1.005,1.051q.377-1.183-.377-1.183A1.971,1.971,0,0,0,69.955,42.675Zm5.53-2.63-2.011,2.63H78l5.745-1.061,1.432-1.692.685.229-1.595,1.367,2.279-.421,7.539-4.208a16.035,16.035,0,0,0,4.524-6.837q1.006-6.311-2.513-7.363L77,38.767l.177,2.3h-.456l.169-2.206Zm-4.022,1.578,1.006.526-.5-1.578Zm19.1-16.829h1.507l2.514-2.1-1.508-1.051ZM97.6,17.957l-3.519,3.155,1.508.527,3.016-2.63q.377-1.184-.377-1.183A2,2,0,0,0,97.6,17.957ZM85.4,47.46l1.142-.685H90.2l.229.914ZM67.361,40.38v-.457l2.512,1.142-.686.229Zm-19.02-1.65.754-.788L59.9,39.783l-1.76.788Z" transform="translate(9.05 6)"/></g></svg>