<svg version="1" xmlns="http://www.w3.org/2000/svg" width="1312" height="1312" viewBox="0 0 984.000000 984.000000"><path d="M793 70.3c-15.8 7.1-28.2 17.7-37.5 32.2-5.1 7.8-11 19.5-9.8 19.5.3 0 0 .7-.7 1.5-.6.8-.9 1.9-.6 2.4.4.5.2 1.2-.3 1.6-.6.3-.7 1.3-.4 2.3.7 1.7.7 3.8.1 12-.2 2.4 0 4.6.4 4.8.5.3.3 1.4-.2 2.5-.6 1-.7 1.9-.3 1.9.4 0 .8 1.1.8 2.5s-.4 2.5-.8 2.5-.3.9.3 2c.8 1.4.8 2 0 2s-.8.6 0 2c.8 1.5.8 2-.2 2-.9 0-.9.3-.2.8 1.2.8 7.4 13.4 7.1 14.3-.1.4.6 1.5 1.5 2.5.9 1.1 1.8 2.3 1.9 2.9.1.5 2.4 5.6 5.1 11.2 4.5 9.5 5.4 10.7 12.1 16 3.9 3.2 7.4 6 7.7 6.3.3.3 2.5 2.1 5 4s5 3.9 5.6 4.5c3.9 3.7 8.1 6.1 11.3 6.5 3 .4 3.7 1 3.9 3 .2 1.5-.6 3.6-1.8 4.9-1.1 1.3-2 2.2-2 1.9 0-.2-2.4 1.8-5.4 4.6-9.9 9.3-14.7 13.6-15.1 13.6-.2 0-2.4 2-4.8 4.5-2.5 2.5-4.7 4.5-5 4.5-.3 0-2.5 2-4.9 4.5-2.4 2.4-4.6 4.5-5 4.5-.3 0-3.3 2.6-6.6 5.7-3.3 3.2-7.8 7.4-10.1 9.4s-8 7.2-12.8 11.5c-4.8 4.4-9.7 8.8-10.9 9.9-1.2 1.1-5 4.5-8.4 7.5-3.4 3-7.4 6.6-8.9 8-1.6 1.4-6.3 5.6-10.6 9.5-4.2 3.8-9.2 8.3-11 10-1.8 1.6-6 5.5-9.4 8.5-15.8 14.2-14.6 12.6-13.3 16.6 1 3.2.8 3.8-1.6 6.5-3 3.3-5.6 3.2-6.5-.3-.5-1.8-.9-1.7-4.8 1.8-2.3 2.2-5.4 4.9-6.8 6.1-1.4 1.3-3.7 3.4-5.1 4.8-1.8 1.7-3.2 2.3-4.7 1.9-1.3-.4-2.3-1-2.3-1.5s-.8-.9-1.7-.9c-1 0-4.5-1.4-7.8-3-3.3-1.7-6.1-3-6.2-3-.2 0-.3 1.1-.3 2.5s.3 2.4.8 2.3c.7-.2 10.3 4.2 11.2 5.1 1 1.1 3.1 1.1 5 .1 3.4-1.8 2.1.3-2.5 4.2-3 2.5-5.1 3.5-6.5 3.1-1.1-.3-2-.8-2-1.2 0-.4-.8-.7-1.7-.7-2.2-.1-5.7-.9-10.3-2.4-1.9-.6-4.4-1.3-5.5-1.6-1.1-.2-6.9-1.8-13-3.4-6-1.7-11.7-3.3-12.5-3.4-.8-.2-4.1-1.1-7.2-2l-5.6-1.7-6.9 3.2-6.8 3.1 5 1.4c2.8.7 6.1 1.6 7.5 1.8 1.4.2 2.5.5 2.5.6 0 .3 9.1 2.5 15 3.6 1.7.3 3.5 1 4.1 1.5.6.5 1.3.6 1.6.4.3-.3 1.7-.1 3.2.5 1.5.5 4.1 1.2 5.9 1.5 1.8.3 5 1.1 7.2 1.7 4.7 1.3 5.2 1.5 8.8 2.1 5.8 1.2 6.7 1.7 5.8 3.5-.5.9-2.1 2.9-3.5 4.4-1.4 1.6-2.3 2.8-2 2.8.3 0-.1.7-1 1.5-.8.9-3 3.6-4.7 6-3.3 4.5-3.4 4.6-8.4 2.9-.9-.3-8.5 5.8-8.5 6.9 0 .2-4.3 4.9-9.5 10.3-6.5 6.7-9.3 10.3-8.9 11.4.3.8 1.2 3.6 2 6.2 1.4 4.4 1.3 4.9-1.1 9.4-1.4 2.6-2.4 4.9-2.2 5 .2.2 1.5-.8 3-2.1 1.4-1.4 3-2.5 3.5-2.5.6 0 1.2-.7 1.6-1.5.3-.8 1-1.5 1.6-1.5.5 0 1.9-.9 2.9-1.9 1.4-1.4 3-1.8 5.5-1.6 3.5.3 3.6.3 3.6-3.1 0-3.5 1.6-4.4 3.8-2.2.9.9 1.5.2 2.8-2.8 1.6-3.7 5-7.2 6.7-6.6.5.1.6-.1.3-.6-.8-1.3 4.1-5.2 6.4-5.2 1.1 0 2-.5 2-1.1 0-.5-.6-.7-1.2-.3-.7.3.9-1.3 3.6-3.7 2.6-2.4 7.1-6.5 10-9.1 2.8-2.6 5.7-4.8 6.4-4.8.7 0 1.1-.4.8-.8-.3-.5.4-1.5 1.6-2.3 1.1-.8 3.4-2.6 5-4.1 1.7-1.6 3.5-2.5 4-2.2 1.8 1.1-.5-2.2-4.4-6.5-2.1-2.2-3.8-4.1-3.8-4.3 0-.2 1.4-.4 3.2-.5 3.9-.1 5.6 1.9 5.2 5.9-.4 2.8.9 3.8 2.1 1.7.4-.6 1.3-.8 2.1-.5.8.3 1.1 0 .8-.9-.5-1.1 2.3-1.3 15.6-1.2 14 .1 16.4.3 18.2 1.9 2.6 2.2 2.7 2.2 5.1 0 1.7-1.5 4.4-1.7 22.1-1.8 12.9-.1 21.7-.6 24.6-1.4 2.5-.7 5.6-1.4 7-1.5 1.4-.2 2.5-.4 2.5-.5 0-.1.9-.3 2-.5 1.7-.4 19.8-5 23-5.9.6-.1 2.7-1 4.8-1.9 2.1-.9 4.5-1.8 5.5-1.9.9-.2 1.9-.5 2.2-.8.3-.3 5.7-3.1 12-6.3 10.6-5.3 22.9-12.7 30.5-18.4 2.7-2 5.5-4.3 12.1-10 1.7-1.5 16.4-24.8 23.5-37.4.9-1.6 2.1-3.5 2.8-4.2.6-.8.8-1.7.4-2-.3-.4-.1-.7.5-.7.7 0 1.8-1.5 2.6-3.4s2.3-4.3 3.3-5.3c1.8-2 2-2.4 3.2-7.8 1.1-4.6.5-21.6-.9-27.6-1.6-6.6-4.4-12.3-8.1-16.7-1.6-1.8-2.9-3-2.9-2.7 0 .4-2.1-1.1-4.7-3.1-2.7-2.1-5-4-5.3-4.2-.3-.2.5-1.2 1.8-2.2 1.2-1 2.2-2.1 2.2-2.5 0-.3 2.6-3.7 5.8-7.4 3.1-3.7 7.1-8.5 8.9-10.7 1.7-2.1 4.2-5.2 5.5-6.7 2.1-2.4 2.4-3.7 2.3-10.5-.2-11.5-2.7-14.4-12.5-14.7-5.1-.1-8.2 1.1-12.6 5.2-1.7 1.5-6.6 5.7-11 9.3-4.3 3.5-8.1 6.7-8.4 7-.3.3-2.7 2.3-5.5 4.5-2.7 2.1-5.2 4.2-5.5 4.5-2.8 3-3.8 3-9.6.3-3.2-1.5-6.1-2.7-6.4-2.8-1-.3-5.6-2.3-11-4.8-8.2-3.8-17.5-12.3-24.7-22.6-1.8-2.5-3.6-5.1-4-5.6-1.5-1.9-7.3-14-8.8-18.5-2.1-6.1-2.9-13.3-2.8-27 .1-18.8 4-32.8 11.7-41.7 1.5-1.8 18.4-13.2 26.3-17.8 9.2-5.4 12.1-8 12.8-11.6.9-4.4-3-6.1-8.5-3.6zm68.1 143.1c.5 5.4-1.3 10.2-3.4 8.9-.5-.3-.7-.2-.4.4.3.5-.3 1.6-1.4 2.4-2 1.3-6.1 4.8-15.2 13l-4.1 3.6-5.9-2-6-2 4.5-4.1c3.9-3.6 9.2-8.4 20.7-18.5 1.8-1.7 4.3-3.1 5.5-3.3 3-.5 5.6.2 5.7 1.6zm-41.7 31.8c-.3.4.1.5.9.3.7-.3 2.2.3 3.2 1.5 1 1.1 2.4 2 3.2 2 .7 0 1.3.4 1.3.8 0 .9-4.6 5.2-5.6 5.2-.2 0-1.5 1-2.8 2.2-3.8 3.8-7.6 6.8-7.6 6.2 0-.3-.8.4-1.8 1.5-1.5 1.9-2.6 2.2-7.6 1.9l-5.8-.3 2.6-2.8c1.4-1.5 2.6-3.1 2.6-3.5 0-.4 1.5-2.4 3.4-4.4 1.8-2 5-5.9 7.1-8.6 3.2-4.3 4-4.9 5.6-3.9 1 .6 1.6 1.5 1.3 1.9zm27.3 8c10.4 6 15.4 17.5 15.4 34.8 0 12.2-1.2 22.2-3.1 26-.5.8-2.5 5.1-4.6 9.5-3.8 8.1-4.4 9.1-10.5 18-4.1 6.1-4.9 7.1-11.8 14.6-5.4 5.9-9.9 9-23.6 16.4-3.8 2.1-7.2 4.1-7.5 4.4-.3.3-2.3 1.5-4.5 2.6s-10.3 5.5-17.9 9.8c-12.6 7-16.6 8.6-25.8 10.1-1.5.3-3.2.7-3.8 1.1-.5.3-1 .2-1-.3 0-.9 7.1-7.6 9.7-9 1.2-.7.9-1.1-1.7-2-3.3-1.2-5-.9-5 .9 0 .5-.8 1.7-1.7 2.8-1 1-3.2 3.5-5 5.5-1.8 2-4 3.7-5 3.7-3.9.3-11.6 1.6-13.4 2.3-.8.4-3.5.8-6 1.1-2.4.2-4.4.4-4.4.5 0 .3-4.2 1.1-7.2 1.3-1.8.1-3.3.5-3.3.9 0 .9.5.8-23.7 1.2-11.2.2-20.3.1-20.3-.3 0-.6 5.8-8.3 8.3-11.1.8-.8 2.3-2.8 3.3-4.5 2-3.1 5.4-6.9 5.4-5.9 0 .3 1-.5 2.3-1.8 1.2-1.3 3.2-3.1 4.4-4.2l2.2-1.8-.3 3.9c-.1 2.2-.6 4.4-.9 5.1-.4.6-.3 1.4.3 1.7.7.4.7 1.1.2 1.8-1.6 2.1-.9 4.5 1.4 5 1.3.2 2.1 0 1.8-.7-.2-.6-.5-4.9-.8-9.5-.3-7.9-.2-8.5 2.2-10.5 1.4-1.1 3.2-2.9 4.1-3.8 1-1.2 1.9-1.4 2.7-.7.8.7 1.1.5 1-.5 0-.7 5.3-6 11.9-11.6 6.6-5.6 13.5-11.5 15.2-13.1 1.8-1.6 3.5-2.9 3.7-2.9.3 0 1.6-1 2.9-2.3 1.3-1.2 4.1-3.6 6.1-5.2 2.1-1.7 5-4.1 6.6-5.5 1.5-1.4 4.6-4.1 7-6 2.3-1.9 4.8-4.1 5.5-4.8.8-.6 1.6-1.2 1.9-1.2.3 0 1.8-1.2 3.4-2.8 7-6.5 11.3-10.2 12.2-10.2.6 0 1-.4 1-.8s2.1-2.4 4.8-4.5c2.6-2 6.4-5.2 8.5-7.1 2-1.9 3.7-3.2 3.7-2.8 0 .3.7-.4 1.6-1.6.8-1.2 2.2-2.2 3-2.2.8 0 1.4-.4 1.4-.8 0-.5 2.7-3 6-5.8 3.4-2.7 7.3-6 8.9-7.4 7.3-6.7 9.3-8 10.4-7.4.7.4.9.4.5-.1-.8-.8.3-1.9 8.2-8.5 2.3-1.9 4.7-4 5.3-4.7 1.8-1.8 4.1-1.6 8.4.9zM650.6 402.7c.3 1.3 0 2.3-.6 2.3-.5 0-1-.5-1-1 0-.6-.9-1-1.9-1-2.9 0-3.1-1-1.3-5.5l1.6-3.9 1.4 3.4c.8 1.9 1.6 4.5 1.8 5.7zm-29.2 21.5c.8 2.9 1.3 5.4 1.1 5.6-.8.8-6.3-2.9-6.1-4 .3-1.5 2.8-6.8 3.2-6.8.1 0 .9 2.3 1.8 5.2z"/><path d="M823 249.9c0 .6.4 1.3 1 1.6.6.3.7-.1.4-.9-.7-1.8-1.4-2.1-1.4-.7zM739.6 348.2c.3.5 1 .6 1.5.3 1.3-.9 1.1-1.2-.6-1.2-.8 0-1.2.4-.9.9zM727.3 356.5c0 .8.4 1.2.9.9.5-.3.6-1 .3-1.5-.9-1.3-1.2-1.1-1.2.6zM735.4 365.1c-.3.6-.2 1.5.3 2s.9.1.9-1.1c0-2.3-.2-2.4-1.2-.9zM406.3 370.2c-1.4 1.8-2.9 2.3-6.8 2.4-5 .2-21.4 1-35.5 1.9-4.1.3-11.2.7-15.7.9-4.6.3-8.7.7-9.2 1-.5.4-1.2.2-1.6-.4-.4-.6-1.1-.8-1.6-.4-.5.3-2.2.8-3.7 1-1.5.3-8.5 2.4-15.7 4.6-7.1 2.3-13.7 4.2-14.5 4.3-.8.1-2.8.8-4.5 1.4-1.6.7-3.9 1.5-5 1.7-3.3.8-3.6.9-16 4.8-11.7 3.7-15.1 5.2-22.7 9.8-4.4 2.8-24.6 14.9-27 16.3-1 .5-10.4 6.2-21 12.5-10.5 6.3-19.8 11.6-20.5 11.8-.7.2-1.3.8-1.3 1.3s-.5.9-1.1.9c-1 0-9.6 6.3-16.4 12-4.9 4.1-24.7 24.2-28.5 28.9-1.9 2.4-4 4.9-4.5 5.5-4.2 4.5-22.1 31.6-21.7 32.8.1.5-.3.8-.9.8-.5 0-.8.4-.4.9.3.5.1 1.2-.5 1.6-.5.3-2.4 3.6-4.2 7.3-1.8 3.7-3.7 7-4.1 7.3-.5.3-.8.9-.8 1.3.1.3-.6 2.3-1.5 4.4-.8 2-2.7 6.6-4.2 10.2-1.4 3.6-3 6.8-3.5 7.1-.5.3-.8 1-.7 1.5.3 1.8-2.3 9.4-3.2 9.4-.5 0-.7.4-.4.8.8 1.3-2.9 12.3-3.9 11.5-.4-.5-.6-.3-.2.2.9 1.7-1.3 10.6-2.5 9.9-.6-.4-.8-.2-.4.4.3.6.2 3-.4 5.4-2.4 9.6-3.2 13.9-3.5 16.8-.1 1.4-1 5.9-1.9 10-.9 4.1-1.8 9.5-2.1 12-.2 2.5-.5 4.7-.5 5-.4 1.2 0 11.9.6 16 .3 2.5.6 5.7.7 7.2.1 1.4.5 2.4.9 2.2.4-.3.7.4.8 1.3.2 6.8.5 9.3 1 9.3.3 0 .7 1 .8 2.2.1 1.3.4 3.9.5 5.9.2 2 .7 4.1 1.1 4.8.4.6 1 2.4 1.2 3.9.3 1.5 1.9 5.6 3.7 9.2 1.7 3.6 3.2 6.7 3.2 7 .1.3 2.1 4.5 4.5 9.5 2.4 4.9 4.3 9.2 4.1 9.4-.1.2.2.7.9 1.1.6.4 1.2 1.3 1.4 2.1.1.8 2.4 5.9 5.1 11.4 2.8 5.5 4.9 10.3 4.7 10.7-.1.5.3.8.8.8.6 0 1 .5 1 1 0 2.1 9.7 20.6 12 23.1 1.4 1.4 4.8 5.2 7.5 8.4 4.2 4.9 10.4 11.1 17.4 17.5.9.8 4.1 3.5 7.1 6s5.8 4.9 6.2 5.5c.5.7.8.7.8 0 0-.6.3-.6.8.1.7 1.1 10.8 8.4 11.6 8.4.3 0 2.5 1.3 4.9 3 5.9 3.9 24.6 13.1 32.2 15.8 10.7 3.7 34.9 11.1 38.4 11.7 1.9.3 3.7.7 4 .9.3.2 1.5 0 2.6-.4s3.2-.4 4.8.1c1.6.4 2.7.4 2.7-.2 0-.6.6-.6 1.8 0 1 .5 2.4.6 3.1.1.8-.4 2.7-.4 4.2 0 1.6.5 3.1.5 3.3.2.5-.9 5.9-.8 7.4.2.6.3 1.3.2 1.6-.3.8-1.3 4.8-.1 6.6 1.9 1.7 1.8 5 3.3 5 2.2 0-.4 1.7-.8 3.8-.8 3.5-.1 10.2-.6 29.2-2 4.7-.3 11-.7 14-.8 3-.2 6.2-.6 7-.9.8-.4 4.7-1.5 8.5-2.6 3.9-1.1 9.1-2.7 11.8-3.5 2.6-.8 4.7-1.2 4.7-.8 0 .4.4.2.8-.3.4-.6 2.7-1.7 5.2-2.4s9.7-2.8 16-4.7c6.3-2 13.1-4 15-4.6 10.6-3.2 48.4-21.5 52.8-25.6.7-.6 2-1.2 2.8-1.2.8 0 1.4-.5 1.4-1 0-.6.4-1 1-1 .5 0 4.2-2.1 8.2-4.7 4-2.7 7.8-5 8.3-5.3 1.4-.7 9.9-6.4 10.5-7 .3-.3 4.1-3.2 8.5-6.4 4.4-3.3 8.2-6.3 8.3-6.8.2-.4.8-.8 1.4-.8.5 0 2.6-1.6 4.6-3.5 2-1.9 4-3.5 4.4-3.5.4 0 2.2-1.6 4.1-3.5 1.9-1.9 3.7-3.5 4-3.5.4 0 2.1-1.5 4-3.2 1.9-1.8 8-7.8 13.7-13.3 5.7-5.5 10.7-9.9 11.2-9.7.5.1.7-.1.4-.6-.3-.5.7-2 2.2-3.4 1.5-1.4 6.8-6.9 11.7-12.4 5-5.4 10.5-11.4 12.3-13.2 1.7-1.9 3.2-3.6 3.2-3.9 0-1.1 2.8-3.1 3.5-2.5.5.4.6.2.2-.3-.8-1.4 1.9-4.8 3.2-4 .6.3.9 0 .6-.7-.3-.7 1.1-3.1 3-5.3 5.2-5.9 5.6-6.4 5.5-7.1-.1-.3 1-1.6 2.4-2.9 1.4-1.3 2.6-2.7 2.6-3 0-.6 5.3-7.6 8.3-11 .5-.6.6 0 .2 1.5-.3 1.4-.7 3.5-.8 4.7 0 1.3-.4 2.3-.7 2.3-.6 0-.3 6.4.5 10.4 1.8 8.9 13 19.1 21.8 19.8 1.5.1 2.7.6 2.7 1.1 0 .5.8.6 1.8.2.9-.3 3.3-.8 5.2-1.1 8.1-.9 9.9-1.3 12.4-2.9 1.4-.9 3.1-1.3 3.7-.9.8.5.9.3.4-.6-.6-1-.4-1.2.8-.7 1.1.4 1.7.1 1.7-.9 0-.8.5-1.2 1-.9.6.3 1 .1 1-.4 0-.6.5-1.1 1.1-1.1.6 0 1.7-.7 2.6-1.5.8-.8 2-1.2 2.6-.8.7.3.9.3.5-.2-1-1.1 5-5.8 6.3-4.9.8.4.9.3.5-.4-.3-.6.3-1.6 1.4-2.2 1.9-1 2-.9 1.6 1.4-.3 1.6 0 2.5.7 2.3.7-.1 1.1.4 1 1-.2.7.2 1.3.8 1.3.5 0 .7.4.4 1-.3.5-.1 1 .5 1s.8.5.4 1.2c-.4.6-.3.8.4.4.6-.3 1.7.2 2.4 1.3 1.3 1.9 8.9 6.3 11.8 6.8 3.7.8 10.1.9 10.6.2.2-.4 1.2-.6 2.2-.5.9.2 2.6-.3 3.6-1 1.6-1.1 2.3-1.1 3.5-.1 1.2.9 1.3.9.7-.1-.4-.7-.1-1.2.8-1.2s1.6-.5 1.6-1.1c0-.7 1-.9 2.4-.7 1.6.3 2.3.1 2-.7-.3-.6 1.3-2 3.6-3 2.2-1 4-2.1 4-2.4 0-.3 1-1.2 2.1-2 1.8-1.1 2.3-1.1 3.1.1.6.9.7.6.3-1-.3-1.2-.2-2.2.3-2.2 1.9 0 21.3-18.5 23.3-22.2 1.7-3.2 2.1-1.4.7 2.8-1.6 4.5-1.4 16.1.2 20.4.1.3.2.8.1 1.2 0 .5.4.8.9.8.6 0 1 .6 1 1.4 0 .7 1.5 2.9 3.3 4.9l3.4 3.5-4.1 2.4c-2.2 1.2-4.9 2.6-5.9 3.1-1.1.4-3.3 1.7-5.1 3-1.7 1.2-3.3 2.1-3.6 2-.3-.1-2.6.9-5.2 2.2-2.5 1.3-4.9 2.1-5.2 1.8-.3-.4-.6-.2-.6.4 0 .6-1 1.4-2.2 1.8-2.8.9-2.6.8-6.8 2.7-2 .8-6.5 2.5-10 3.7-3.6 1.2-7.3 2.7-8.4 3.2-1.3.8-1.6.7-1.1-.1.4-.7-.4-.5-1.8.4-2.3 1.6-4.7 2.4-9.2 3-1.1.2-2 .4-2 .5 0 .3-3.6 1.2-5.2 1.3-.6.1-1.3 1.2-1.6 2.5-.5 2.8-.1 2.8 12.8-.1 7.8-1.6 10.6-2.2 14.8-3.1 1.5-.3 3.9-.8 5.5-1.1 1.5-.3 3.6-.6 4.7-.7 1.1-.1 2.2-.4 2.5-.7 1.4-1.4 9-5 9-4.3 0 .4.5 0 1.1-1 .5-.9 1.4-1.7 1.9-1.7s3.6-1.6 7-3.6c3.3-1.9 6.5-3.2 7.2-2.8.7.4.8.3.4-.4s-.2-1.2.4-1.2c.6 0 1.8-.7 2.7-1.5.8-.8 1.9-1.3 2.4-1 .5.4.9.2.9-.3s2.6-2.2 5.8-3.7c4.7-2.4 7.2-2.9 14.2-3 5.8-.1 9.5-.7 11.8-1.9 1.7-.9 3.2-1.4 3.2-1.1 0 .3 1.1-.2 2.5-1.1 1.3-.8 2.9-1.3 3.4-1 .5.4 1.3.1 1.7-.5.5-.8.3-.9-.7-.4-2.3 1.3.1-.7 6.5-5.5 5.3-4 19-17 18-17-.3 0 .7-1.6 2.3-3.6 2.3-3.1 2.7-4.6 2.8-10.8.1-3.9-.1-8.2-.5-9.5-.4-1.6.5-4.6 3-9.5 1.9-3.9 4-7.4 4.5-7.8.6-.4.7-.8.3-.8-.4 0 0-1.7.9-3.8 1.9-4.6 3-7.5 3.2-8.4.1-.4.8-2.6 1.6-4.9 1.7-4.6 2.9-15.9 2.9-26.9 0-8.1-1.2-19.9-2.2-21.5-.4-.6-.8-1.8-.9-2.8-.4-2.1-4.3-11.7-5.5-13.2-3.5-4.5-11.7-14.4-13.3-16-5.7-5.9-20.8-14.8-26.8-15.9-1.2-.3-2.2-.5-2.2-.6 0-.2-3.8-1.1-5-1.2-.5 0-5.3.3-10.5.7-5.2.4-11.5.9-14 1-27 2-30.3 2.5-32 4.4-.7.8-7.7 4.8-13 7.4-2.5 1.2-4.7 2.5-5 2.8-.3.4-2.7 1.8-5.5 3.3-2.7 1.5-5.7 3.1-6.5 3.6-.8.5-5.2 3-9.8 5.5-5 2.9-10.7 7.2-14.5 11.1-3.5 3.5-6.1 6.4-5.8 6.4.3 0-.5.7-1.7 1.6-1.8 1.3-2.9 1.3-5.6.4-3.5-1.1-13.2-.8-17.4.5-1.3.4-5.5 2.4-9.5 4.3s-7.5 3.5-7.9 3.4c-.5-.1-.8.2-.8.8 0 .5-1.9 2.2-4.2 3.7-2.3 1.6-5.5 4.1-7 5.7-1.5 1.6-2.8 2.6-2.8 2.3 0-.4-4.4 3.7-9.7 9.1-5.3 5.3-9 8.6-8.1 7.2 3.8-6.3 5.1-7.9 5.9-7.4.5.3.6-.2.3-1-.3-.9-.2-1.6.4-1.6.5 0 1.3-1.1 1.6-2.4.3-1.4 1.2-3.1 1.9-3.8 1.7-1.8 5.7-10.5 5.7-12.4 0-.8.4-1.3.8-1 .5.3.7-1.4.5-3.7-.2-2.2-.8-4.4-1.4-4.8-.6-.3-3.8-.5-7.2-.2-11.7.7-19.5 6.3-27.5 19.8-2.3 3.9-4.5 7.4-5 8-.4.5-1.4 2.5-2.1 4.2-.7 1.8-1.7 3.3-2.1 3.3-.4 0-1 .8-1.4 1.7-.3 1-1.5 3.3-2.6 5-4.9 7.9-6 9.9-7 12.1-.6 1.4-1.5 2-2.2 1.6-.7-.4-.8-.3-.4.5.4.7-.7 3.4-2.6 6.4-1.8 2.8-3.2 5.5-3 5.9.1.5-.2.8-.7.8-.5 0-1.4 1.3-2.1 3-.7 1.6-1.6 3-2.1 3s-.9.7-.9 1.5c0 1.8-5.9 8.1-7.2 7.7-.5-.1-.7.1-.4.6.6 1-10.9 13.3-11.8 12.7-.3-.3-.4-.2-.1.2.7.9-1.6 3.4-2.6 2.7-.5-.3-.8-.1-.7.4.4 1.2-4.3 5.4-9.2 8.4-1.9 1.2-3.8 2.6-4.1 3.1-.3.5-.9.8-1.3.8-.3 0-1.1.1-1.8.3-3.7 1.2-5.8 1.3-5.8.4 0-.5-.4-.7-1-.3-.5.3-1.4-1.1-1.9-3.2-1.1-4.1-1-6 .3-8.2.7-1 .5-1.2-.3-.6-1 .6-1.1.3-.2-1.3.6-1.1 1.1-3 1.1-4.1 0-1.2.4-2.1.9-2.1s.7-.9.4-2c-.3-1.1 0-2 .6-2 .5 0 .8-.7.5-1.5-.4-.8-.2-1.5.3-1.5s1-1.1 1.1-2.3c.1-1.3.8-3.7 1.7-5.3.8-1.6 1.5-3.7 1.5-4.7s.4-1.5 1-1.2c.6.3.7-.1.4-.9-.4-1-.1-1.6.7-1.6.7 0 .9-.3.6-.6-.4-.4 0-1.9.8-3.3s3.8-7.6 6.6-13.6c2.9-6.1 5.5-11.2 5.8-11.5.3-.3 1.5-2.3 2.6-4.5s3.9-6.8 6.3-10.1c7.8-11.4 4.4-19.2-8.3-18.8-5.4.1-8.4 1.5-11.9 5.5-2.2 2.4-3.1 2.9-3.4 1.8-1-2.7-5.8-6.1-11.2-7.6-4.1-1.2-19.9-.5-25.5 1.2-3.3 1-6.2 1.7-6.4 1.6-.2-.2-.7.1-1 .6-1.3 1.7-11.3 6.3-12.4 5.7-.7-.4-.9-.4-.5.1.7.7-5.1 5.5-6.7 5.5-.3 0-1.8 1.1-3.3 2.5-1.5 1.4-2.9 2.5-3.3 2.5-.3 0-2.5 1.8-4.9 4-2.3 2.2-4.8 3.7-5.4 3.3-.6-.3-.8-.3-.4.1.8.9-9.1 11.2-10.4 10.8-.4-.1-.7.2-.6.6.3.7-3.6 5.9-7.7 10.6-2.2 2.5-6.6 9.4-9.3 14.8-2.3 4.7-3.1 5.5-4.2 4.5-1.2-1-1.2-.9-.2.4 1.3 1.7.7 4.9-1 4.9-.5 0-.7.4-.3.9.9 1.5-1.7 6.2-3.2 5.7-.7-.3-1.2-.2-1.1.2.5 1.6-2.4 5.3-3.8 4.8-.7-.3-1.3-.1-1.1.3.1.5-2.2 3.2-5 6-2.9 2.8-5.3 4.9-5.3 4.6 0-.3-1.5.9-3.2 2.6-3.8 3.6-11.4 7.8-10.3 5.7.4-.8.1-.7-.7.2-.7.8-2.8 1.6-4.6 1.7-2.6.1-3.5-.4-4.7-2.7-1.3-2.6-1.3-3.4.4-8.7 2.8-8.6 4.4-12.3 5.4-12.3.4 0 .5-.5.2-1-.3-.6-.2-1 .2-1 .5 0 1-1 1-2.2.1-1.3.8-2.7 1.5-3.3.7-.5 1.4-1.7 1.6-2.5.2-.8 2.7-6.5 5.7-12.6 4.6-9.6 5.7-11 7.9-11.2 1.4-.1 3.7-.3 5.1-.4 2.5-.2 3-2.2.7-2.4-.7-.1-1.8-.2-2.6-.3-.8 0-1.6-.7-1.9-1.5-.8-1.9 6.4-16.7 7.6-15.9.6.3.7.1.4-.4-.4-.6.7-3.7 2.3-6.9 1.6-3.3 3-6.5 3-7.2 0-.6.4-1.2.8-1.2s.8-.8.9-1.8c.1-.9.4-3.1.8-4.9 1.2-6.2-2.5-11.3-9.5-12.8-.8-.2-1.5-.4-1.5-.6 0-.1-2-.3-4.5-.5-4.3-.3-13.5 1.9-15.5 3.7-.5.5-1.7.9-2.7.9-1 0-1.8.3-1.8.7-.1.5-2.3 2.4-5.1 4.3s-6 4.3-7.2 5.4c-1.2 1-3.8 3-5.7 4.5-1.9 1.4-5.4 4.5-7.7 6.7-2.3 2.3-4.5 3.9-4.8 3.6-.3-.3-.5.3-.5 1.3s-.3 1.5-.6 1.2c-.7-.6-4.4 3.1-13.2 13.2-5.6 6.5-10.2 11.4-8.3 8.9.8-1 1.1-1.8.7-1.8-.4 0 0-.7.8-1.6.9-.8 1.4-1.9 1.1-2.4-.3-.4.2-1.1 1.1-1.4.8-.3 1.3-1 1-1.5-.4-.5.1-1.7 1-2.5.8-.9 1.2-1.6.8-1.6-.4 0 .1-.9 1.2-2.1 1-1.2 1.8-2.4 1.8-2.8-.3-1.3.9-3.1 1.7-2.5.5.3.6-.1.3-.9s.1-2.1.8-2.8c.7-.8 1.4-2.1 1.6-2.9.2-.8.8-1.7 1.3-1.8.5-.2.9-1 .9-1.7 0-.8.6-2 1.3-2.7.7-.7 1.5-1.8 1.7-2.3 1.2-3.9 5.5-11.3 6.3-10.8.6.3.7.2.4-.4-.4-.6.7-3.1 2.3-5.7 1.6-2.5 2.6-4.6 2.2-4.6-.4 0-.2-.4.3-.8.9-.6 1.8-2.1 4.9-7.7.6-1.1 1.4-2.2 1.7-2.5.4-.3 1.8-2.9 3.3-5.8 1.4-2.8 3.2-5.2 3.8-5.2.6 0 .8-.3.5-.6-.9-1 1.2-4.6 2.3-3.9.6.3.7 0 .5-.7-.3-.8.4-2.4 1.5-3.6 1.1-1.2 1.8-2.2 1.5-2.2-.3 0 .2-1.4 1.2-3 .9-1.7 2.1-3 2.5-3 .4 0 .8-.6.8-1.4 0-.8.6-2.1 1.3-2.8.6-.7 2.1-3 3.1-5 1.1-2 2.5-3.4 3-3.1.6.4.8.3.4-.2-.8-.8 2.4-6.7 4.8-9.3.7-.6 1.6-2.1 1.9-3.2.3-1.1 1.1-2 1.6-2s.9-.5.9-1.1c0-1.2 7.1-12.2 8.2-12.7.5-.2.8-.7.8-1.2s2.9-5.4 6.5-11.1c6.2-9.7 7-11.8 6.5-16.4-.4-4-2-4.8-9.1-4.2-7.3.6-13.3 3.1-17.6 7.5-3.4 3.5-6.3 7-6.3 7.8 0 .6-3.9 6.2-6.2 8.8-1 1.1-1.8 2.3-1.8 2.7 0 .8-4.1 7.3-5.9 9.5-.5.7-2.1 3.4-3.6 6-1.4 2.7-3 5.6-3.5 6.4-3.9 6.3-9.9 17.2-10.5 18.9-.3 1.2-1.1 2.1-1.6 2.1s-.9.6-.9 1.4c0 .8-.6 2.1-1.2 2.8-.7.8-2.1 2.8-3 4.6-6.2 11.7-10.3 19.1-12 21.4-1 1.5-2.4 4.1-2.9 5.8-.6 1.6-1.5 2.7-2 2.4-.5-.3-.8-.2-.7.3.3 1-4.3 10.5-5.5 11.4-.5.3-.8.9-.7 1.3.2 1-9.2 18-10.2 18.4-.4.2-.5.9-.2 1.4.4.6-.1 1.7-1 2.4-1 .7-1.7 1.5-1.8 1.8 0 1.9-1.2 4.6-1.9 4.6-.5 0-.8.3-.8.7.3 2.1-.2 3.4-1.1 2.8-.6-.4-1-.3-.9.2.4 1.6-1.3 6.2-2.7 7.4-.8.6-1.1 1.5-.8 2 .3.5 0 .9-.6.9s-.9.4-.5.9c.3.5.1 1.2-.5 1.6-1 .6-4.7 8.5-4.6 9.6.1.4-.8 1.7-1.9 2.9-1.1 1.2-1.9 2.5-1.7 2.9.1.3-.2.6-.7.6-.5 0-1.3.4-1.8.9s-.2.6.6.1c1.7-1 .8 2.1-2.5 8.3-1.3 2.5-2.4 4.9-2.4 5.4 0 .6-.9 2.3-2.1 3.9-1.1 1.6-1.7 3.3-1.4 3.9.3.5.2 1-.3 1s-1.2.9-1.5 2.1c-.3 1.2-1 1.8-1.6 1.4-.6-.3-.9 0-.6.8.5 1.2-1 5.3-7.2 18.7-4 8.6-7.3 17.8-7.3 20.2 0 1.2.3 1.8.7 1.5.3-.4 1.8 0 3.2 1 2.8 1.8 9.6 1.9 11.7.2.7-.6 1.9-.7 2.5-.3.7.4.9.3.6-.3-.7-1 3.3-4.9 4.6-4.5.5.1.6-.2.3-.7-.4-.5 0-1.5.7-2.3.8-.7 1.6-1.8 1.8-2.5.3-.9 6.3-8.1 12.4-14.9 1.2-1.2 3.1-3.6 4.4-5.3 1.3-1.7 2.8-2.8 3.3-2.5.4.3.8.2.7-.3-.4-1.5 1.3-4.3 2.2-3.7.5.3.9-.1.9-.9 0-1.8 3.4-4.9 4.4-4 .4.5.6.1.4-.7-.2-.8.3-1.4 1-1.2.8.1 1.1-.2.8-.7-.4-.5 1.4-3.1 3.9-5.7 2.5-2.7 4.5-5.2 4.5-5.6 0-.4.5-.8 1.1-.8.5 0 .7.6.3 1.2-.4.8-.3.9.2.5.5-.5.9-1.6.9-2.5 0-.9 1.1-2.2 2.5-2.9 1.4-.7 1.9-1.3 1.2-1.3-.8 0 1.1-2.5 4.1-5.5 3-3 5.3-5.5 5.1-5.5-.2 0 3.5-4.1 8.3-9 5-5.1 9.3-8.8 10.1-8.5.7.3 1 0 .7-.5-.7-1.1 3-5.1 3.9-4.3.3.4.6-.2.6-1.1 0-1.2.5-1.6 1.5-1.2.8.3 1.4.1 1.2-.4-.2-.9 7.5-8.1 8.1-7.6.2.2-1.1 2.4-2.8 4.9-1.6 2.5-3 5-3 5.6 0 .6-.8 1.1-1.7 1.1-1.4 0-1.5.2-.4.9.8.5.9 1.1.3 1.5-.6.3-2.5 3.5-4.3 7.1-1.7 3.5-3.6 6.2-4 5.9-.4-.2-.6.5-.4 1.6.2 1.1 0 2-.4 2-.5 0-1.2 1.1-1.5 2.5-.4 1.4-1.1 2.5-1.7 2.5-.6 0-.7.4-.4 1 .3.5.1 1-.5 1s-.9.4-.5.9c.3.5-.1 1.5-.8 2.3-.7.7-1.4 1.5-1.5 1.8-1.1 5.1-5.2 12.7-8.3 15.5-1.6 1.4-2.9 2.3-2.9 2.1 0-.2-2.1 1.6-4.6 4.1-6.5 6.2-15.6 18.2-14.8 19.5.5.7.2.8-.5.4-1.2-.8-4 1.9-4.1 3.9 0 .5.5.3 1-.5s1-1.1 1-.7c0 .5 1.5-.6 3.3-2.5 4.9-4.9 10.6-9.8 11.3-9.8.4 0 1.6-1 2.8-2.3 1.1-1.2 3.1-3.1 4.4-4.2l2.3-1.9-1 2.7c-2.4 6.1-3.7 22.2-2 23.3.5.3.9 1.3.9 2.2 0 1 1.5 3.3 3.3 5.3 3.2 3.6 8.7 7.5 8.7 6.3 0-.4.6-.2 1.3.3.6.6 2 .9 3 .8.9-.2 1.7 0 1.7.3 0 .4 2.9.7 6.5.7s6.5-.4 6.5-1c0-.5.5-.4 1.1.2.8.8 1.8.7 3.8-.3 1.6-.8 4-1.5 5.5-1.6 1.4-.1 2.6-.6 2.6-1s.5-.8 1.1-.8c1.8 0 9.5-3.9 10.9-5.5 1-1.2 1.6-1.3 2.8-.3 1.2 1 1.4 1 .8.1-.8-1.5 5.3-7.4 7.1-6.8.7.2 1.2-.1 1-.7-.1-.6.4-1.3 1.1-1.5.6-.3 1.2.3 1.2 1.2 0 .9.9 2.9 2 4.5 1.1 1.5 1.6 3.1 1.2 3.5-.4.5-.2.5.5.1 1.8-1 2.6 1.3 1.1 3.2-1.2 1.5-1.1 1.6.4.4 1.3-1.1 2-1.1 3.7 0 1.2.7 2.1 1.6 2.1 2 0 .5.9.8 1.9.8 1.1 0 2.3.4 2.6 1 .3.5 1.6 1 2.9 1 1.2 0 2.8.6 3.5 1.2 1.1 1 1.3 1 .7 0-.5-.9.4-1.2 3.3-1.2 2.3 0 4.2.1 4.4.2.1.1 1.1-.4 2.3-1 1.6-.8 2.4-.8 3.3.1 1 .9 1.1.9.6-.4-.4-1.1.4-1.8 3.1-2.7 2.1-.6 4.2-.8 4.7-.5.6.4.7.1.3-.6-.5-.8 0-1.4 1.3-1.8 1.2-.3 2.1-1 2.1-1.5 0-.6.7-.7 1.6-.4 1 .4 1.3.2.8-.6s-.2-.9.9-.5c.9.3 1.6.3 1.4-.2-.3-1.3 12.5-11.1 13.6-10.4.5.3.7.2.4-.4-.6-1 8.3-10 9.6-9.5.4.1.6-.1.5-.5-.3-1.7 1.5-4.3 3-4.3.8 0 1.2-.3.9-.7-.8-.8 1.1-3.3 2.5-3.3.6 0 .5.7-.2 1.5-.8 1-1.3 4.8-1.4 10.3 0 6.8.5 9.7 2.1 13.4 1.2 2.5 1.9 4.9 1.5 5.2-.3.3.1.6.9.6 2 0 4.2 3.7 2.6 4.4-.7.3-.2.3 1.1 0 1.2-.3 2.2-.1 2.2.3 0 1.3 6.9 3.6 11.5 3.9 2.2.2 4.2.3 4.5.5.3.1 1 0 1.5-.1.6-.1 2.1-.4 3.5-.7 1.4-.3 3.3-.6 4.3-.7.9 0 1.7-.4 1.7-.8s.6-.8 1.3-.8c.7 0 3.7-1.5 6.7-3.4 3.6-2.2 5.9-3.1 6.6-2.5.6.5 1.4.6 1.7.2.4-.3.7-.1.7.5 0 .7.3 1.1.8 1.1 1.9-.3 3.3.2 2.8 1-.4.5.3.7 1.4.4 1.1-.3 2.6 0 3.4.6.9.8 1.6.8 2 .2.4-.5 1.5-.8 2.6-.6 1.1.2 1.9.1 1.7-.3-.1-.4.8-1.8 2.1-3.2 1.2-1.3 2.2-2.8 2.2-3.2 0-.5.5-.6 1-.3.6.3 1 0 1-.8s.7-1.8 1.6-2.1c.9-.4 1.4-.9 1.1-1.2-.5-.5 1.7-3.5 5.6-7.6.9-1 1.7-2.3 1.7-2.8 0-.6.3-1 .8-1 .4 0 2.5-2.5 4.6-5.5 2.2-3 4.3-5.5 4.7-5.5.4 0 1.1-.9 1.4-2.1.4-1.3 1.2-1.8 2.1-1.5 1 .4 1.2.2.8-.6-.4-.6.1-1.7 1.1-2.5 1.1-.7 1.6-1.3 1.3-1.3-.3 0 2.1-2.8 5.3-6.3 3.2-3.4 5.9-6.5 5.9-7 0-.4.7-.7 1.6-.7.8 0 1.3-.3 1-.8-.2-.4 8.3-9.4 18.9-19.9 13.1-13.1 19.6-18.8 20.3-18.1.7.7 1 .5.9-.7-.1-.9.7-2.2 1.8-2.9 1.1-.6 2.7-1.8 3.5-2.7 2.2-2.3 7-5.3 7.6-4.7 1.7 1.8-8.8 15.4-10.9 14.1-.6-.3-.7-.1-.3.6.4.6 0 1.4-.8 1.7-.9.3-1.6 1.3-1.6 2.1 0 1.3-.2 1.3-1.7.2-1-.9-1.4-.9-1-.2.9 1.5-1.3 5.3-3 5.3-.7 0-1 .6-.7 1.3.2.7-.4 2.2-1.6 3.2-1.1 1-2 2.3-2 3 0 1.6-3.5 4.7-4.4 3.8-.4-.4-.4 0 0 1 .4 1.1 0 1.9-1 2.3-.9.3-1.3 1-1 1.5.3.5 0 .9-.6.9s-.8.5-.5 1c.3.6-.1 1.3-.9 1.6-.9.3-1.6 1.3-1.6 2 0 .8-.7 1.7-1.5 2-.8.4-1.2 1-.9 1.5.5.8-1.8 1.4-3.9 1-.5-.1-.6.3-.2.9.3.6 1.1.7 1.7.4.6-.4.8-.1.6.7-.3.8-1.1 1.3-1.7 1.1-.7-.1-1 .2-.7.7.3.5-.1 1.4-.9 2.1-.8.7-1.3 1.6-1 2 .3.4-.2 1-1 1.4-.8.3-1.5 1-1.5 1.6 0 1.7-6.7 10-7.4 9.2-.4-.3-.4.1 0 1.1.3 1 .1 1.7-.5 1.7s-1.1.6-1.1 1.4c0 2.1-4.9 6.8-6.3 6-.9-.6-.9-.5 0 .7 1 1.3.9 2-.7 3.7-1.1 1.2-2 2.4-2 2.7 0 .6-1.3 2.3-4.2 5.6-1 1-1.5 1.9-1.2 1.9.9 0-6.5 9.5-11.8 15.2-1.6 1.6-2.8 3.1-2.8 3.4 0 .7-5.9 7.2-14.1 15.6-3.1 3.2-5.6 5.8-5.4 5.8.2 0-9.7 9.7-18.6 18.1-4.1 3.9-9.9 8.9-15.9 13.9-2.4 1.9-4.8 4-5.5 4.7-.7.7-7 5.5-14.1 10.8-7.1 5.3-13.7 10.3-14.7 11.1-.9.8-1.9 1.4-2.2 1.4-.3 0-3.3 1.9-6.7 4.3-3.5 2.3-7.4 4.9-8.9 5.7-1.4.8-5.7 3.4-9.7 5.8-3.9 2.3-7.5 4.2-8.1 4.2-.6 0-1.1.4-1.1.8 0 .5-.6.9-1.2.9-.7 0-3.3.9-5.8 2-10.9 5-14.5 6.5-22.7 9.9-4.9 2-10.6 4.5-12.8 5.5-10.6 4.8-23.2 10-25.5 10.4-1.4.3-3.6.7-5 1-1.4.3-3.7.7-5.2 1-1.5.2-3.5.6-4.5.9-1 .3-3.1.8-4.8 1.1-12.8 2.2-23 4.2-23 4.5 0 .1-1.5.3-3.3.6-1.9.2-5.9 1-9.1 1.7-5.9 1.4-55.9 1.6-61.1.3-1.4-.3-5-1-8-1.6-6-1.1-9.2-1.7-13-2.5-2.6-.5-7.9-1.5-11.5-2.1-15.2-2.6-40.7-13.8-59-25.9-14.5-9.7-25.3-19-32-27.8-3-4-6.3-8.1-7.3-9.2-1-1.1-3.4-4-5.3-6.5-1.8-2.5-3.7-4.7-4.1-4.8-.5-.2-.8-.8-.8-1.4 0-.6-.8-1.8-1.8-2.7-1-.9-2.9-3.2-4.2-5.1-1.3-1.9-3-4.1-3.7-4.8-3.3-3.4-6.2-8.2-8.3-13.7-1.2-3.3-2.9-7.5-3.7-9.3-.8-1.8-1.1-3.8-.7-4.5.4-.6.3-.9-.1-.4-.7.6-2.6-3.2-4-8.3-.2-.8-2.1-5.6-4.1-10.5-2-5-3.7-9.5-3.8-10-.1-.6-.8-2-1.4-3.3-.7-1.2-1-2.2-.7-2.2.3 0-.2-1.1-1.1-2.5-1.9-2.9-.6-3.3 2.2-.7 1.1 1 3.2 2.7 4.7 3.6 2.5 1.7 4 4.5 1.5 3-.7-.4-.8-.3-.4.5.6.8 1.2.9 2 .2.9-.8 1.9-.4 3.7 1.2 1.3 1.2 2.6 2.1 2.9 1.9.3-.1 2.6.2 5.2.8 5.6 1.4 20.8 1.8 20.1.6-.3-.5 1-.7 3-.4 2 .2 3.3 0 3-.5-.3-.4.1-.7.8-.6 1.2.3 6.7-.7 10.4-1.7.6-.2 1.9-.5 3-.8 1.1-.3 3.4-.9 5.2-1.5 1.7-.5 3.5-.6 3.9-.3.4.4.4.1 0-.6-.7-1.1-.3-1.3 3.7-1.6.6-.1 1.6-.7 2-1.4.5-.7 1.2-1 1.7-.7.5.3 1.1.1 1.5-.5.4-.6 1.1-.8 1.6-.5.5.4.9.3.9-.2 0-.4 1.9-1.7 4.3-2.8 2.3-1.1 5.7-3 7.6-4.2 1.8-1.3 3.8-2 4.4-1.6.6.3.7.1.3-.5-.4-.7.3-1.7 1.8-2.4 1.4-.6 2.6-1.5 2.6-2.1 0-.5.7-.6 1.6-.3.8.3 1.3.2 1-.2-.3-.4 2.2-2.6 5.4-4.7 3.3-2.2 6-4.4 6-4.8 0-.5.4-.6.9-.3s1.2-.1 1.5-1c.3-.8 1.1-1.2 1.7-.8.7.4.9.3.6-.3-.4-.6.3-1.7 1.6-2.6 1.2-.8 4-3.1 6.1-5 2.2-2 4.3-3.4 4.8-3.1.5.3.7.1.6-.4-.2-.5 3.8-4.9 8.7-9.9 5-5 10.4-10.7 12-12.7 1.7-2 3.5-3.4 4.2-3.2.7.3 1-.1.6-.9-.3-.8.2-1.8 1.1-2.1.9-.3 1.6-1.1 1.6-1.8 0-.6 1.3-2.5 2.8-4.1 1.5-1.7 3.7-4.5 4.7-6.3 1.1-1.7 2.2-3.2 2.6-3.2.4 0 1.7-1.6 2.9-3.5 1.2-2 2.9-4.3 3.8-5.2 1-.9 1.7-1.9 1.7-2.2.1-1.3 5.8-9.1 6.7-9.1.5 0 .7-.4.4-.8-.3-.5.3-1.8 1.2-2.8 1-1 2.1-2.7 2.5-3.7.4-1.1 1.2-1.5 1.8-1.1.8.4.9.3.5-.4-.9-1.4 3.7-9.5 4.8-8.5.4.4.4 0 .1-.8-.3-.9.1-2.2.9-2.9.9-.7 1.3-1.6 1-2.1-.3-.5 0-.9.6-.9s.8-.5.5-1c-.3-.6-.1-1 .4-1 .6 0 1.1-.7 1.1-1.5s.5-1.5 1.2-1.5c.6 0 .9-.3.5-.6-.3-.4.5-2.6 1.8-5.1 1.4-2.4 2.5-5 2.5-5.8 0-.8.8-1.5 1.8-1.6 1 0 1.2-.3.5-.6-.9-.3-.8-1.4.6-4.1 1-2 2.4-5.6 3.1-8 .7-2.3 1.6-4.2 2-4.2.4 0 .8-.6.7-1.3 0-.6.1-2.1.2-3.2.1-1.7.3-1.8 1.2-.5.8 1.2.9 1 .4-.8-.4-1.2-.2-3.7.4-5.5 4.4-13.6 2.5-25-5.3-31.6-1-.9-2.7-2.4-3.8-3.4-1-.9-1.8-1.5-1.8-1.3 0 .2-2.1-.4-4.7-1.3-4.6-1.7-11.3-1.9-17.6-.7l-2.7.6 1.5-3.1c.9-1.6 2.4-3.8 3.3-4.8.9-1 1.9-2.4 2-3.2.7-2.7.7-7.7 0-7.3-.3.2-.9 0-1.3-.6-.6-1-5.6-3.4-9.4-4.5-2.5-.7-12.8-.8-17.1-.1-6.2 1-12.6 2-14 2-.8.1-2.1.5-2.7.9-.7.5-1.3.6-1.3.2 0-.3-1.6.1-3.5.9s-3.5 1.3-3.5 1.1c0-.4-10.4 3.4-16.2 5.9-2.1.9-3.8 1.3-3.8.9 0-.5-.4-.3-.8.3s-2.5 2-4.7 3.1c-6.5 3.2-13.9 7.4-15.7 9.1-1 .8-1.8 1.2-1.8.8 0-.4-1 .2-2.2 1.4-1.2 1.1-2.8 2-3.5 2-.7 0-1.3.4-1.3.8 0 .5-1.2 1.5-2.7 2.3-1.6.8-3 1.6-3.3 1.9-.3.3-3.2 2.5-6.5 5-7.2 5.3-8.2 6.1-11.8 9.4-1.5 1.4-2.7 2.2-2.7 1.8 0-.3-.7.4-1.6 1.6-.8 1.2-2 2-2.5 1.6-.5-.3-.8-.1-.7.3.2.5-1.2 2.4-2.9 4.2-1.8 1.8-3.3 2.9-3.3 2.4-.1-.4-.8.5-1.6 2-1 1.8-2.1 2.7-3 2.3-.8-.3-1.2-.2-.9.4.3.5-1.4 2.9-3.8 5.3-11.7 12.1-26.4 32.1-34.9 47.4-2.2 4-4.3 7.5-4.8 7.8-.8.5 5.1-16.1 9.5-26.5 3.1-7.4 12.7-27.2 13.5-28 .3-.3 2.5-3.9 5-8 2.4-4.1 5-8.1 5.7-8.8.7-.7 1.3-1.7 1.3-2.1 0-.4.9-1.9 2-3.2 1.2-1.2 3-3.8 4.1-5.6 1.1-1.8 2.5-3.3 3-3.3s.9-.5.9-1.1c0-1 2.7-4.5 12-15.3 5.9-6.9 20.8-21.4 21.4-20.9.3.4.6-.1.6-1s.3-1.7.8-1.7c.4 0 3.1-2.3 6.1-5 3-2.8 5.6-5 5.8-5 .2 0 1.1-.8 2.2-1.8 2.3-2.1 6.1-5.1 13.1-10.2 3-2.2 6.1-4.5 6.9-5.2.8-.6 7.1-4.7 14-9.1 16.5-10.3 41.7-22.5 56.1-27.1 6.3-2.1 12.2-4 13-4.3.8-.4 1.7-.7 2-.8 1.8-.6 9.7-2.9 10.5-3.1.6-.1 3.4-1.2 6.3-2.3 2.9-1.1 5.5-2 5.7-2.1.6-.1 1.5-.4 9.8-3 3.8-1.2 9.7-2.4 13-2.6 3.4-.1 8.5-.5 11.2-.8 4.7-.5 8.9-.8 29.3-2.2 7.2-.5 9.1-1 11.8-3.2 4.4-3.5 8.6-4.2 17.4-2.9 4.1.6 4.9.4 7.7-2.2l3.2-2.9-3.1-1.1c-3.9-1.4-3.3-1.5-5.5 1.1zM257 494.8c0 1.1-6.1 3.2-7.1 2.6-.5-.3-.9 0-.9.6s-1.6 1.8-3.5 2.6-3.5 1.9-3.5 2.5c0 .5-.4.8-.8.5-.4-.2-2.3.9-4.1 2.5-1.9 1.6-3.7 2.9-4 2.9-.3 0-1.9 1.1-3.4 2.6-1.5 1.4-3.2 2.2-3.7 1.9-.6-.4-.9-.2-.8.3.2.6-2.5 3.9-5.9 7.5-3.3 3.6-5.8 6.8-5.5 7.1.3.3.1.6-.5.6-.5 0-1.5 1.2-2.1 2.6-.7 1.4-1.6 2.3-2.1 1.9-.5-.3-1.3 0-1.7.6-.4.8-.3.9.4.5 1.6-1 1.5.4-.3 4.8-.9 2-1.3 4.1-1 4.6.3.5.1 1.1-.5 1.5-.6.4-.4 1.7.5 3.6.9 1.6 1.3 2.9.9 2.9-.3 0 .8 1.7 2.5 3.9 1.7 2.1 2.7 4.1 2.3 4.5-.4.4 0 .6.8.4.9-.2 1.4.3 1.2 1.2-.2.8 0 1.2.4.8.4-.4 2.2.6 4 2.2 4.2 3.6 6.4 3.1 6.4-1.7 0-4 3.1-8.8 11.3-17.7 3.6-3.8 5.9-5.6 6.8-5.1.7.5 1 .4.6-.2-.8-1.3 3.7-5.6 4.8-4.6.4.5.5.3.1-.4-.8-1.5 1-2.7 2.7-1.6 1.8 1.1 3.8 1.3 3.1.2-.3-.5-.9-.7-1.4-.4-.5.3-1.1.1-1.4-.4-.4-.5 1-1.9 2.9-3.1 1.9-1.2 3.5-2.7 3.5-3.2 0-.6.3-.8.7-.5.3.4 1.5 0 2.5-1 1-.9 1.8-1.2 1.8-.7s.4.4.8-.2c.4-.6 2.6-1.8 4.8-2.7 3.2-1.2 4.4-1.3 5.4-.4s1.1.9.5-.2c-.5-.9-.3-1.2.6-.9.8.3 1.5 1.9 1.6 3.6.1 1.8-.2 3-.7 2.7-.4-.3-.6.5-.2 1.7.3 1.4.1 1.9-.6 1.4-.6-.3-1.4-.2-1.7.4-.4.6-.3 1 .2.9 2-.4 2.2.3.9 3-.9 1.6-1.2 3.1-.9 3.4.3.4-.1.9-1 1.3-.9.3-1.4 1.1-1.1 1.8.3.8-.9 3.7-2.5 6.5-1.7 2.9-3.1 5.5-3.1 5.8 0 .3-.8 1.2-1.7 2-1 .8-1.1 1.1-.4.7.9-.5.6.5-.7 2.3-1.2 1.7-2.2 3.6-2.2 4.2 0 .5-.6 1.4-1.4 1.8-.8.4-1.5 1-1.5 1.3 0 1.8-1.5 3.9-2.4 3.3-.5-.3-.7-.2-.4.4.3.5-.5 2.6-1.8 4.6-1.4 2-2.5 3.9-2.5 4.2 0 1.2-2.8 3.4-3.4 2.7-.4-.3-.4 0-.1.9.3.8-.2 2.4-1.2 3.4-1 1.1-3.1 3.9-4.7 6.2-1.6 2.4-3.3 4.3-3.7 4.3-.5 0-.9.5-.9 1.1 0 .6-.6 1.6-1.2 2.3-.7.7-2.2 2.5-3.3 4-4.6 6.2-6.8 8.5-7.8 7.9-.6-.3-.7-.1-.3.5.7 1.2-2.6 5.2-14 16.9-3.9 4-7.4 6.9-7.8 6.5-.4-.4-.6-.2-.4.4.3 1.2-5.8 7.4-7.4 7.4-.5 0-.6.4-.3 1 .3.5.2 1-.4 1-.5 0-2.2 1.1-3.7 2.5-1.4 1.3-3.2 2.2-3.8 1.8-.6-.3-.8-.2-.3.2.9 1-3.3 5.6-4.4 4.9-.5-.3-.9-.1-.9.4 0 1.1-10.5 9.2-11.9 9.2-.6 0-1.4.7-1.9 1.6-.5.9-1.3 1.6-1.8 1.6-.5.1-2.7 1.2-4.9 2.6-2.2 1.4-6.7 3.8-10 5.3-9.2 4.1-10.8 4.7-15.2 5.1-1.3.1-2.3.5-2.3.9 0 .3-3.3.7-7.2.8-6.5.2-7.8-.1-11.9-2.7-7.2-4.6-9.4-10-9.3-23.5 0-6 .5-11.2 1-11.5.5-.4 1-1.9 1.1-3.3.3-4.5 2.4-11 3.3-10.4.6.3.7 0 .4-.8-.2-.7.1-2.7.7-4.3.7-1.6 1.2-3.2 1.1-3.7-.1-.4.3-.7 1-.7.6 0 .9-.3.5-.6-.3-.3.7-2.7 2.2-5.2 1.5-2.6 3.7-6.8 5-9.5 1.3-2.6 2.7-4.7 3.2-4.7s.8-.3.7-.8c-.5-1.8 14.5-25 16.8-25.9.8-.3 1.4-1.1 1.4-1.7 0-.7 1.2-2.6 2.8-4.4 1.5-1.7 5-5.7 7.7-8.9 8.2-9.6 22.8-23.4 24.2-22.9.7.3 1-.1.6-1-.3-.7 0-1.4.6-1.4.7 0 2.1-.9 3.3-2 1.2-1 2.5-1.7 3-1.4.5.3.7.1.6-.4-.5-1.6 8.9-8.1 10-7 .7.7 1 .5.9-.6-.1-.9 1.2-2.4 2.8-3.4 1.7-.9 3.2-1.9 3.5-2.2.3-.3 2.1-1.4 4-2.4 1.9-1.1 3.7-2.2 4-2.5.3-.3 1.6-1.2 2.9-1.9 1.3-.8 3.9-2.3 5.8-3.3 1.9-1.1 3.8-1.7 4.4-1.4.5.4.9.3.9-.2 0-.4 1.2-1.4 2.8-2 4.9-2.2 11.2-4.2 11.2-3.6 0 .3.6 0 1.4-.6.8-.6 2.8-1.3 4.5-1.4 1.7-.1 3.1-.6 3.1-1 0-.5.3-.6.8-.4.4.3 1.5.1 2.5-.2 2.7-1 5.7-1.1 5.7-.3zm545.9 39.8c2.4.3 5.2.9 6.3 1.5 1 .5 1.8.7 1.8.4 0-.4.6-.3 1.3.2.6.4 1.7.8 2.4.9 2.7.4 12.1 6.9 14.1 9.8 1.2 1.7 3.4 4.5 4.9 6.2 1.6 1.7 4.6 5.3 6.8 8s5.5 6.5 7.3 8.5c1.7 2 3.2 4.2 3.2 4.8 0 .6.4 1.1.8 1.1 1.1 0 1.1 0 1.6 19.5.4 15.2-.1 22.7-1.9 30.5-.3 1.4-.7 3.7-1 5.2-.3 1.5-.9 3.8-1.4 5.1-.6 1.4-.7 2.8-.4 3.1.4.3.1.6-.5.6-.7 0-1.1.3-1 .7.3 1.2-4.6 11.3-5.4 11.3-.5 0-.8.7-.8 1.5s-.4 1.5-1 1.5c-.5 0-1 .5-1 1 0 1-1.2 2.5-11.7 13.8-2.4 2.5-4.3 5-4.3 5.5 0 .4-.4.5-1 .2-.5-.3-1-.2-1 .4 0 1.2-11.4 10.1-12.9 10.1-.6 0-1.1.5-1.1 1.1 0 .6-.9.9-2 .6-1.1-.3-1.8-.1-1.5.3.3.5-.9.8-2.7.8-3.3-.1-5.1-1.3-5.5-3.6-.2-.6-.4-1.5-.5-2-.4-1.5 1.3-13.2 2-13.2.4 0 .7-1.4.8-3 .1-1.7 1-3.8 2-4.6 1-.9 1.3-1.3.7-.9-.7.3-1.3.4-1.3.2 0-1.2 5.3-14.3 7.2-18 1.2-2.3 2.1-4.5 2-5-.1-.4.3-.7.8-.7s.9-.4.7-.8c-.4-1.6 7.6-17.1 8.6-16.5.6.4.7.1.3-.6-.5-.7 0-2.1 1-3.2.9-1 1.4-1.9.9-1.9-.4 0 .4-1.5 1.8-3.4 1.5-1.8 2.3-3.6 2-4-.3-.3.2-.8 1.1-1.2.9-.3 1.3-1 1-1.5-.3-.5.2-1.2 1-1.5.9-.3 1.3-1 1-1.5-.3-.5.1-1.2.9-1.5 3-1.1 4.2-10.1 1.8-13-3.3-3.8-6.5-4.4-17-3.2-.8.1-3.1 1.8-5.2 3.9-2.7 2.7-4 3.4-4.8 2.6-.6-.6-1.1-1.6-1.1-2.2 0-1-3.7-3.4-6.2-4.1-.5-.1-.9-.2-1-.4-2.3-1.8-23.1-1.7-26.3.2-.6.3-2.2.8-3.8 1.2-6.5 1.6-23.6 11.1-31.3 17.5-1.7 1.4-5 4.1-7.3 6-2.3 1.8-6.5 5.8-9.3 8.7-2.8 2.9-5.5 5.1-6.1 4.7-.6-.3-.7-.2-.4.4.3.5-.5 2.1-1.9 3.6s-2.1 2.7-1.7 2.7c.4.1-.3.7-1.7 1.5s-2.1 1.4-1.7 1.5c.4 0-.3 1.5-1.7 3.3-1.5 1.9-2.6 3.9-2.6 4.5 0 .7-.3 1.2-.8 1.2-.4 0-1.3 1-1.9 2.2-2.3 4.5-4.7 9.3-4.9 10-.1.5-.3 1.1-.4 1.5-.1.5-.2 1.1-.1 1.5 0 .5-.3.8-.9.8-.5 0-1.2 1.7-1.6 3.7-.6 3-2.5 5.5-9.1 12-4.6 4.5-9.3 8.5-10.3 8.8-1.1.4-2 1-2 1.4 0 .4-2.4 2.1-5.2 3.6-9.5 5.2-19.8 3.4-19.8-3.3 0-6.2 7.5-23 10-22.4 1.1.3 1.1 0-.1-1.4-1.2-1.6-1.2-1.7.3-1.1 1.2.4 1.5.2 1.2-.7-.7-1.8 3.6-8.7 4.9-7.9.6.3.7.1.3-.5-.6-1.1 13.8-24.3 15.6-25 .4-.2.8-1 .8-1.8s.5-1.4 1-1.4c.6 0 1-.7 1-1.5s.5-1.5 1.2-1.5c.6 0 .9-.3.5-.6-.3-.3 1-2.6 2.9-5.1 1.9-2.4 3.7-5.5 4-6.9.3-1.3 1-2.4 1.5-2.4s.9-.6.9-1.3c0-.6.6-2.4 1.4-3.9 2.3-4.4 2.9-11.7 1.2-14.3-1.4-2.1-1.3-2.4.8-4.4 1.2-1.1 2.8-2.1 3.4-2.1.7 0 1.2-.4 1.2-.9 0-1 13.4-11.1 14.8-11.1.6 0 1.2-.4 1.4-.8.5-1.3 9.8-7.4 9.8-6.5 0 .4.4.3.8-.3.4-.7 2.3-2 4.2-3.1 11.1-6.2 17-9.2 17-8.5 0 .4.4.2.8-.3.6-.9 8.5-4.8 10.2-5.1.3 0 2.3-.9 4.5-1.9 5.4-2.4 9.6-3.3 18.5-4.1 4.1-.3 7.6-.8 7.8-.9.4-.4 9.4.2 16.1 1.1zm-287.5 68.7c-1.6 2.8-7.9 11.2-8.6 11.5-.5.2-.8 1-.8 1.8s-.3 1.4-.8 1.4c-.4 0-1.8 1.8-3.2 4-1.4 2.2-2.8 4-3.2 4-.4 0-.9.8-1.2 1.7-.3 1-1.9 3.2-3.6 5-1.6 1.8-3 3.5-3 3.8 0 1.2-2.8 3.4-3.5 2.7-.4-.4-.6-.3-.5.3.5 2.5-.1 3.7-1.6 3.1-.9-.3-1.2-.2-.9.5.4.5-3.8 5.4-9.3 10.7-12.1 11.7-15.2 14.3-16.5 13.5-.6-.3-.7-.1-.4.4.4.6-.2 1.8-1.3 2.8-1.1 1-2 1.5-2 1.2 0-.4-1.2.6-2.7 2.1-3.9 3.9-13.3 10.9-16.4 12-2.8 1.1-5.6.1-4.5-1.7.4-.6.3-1.1-.2-1.1s-.7-1.3-.4-3c.2-1.6.8-2.7 1.3-2.5.4.3.6-.4.4-1.5-.5-2.5.4-5.2 1.5-4.5.5.3.6-.4.3-1.5-.3-1.2 0-2 .6-2 .7 0 .9-.5.6-1-.3-.6-.1-1 .5-1s.9-.4.6-.8c-.3-.5.4-1.8 1.4-3 1.1-1.2 2-2.8 2-3.7 0-.8.4-1.5.9-1.5s1.4-1.3 2-2.8c.7-1.5 2.3-4 3.6-5.4 1.3-1.4 2.1-2.9 1.8-3.2-.4-.3-.1-.6.5-.6.5 0 2-1.6 3.2-3.6 1.3-1.9 2.8-3.3 3.5-3 .9.3 1.1-.2.7-1.6-.3-1.4-.1-1.9.6-1.4.7.4 1.2.2 1.2-.4 0-1.7 2.8-4.2 4-3.5.6.3.7-.1.4-.9-.6-1.4.5-2.1 2.8-1.7.4 0 .4-.7.1-1.6-.5-1.3-.2-1.5 1.6-1 1.8.4 2 .3 1-.9-.6-.8-.7-1.4-.2-1.4.5 0 1.8-.8 2.9-1.8 4.5-4.1 10.3-8.1 15.4-10.8 3-1.6 5.8-3.4 6.2-3.9.4-.6.8-.7.8-.3 0 .4 1.2.1 2.7-.7 1.5-.8 3-1.2 3.5-.9.4.3.8.1.8-.4 0-1 7.2-2.7 12.8-3 2.3-.1 3.1.2 2.6 1.1zm279.9 2.4c-1.5 2.1-3.3 4.4-4 5.3-.7.8-3.5 4.6-6.3 8.5-7.9 10.8-9.3 12.7-11.7 15.3-1.3 1.4-2.3 2.8-2.3 3.2 0 .4-1.8 2.6-4 5s-4 4.7-4 5.2-.4.7-.9.3c-.5-.3-1.2.4-1.6 1.5-.3 1.1-1.3 2-2.1 2-.9 0-1.2.5-.8 1.2.5.8.2.9-1 .5-.9-.4-1.5-.3-1.2.2.3.4-2.2 3.2-5.6 6.2-3.3 3-7 6.3-8.2 7.4-1.2 1.1-4.1 3.6-6.6 5.5-2.4 1.9-5.5 4.5-6.8 5.7-1.3 1.2-3.3 2.5-4.3 2.8-1.1.4-1.9 1-1.9 1.5s-.7.6-1.7.3c-1-.4-1.4-.2-1 .4 1 1.6-1.8 2.4-3.2 1-.9-.9-1.1-.8-.6.5.8 2.1-.8 2.4-2.3.5-1.1-1.3-.6-10.8.6-11.6.4-.4.7-1.1.7-1.6.1-1.5 4.8-11 5.7-11.3.4-.2.8-1 .8-1.8s.4-1.4.9-1.4 1.1-1 1.5-2.3c.3-1.2 1.4-3.2 2.6-4.4 1.1-1.2 2-2.5 2-2.8 0-.4.6-1.2 1.3-1.9.6-.8 1.9-2.4 2.7-3.7 1.7-2.6 17.9-19.2 22.2-22.7 9.7-7.8 18.9-12.9 21-11.6.6.4.8.3.5-.3-.7-1.1 4-3.6 5.3-2.8.5.3 1 .1 1.2-.5.3-1.1 7.4-2.7 12.6-2.9l3.3-.1-2.8 3.7z"/><path d="M263.4 529.8c.4.3 1.4.7 2.2.8.9.1 1.3 0 1-.4-.4-.3-1.4-.7-2.2-.8-.9-.1-1.3 0-1 .4zM269.6 530.2c.3.5 1 .6 1.5.3 1.3-.9 1.1-1.2-.6-1.2-.8 0-1.2.4-.9.9zM191.5 530.9c-.3.5-.2 1.2.3 1.5.5.3.9-.1.9-.9 0-1.7-.3-1.9-1.2-.6zM260.9 536.3c.6.8.7 1.8.3 2.2-.4.5-.1.5.6.1 1-.6 1-1.1.1-2.2-.6-.8-1.4-1.4-1.6-1.4-.3 0 0 .6.6 1.3zM265.4 538.4c.1.8.5 1.8.8 2.2.4.3.5-.1.4-1-.1-.8-.5-1.8-.8-2.2-.4-.3-.5.1-.4 1zM247 542.1c0 .5.5.7 1 .4.6-.3 1-.8 1-1.1 0-.2-.4-.4-1-.4-.5 0-1 .5-1 1.1zM261.5 541.9c-.3.5-.2 1.2.3 1.5.5.3.9-.1.9-.9 0-1.7-.3-1.9-1.2-.6zM239.5 546c-.3.5-.1 1 .4 1 .6 0 1.1-.5 1.1-1 0-.6-.2-1-.4-1-.3 0-.8.4-1.1 1zM257.6 545.8c-.3.4.4.9 1.5.9 2.3.2 2.5-.3.4-1-.8-.4-1.6-.3-1.9.1zM251.3 555.5c0 .8.4 1.2.9.9.5-.3.6-1 .3-1.5-.9-1.3-1.2-1.1-1.2.6zM259.3 557.5c0 .8.4 1.2.9.9.5-.3.6-1 .3-1.5-.9-1.3-1.2-1.1-1.2.6zM154.9 583.7c-1.3 1.6-1.2 1.7.4.4.9-.7 1.7-1.5 1.7-1.7 0-.8-.8-.3-2.1 1.3zM143 587.9c0 .6.4 1.2.8 1.5.5.3.9-.1.9-.9s-.4-1.5-.9-1.5c-.4 0-.8.4-.8.9zM682 631.4c0 .2.8 1 1.8 1.7 1.5 1.3 1.6 1.2.3-.4s-2.1-2.1-2.1-1.3zM679.6 648.7c-.6 1.4-.5 1.5.5.6.7-.7 1-1.5.7-1.8-.3-.3-.9.2-1.2 1.2zM803.5 656c.3.5.8 1 1.1 1 .2 0 .4-.5.4-1 0-.6-.5-1-1.1-1-.5 0-.7.4-.4 1zM682.9 663.7c-1.3 1.6-1.2 1.7.4.4 1.6-1.3 2.1-2.1 1.3-2.1-.2 0-1 .8-1.7 1.7zM663.6 667.3c.3 1 .9 1.5 1.2 1.2.3-.3 0-1.1-.7-1.8-1-.9-1.1-.8-.5.6zM651.5 668c.3.5.8 1 1.1 1 .2 0 .4-.5.4-1 0-.6-.5-1-1.1-1-.5 0-.7.4-.4 1zM447.6 652.2c.3.5 1 .6 1.5.3 1.3-.9 1.1-1.2-.6-1.2-.8 0-1.2.4-.9.9zM760 620c-.9.6-1 1-.3 1 .6 0 1.5-.5 1.8-1 .8-1.2.4-1.2-1.5 0zM742.5 636.1c-.3.4.2.6 1 .5 2.1-.3 2.8-1.3 1-1.3-.9 0-1.8.4-2 .8zM731.5 647.9c-.3.5-.2 1.2.3 1.5.5.3.9-.1.9-.9 0-1.7-.3-1.9-1.2-.6zM462.1 375.2c-1.7 1.8-2.9 3.3-2.8 3.4.1.1 1.8.5 3.7.7 1.9.3 3.5.6 3.5.7 0 .1 1.4.3 3 .6 2.7.3 14.6 2.7 20 3.9 1.1.2 3.6.7 5.5.9 2 .2 4.7.7 6 1 1.4.3 3.9.8 5.5 1.1 4.9.9 12.8 2.3 16.5 2.9 7.5 1.3 9.5 1.9 10.2 3 .6.8.8.8.8-.1 0-.6.8-.9 1.8-.7.9.3 4.6-.8 8.1-2.4 5.8-2.7 6.3-3 4.4-4-1.1-.6-2.2-.9-2.5-.7-.3.3-2.9 0-5.9-.5-3-.6-7-1.3-8.9-1.6-1.9-.2-4.6-.7-6-1.1-1.4-.3-3.8-.7-5.5-.9-1.6-.2-4.1-.6-5.5-.9-4.2-.8-8.4-1.6-11-2-2.6-.3-8.7-1.3-13-2.1-1.4-.2-4.1-.7-6-1-3.9-.6-13.4-2.2-16.7-2.9-1.5-.4-3.1.4-5.2 2.7zM659 416c0 .5.5 1 1.1 1 .5 0 .7-.5.4-1-.3-.6-.8-1-1.1-1-.2 0-.4.4-.4 1zM651.7 422.6c.3.8.1 1.4-.4 1.4-1.1 0-4.9 2.8-7.1 5.2-.9 1-2 1.8-2.3 1.8-.4 0-2.3 1.5-4.2 3.4-3.3 3.2-3.4 3.6-3.2 9.9.1 3.7-.2 6.4-.7 6.1-.4-.3-.4.5 0 1.8s.7 4.4.7 7c-.1 3.6.4 5.3 2.2 7.4 1.3 1.5 2.3 3.3 2.3 4.1 0 .7.4 1.3.8 1.3.8 0 2.9 3.6 3 5.3 0 .5 1 1.7 2.1 2.6 1.1 1 1.8 2.1 1.4 2.5-.3.3-.1.6.6.6s1 .4.7.9c-.3.5.1 1.1.9 1.5.8.3 1.5 1 1.5 1.6 0 .6 1.2 2.7 2.6 4.5 1.5 2 2.3 3.9 1.8 4.7-.4.7-.4 1 .1.6.8-.8 5.5 5.3 5.5 7.1 0 .6.5 1.1 1.1 1.1.6 0 .8.7.5 1.7-.4 1-.4 1.4-.1 1.1.4-.4 2 .6 3.7 2 3.1 2.8 6.7 3.5 8.1 1.7.4-.6.6.6.3 2.6-.6 4.3 1.3 6.6 5 6.1 1.4-.2 2.8.4 3.5 1.6.7 1.2 1.9 1.8 2.8 1.5 2.1-.7 6.1-4.9 6.1-6.3 0-1.2 4.7-.3 7 1.4.8.5 1.2.6.7.1-.4-.4 0-1.6.9-2.6s1.4-2.5 1-3.4c-.3-.9.1-1.8.9-2.1.8-.4 1.2-1 .9-1.5-.3-.5 0-.9.5-.9h1.6c.5 0 2.1-1.4 6.8-5.7.9-.9 1.7-1.2 1.7-.7s1.5.9 3.3.9c3.1 0 3.3-.2 3-3.5-.2-3.1.5-4.2 7-10.6 3.9-4 7.6-7 8.2-6.7.5.4.7.2.2-.2-.4-.5 0-1.6.9-2.6 1.7-1.9 2.3-8.6 1-10.7-.9-1.6.7-4.5 2.8-4.8.9-.1 1.6.1 1.6.5 0 1.6 3.3.7 3.8-1.1.2-1 .9-1.8 1.4-1.8.5 0 .7-.4.4-.8-.3-.5.1-1.9.7-3.3.7-1.3 1.4-4 1.5-6.1.4-4-1.6-5.9-5-5-1.9.5-2 .4-.3-2.9 1-1.9 1.4-3.1 1-2.7-.8.8-3.5-1.5-3.5-3 0-.5-1-1.4-2.2-2.1-1.3-.6-3.2-2.5-4.4-4.2l-2.1-2.9-2.6 2c-1.4 1.1-3.2 1.7-4.1 1.4-1.7-.7-4.2-4.3-3.8-5.7.4-1.6-3.6-.6-9 2.3-3.2 1.7-5.8 2.7-5.8 2.3 0-.4-.4-.3-.8.3-.9 1.4-15.2 8.7-15.2 7.8 0-.4-.6-.1-1.4.5-1.9 1.6-4.5.3-4.1-2.1.5-2.3-1.4-5.8-3.2-5.8-.6 0-1.9-1-2.7-2.2-.9-1.2-1.6-1.9-1.6-1.5 0 .4-1.2 0-2.7-1-1.4-1-4.6-1.9-7-2-2.5-.2-5.4-.8-6.5-1.4-1.2-.6-4-1.3-6.4-1.4-3.3-.3-4.2 0-3.7 1.1zM654 473c-1.3.8-1.2 1 .3 1 .9 0 1.7.5 1.7 1.2 0 .6-.3.8-.7.5-.3-.4-1.2-.2-2 .4-1 .9-1.3.8-1.3 0 0-.7-.4-.9-1-.6-1.4.8-1.3-.6.3-3.8 1.1-2.3 1.4-2.5 2.7-1.1 1.3 1.3 1.3 1.6 0 2.4zM759.8 445.2c-2.3 1.5-4.1 2.8-3.8 2.9.3.1 3.2.3 6.5.4 3.3.1 12 .5 19.3.9l13.4.6-.7-3.2c-.4-1.8-.9-3.5-1.1-3.7-.1-.2-6.8-.4-14.8-.5-14.1-.1-14.5 0-18.8 2.6zM613 448c0 .5.5 1 1.1 1 .5 0 .7-.5.4-1-.3-.6-.8-1-1.1-1-.2 0-.4.4-.4 1zM543.3 478.3c-.4.7-2 2-3.4 2.9-1.4.9-3.2 2.3-4 3-.8.8-3 2.5-4.9 3.8-6 4.2-8.1 6.5-8.5 9.6-.2 1.6-.4 2.9-.5 2.9-.1 0-.3.9-.5 2s-.7 3.6-1 5.5c-.4 1.9-.9 5.1-1.1 7-.3 1.9-.8 3.7-1.2 4-1 .7-1.2 4-.2 4 .4 0 1.3-.7 2-1.5s1.9-1.5 2.6-1.5c.8 0 1.4-.4 1.4-.8s1.5-1.6 3.3-2.7c9-5.3 14.4-13.7 15.3-23.8.5-5.4 1-9.6 1.8-13.5.5-2.5.1-2.8-1.1-.9zM627 484.1c0 .5.5.7 1 .4.6-.3 1-.8 1-1.1 0-.2-.4-.4-1-.4-.5 0-1 .5-1 1.1zM587.5 488c-.3.5-.1 1 .4 1 .6 0 1.1-.5 1.1-1 0-.6-.2-1-.4-1-.3 0-.8.4-1.1 1zM618.5 504.5c-4.9 3.5-9.5 6.4-10 6.4-.6.1-2.2 1.9-3.5 4.1-1.4 2.2-2.8 4-3.2 4-.3 0-1.5 1.6-2.7 3.5l-2.1 3.6 3.8-2.8c2-1.5 5.2-4 7.1-5.5 1.9-1.5 3.9-2.4 4.5-2.1.6.3.8.3.4-.2-1-1.1 7-6.7 8.4-5.9.6.4.8.3.5-.3-.4-.6.6-2.1 2.2-3.4 1.6-1.3 3-2.9 3.1-3.4.1-.6.5-.9.9-.8.4.1.7-.7.7-1.8 0-1-.3-1.9-.6-1.8-.3 0-4.5 2.9-9.5 6.4zM739.3 499.5c0 .8.4 1.2.8.9.4-.2 1.3.5 1.9 1.6.6 1.1 2.7 3.7 4.6 5.6 1.9 2 3.1 4.1 2.7 4.7-.3.7-.3.9.2.5.5-.5 1.4.1 2.1 1.1.9 1.2 2.1 1.7 3.9 1.4 1.4-.3 2.5-.9 2.5-1.3 0-.7-3.8-4.1-11.5-10.1-2.2-1.7-3.8-3.6-3.7-4.3.2-.6 0-.8-.4-.4s-1.2.3-1.9-.2c-.8-.7-1.2-.5-1.2.5zM667 516.1c0 .5.5.7 1 .4.6-.3 1-.8 1-1.1 0-.2-.4-.4-1-.4-.5 0-1 .5-1 1.1z"/><path d="M702 515.4c0 .2.8 1 1.8 1.7 1.5 1.3 1.6 1.2.3-.4s-2.1-2.1-2.1-1.3zM651.5 520c-.3.5-.1 1 .4 1 .6 0 1.1-.5 1.1-1 0-.6-.2-1-.4-1-.3 0-.8.4-1.1 1zM489.2 527.1c-1.6.6-2.2 1.7-2.2 3.7 0 3.2-.2 3.4-18.5 18.7-6.6 5.5-12.5 10.4-13.1 11-.6.5-3 2.6-5.4 4.5-2.4 1.9-4.8 4-5.4 4.5-.6.6-3.8 3.3-7.1 6-3.3 2.8-6.5 5.7-7.2 6.5-.7.8-1.3 1.2-1.3.8 0-1.1-4.7 3.9-6.6 7.2-1 1.6-2.2 3-2.6 3-.4 0-.8.6-.8 1.3 0 .7-1 2.4-2.2 3.7-1.2 1.3-2.3 3-2.4 3.7-.1.7-1 2-1.9 2.9-1.8 1.9-1.3 3.2.7 1.5 5-4.3 7.8-6.5 11.3-8.9 2.2-1.5 4.2-2.9 4.5-3.2.3-.3 14.8-11.2 32.3-24.3 19.1-14.3 32.3-23.5 33-23.1.7.4.9.4.5-.1-.4-.4-.3-1.5.2-2.4.4-.9 1.1-3.7 1.5-6.1.4-2.5.8-4.7 1-4.9.3-.2-.2-1.6-1-3.1-1.6-3.1-4.1-4.1-7.3-2.9zM682.6 528.2c.3.5 1 .6 1.5.3 1.3-.9 1.1-1.2-.6-1.2-.8 0-1.2.4-.9.9zM686.3 543.1c-.1 4.7-.7 8.8-1.5 9.7-.7.9-.9 1.4-.4 1 .5-.4 1.7-.3 2.7.3 1.7.9 1.9.6 2-2.8.1-2.1 0-4.3-.1-4.8-.2-.6-.4-3.2-.4-5.9-.2-8.3-2.1-6.3-2.3 2.5zM678.9 539.7c-1.3 1.6-1.2 1.7.4.4 1.6-1.3 2.1-2.1 1.3-2.1-.2 0-1 .8-1.7 1.7zM315.6 556.2c.3.5 1 .6 1.5.3 1.3-.9 1.1-1.2-.6-1.2-.8 0-1.2.4-.9.9zM279.3 597.5c0 .8.4 1.2.9.9.5-.3.6-1 .3-1.5-.9-1.3-1.2-1.1-1.2.6zM355 630.1c0 .5.5.7 1 .4.6-.3 1-.8 1-1.1 0-.2-.4-.4-1-.4-.5 0-1 .5-1 1.1zM343 638.1c0 .5.5.7 1 .4.6-.3 1-.8 1-1.1 0-.2-.4-.4-1-.4-.5 0-1 .5-1 1.1zM347.5 638c.3.5.8 1 1.1 1 .2 0 .4-.5.4-1 0-.6-.5-1-1.1-1-.5 0-.7.4-.4 1zM617.4 642.4c.1.8.5 1.8.8 2.2.4.3.5-.1.4-1-.1-.8-.5-1.8-.8-2.2-.4-.3-.5.1-.4 1zM333.9 645.2c-.5 1.8-.6 3.8-.1 3.4.7-.8 1.2-3.6.6-3.6-.2 0-.4.1-.5.2zM527 646c0 .5.5 1 1.1 1 .5 0 .7-.5.4-1-.3-.6-.8-1-1.1-1-.2 0-.4.4-.4 1zM619.4 647.8c.4.3 1.4.7 2.2.8.9.1 1.3 0 1-.4-.4-.3-1.4-.7-2.2-.8-.9-.1-1.3 0-1 .4zM337.3 650.5c0 .8.4 1.2.9.9.5-.3.6-1 .3-1.5-.9-1.3-1.2-1.1-1.2.6zM613 650c0 .5.5 1 1.1 1 .5 0 .7-.5.4-1-.3-.6-.8-1-1.1-1-.2 0-.4.4-.4 1zM333 652c0 .5.5 1 1.1 1 .5 0 .7-.5.4-1-.3-.6-.8-1-1.1-1-.2 0-.4.4-.4 1zM534 651.4c0 .2.8 1 1.8 1.7 1.5 1.3 1.6 1.2.3-.4s-2.1-2.1-2.1-1.3zM275 656.1c0 .5.5.7 1 .4.6-.3 1-.8 1-1.1 0-.2-.4-.4-1-.4-.5 0-1 .5-1 1.1zM336.6 657.8c-.3.5.1.9.9.9s1.2-.4.9-.9c-.3-.4-.7-.8-.9-.8-.2 0-.6.4-.9.8zM607 658c0 .5.9.8 2 .7 2.1-.1 1.8-1-.5-1.3-.8-.1-1.5.2-1.5.6zM247.5 658.9c-.3.5-.2 1.2.3 1.5.5.3.9-.1.9-.9 0-1.7-.3-1.9-1.2-.6zM325 660.1c0 .5.5.7 1 .4.6-.3 1-.8 1-1.1 0-.2-.4-.4-1-.4-.5 0-1 .5-1 1.1zM332.5 660c-.3.6.1.7.9.4 1.8-.7 2.1-1.4.7-1.4-.6 0-1.3.4-1.6 1zM243.3 663.5c0 .8.4 1.5.9 1.5.4 0 .8-.4.8-.9 0-.6-.4-1.2-.8-1.5-.5-.3-.9.1-.9.9zM266.6 663.8c-.3.5.1.9.9.9s1.5-.4 1.5-.9c0-.4-.4-.8-.9-.8-.6 0-1.2.4-1.5.8zM322 664c-.9.6-1 1-.3 1 .6 0 1.5-.5 1.8-1 .8-1.2.4-1.2-1.5 0zM599 673.9c0 .6.4 1.3 1 1.6.6.3.7-.1.4-.9-.7-1.8-1.4-2.1-1.4-.7zM515.5 679.9c-.3.5-.2 1.2.3 1.5.5.3.9-.1.9-.9 0-1.7-.3-1.9-1.2-.6zM219.5 684c.3.5.8 1 1.1 1 .2 0 .4-.5.4-1 0-.6-.5-1-1.1-1-.5 0-.7.4-.4 1zM761.3 686.7c0 1.1.7 2 1.4 2 1 0 1-.4.1-1.6-.7-.9-1.3-1.8-1.5-2-.1-.2-.1.5 0 1.6zM213.6 688.7c-.6 1.4-.5 1.5.5.6.7-.7 1-1.5.7-1.8-.3-.3-.9.2-1.2 1.2zM610 690c.8.5 2 1 2.5 1 .6 0 .3-.5-.5-1s-1.9-1-2.5-1c-.5 0-.3.5.5 1zM843.6 692.2c.3.5 1 .6 1.5.3 1.3-.9 1.1-1.2-.6-1.2-.8 0-1.2.4-.9.9zM319 696.1c0 .5.5.7 1 .4.6-.3 1-.8 1-1.1 0-.2-.4-.4-1-.4-.5 0-1 .5-1 1.1zM179.9 702.2c-.5 1.8-.6 3.8-.1 3.4.7-.8 1.2-3.6.6-3.6-.2 0-.4.1-.5.2zM735.6 707.3c.3 1 .9 1.5 1.2 1.2.3-.3 0-1.1-.7-1.8-1-.9-1.1-.8-.5.6zM490.6 708.2c.3.5 1 .6 1.5.3 1.3-.9 1.1-1.2-.6-1.2-.8 0-1.2.4-.9.9zM628.9 711.7c-1.3 1.6-1.2 1.7.4.4 1.6-1.3 2.1-2.1 1.3-2.1-.2 0-1 .8-1.7 1.7zM347.6 716.7c-.6 1.4-.5 1.5.5.6.7-.7 1-1.5.7-1.8-.3-.3-.9.2-1.2 1.2zM173 718.4c0 .2.8 1 1.8 1.7 1.5 1.3 1.6 1.2.3-.4s-2.1-2.1-2.1-1.3zM662.9 719.7c-1.3 1.6-1.2 1.7.4.4 1.6-1.3 2.1-2.1 1.3-2.1-.2 0-1 .8-1.7 1.7zM602.6 719.8c-.2.4.4.8 1.4.8 1 0 1.6-.4 1.4-.8-.3-.4-.9-.8-1.4-.8-.5 0-1.1.4-1.4.8zM487 724.4c.7.7 1.3.7 2 0 .6-.6.3-1-1-1s-1.6.4-1 1zM631.9 724.7c-1.3 1.6-1.2 1.7.4.4 1.6-1.3 2.1-2.1 1.3-2.1-.2 0-1 .8-1.7 1.7zM359.3 728.5c0 .8.4 1.2.9.9.5-.3.6-1 .3-1.5-.9-1.3-1.2-1.1-1.2.6zM552 728c-.9.6-1 1-.3 1 .6 0 1.5-.5 1.8-1 .8-1.2.4-1.2-1.5 0zM107.3 731.5c0 .8.4 1.2.9.9.5-.3.6-1 .3-1.5-.9-1.3-1.2-1.1-1.2.6zM707.5 730.9c-.3.5-.2 1.2.3 1.5.5.3.9-.1.9-.9 0-1.7-.3-1.9-1.2-.6zM560 797.4c-10.7 2.6-14.4 7.3-14.4 18.6 0 9.2 1.8 12.8 8.6 17.1 4.6 3 5 3.1 12.5 2.4 4.3-.3 8.2-1 8.6-1.4.5-.5.9-4.3 1-8.5.3-8.4.7-7.8-6.6-8.9-2.2-.4-3 0-3.6 1.6-.8 2.1.7 4.9 2.1 4.1 1-.7 2.5 2.7 2.4 5.6-.1 2.4-.4 2.5-6.4 2.6-3.4.1-6.5-.2-6.8-.7-.3-.5-.9-.7-1.4-.4-.5.3-1.6-.8-2.5-2.5-.8-1.6-1.3-3-.9-3s.2-.6-.4-1.3c-.9-1.2-.9-6.2.1-10.4 1.7-6.8 8.3-10.4 17.2-9.2 5.7.7 6.6.3 5.4-2.9-.5-1.4-1.7-2.2-3.2-2.2-1.3 0-2.7-.3-3.1-.7-1-1.1-3.7-1-8.6.1zm1.7 3.1c-.8.8-1.4.9-1.8.3-.4-.6-.9-.5-1.2.3-.4 1-.6 1-.6-.2-.1-1.1.7-1.7 2.3-1.7 1.9 0 2.2.3 1.3 1.3zm-7.2 3.2c-1.5 1.3-2.5 2.7-2.2 3 .3.3-.3 1.4-1.3 2.6-3.1 3.3-1.4 15.4 2.7 20 .9.9 1.3 2 1 2.3-1 1-6.6-5.8-7.3-8.9-.3-1.5-.4-3.1-.1-3.3.3-.3.1-1.9-.3-3.5-.5-1.7-.5-2.9 0-2.9s.7-.6.4-1.4c-1-2.7 4.2-9.5 7.4-9.6.7 0 1-.5.6-1.2-.5-.7-.3-.8.6-.3 1 .6.7 1.4-1.5 3.2zm15.2 15.9c-.3.3-1.2.4-1.9.1-.8-.3-.5-.6.6-.6 1.1-.1 1.7.2 1.3.5zm5 4.4c-.2 5.6-1.2 6.6-1.9 2-.3-1.7 0-3 .6-3s.3-.5-.6-1.1c-2.4-1.3-2.3-2.9.2-2.9 1.7 0 2 .6 1.7 5zm-1 7.9c0 1.1-.7 1.7-1.4 1.4-.9-.4-.9-.8 0-1.9 1.6-1.7 1.6-1.7 1.4.5zm-9.3 1.3c-.3.4-1.6.7-2.9.6-3.1-.3-2.4-1.3.8-1.3 1.4 0 2.3.3 2.1.7zM812.9 797c-1 .7-1.3 5.2-1.4 19.4-.1 16.6.1 18.5 1.6 18.9 2.8.7 4.1-.8 4.5-5.4.2-2.4.6-5 .9-5.7.2-.6.1-1.2-.3-1.2-1 0-1.4-12.8-.4-13.4.5-.3 2.8 2.5 5.2 6.2 2.4 3.7 4.8 6.8 5.2 7 .4.2.8 1 .8 1.7 0 2.1 9.8 11.7 11.1 10.9.6-.3.9-1.9.7-3.5-.3-1.6-.1-2.9.4-2.9s.6-.6.2-1.2c-.7-1.1-.9-4.6-.4-6.6.2-.7 0-12.1-.3-18.4-.2-4.3-1.7-6.1-4.1-5.2-1.5.6-1.7 2-1.6 9.3.2 15.9.1 16.5-3.5 11.1-1.1-1.6-2.3-3-2.7-3-1.5 0-.8 2.5 1.5 5.2 4.7 5.7 5.6 7.1 5 8.1-.3.5-1 .1-1.6-.9-.6-1.1-1.5-2.2-2.1-2.6-.6-.4-.8-.8-.4-.8s-.4-1.2-1.7-2.6c-1.4-1.5-3.7-4.7-5.2-7.3-1.4-2.5-3.5-5.4-4.5-6.5-2.2-2.4-2.3-3.6-.3-3.6.9 0 2.6 2.4 4.2 6 1.6 3.8 3 5.7 3.5 5.2 1.8-1.8-8.2-18.3-11.3-18.8-.9-.1-2.2.2-3 .6zm1.9 3.2c-.2.6.8 1.4 2.2 1.8l2.5.6-2.3.8c-1.3.4-2.2 1.5-2.1 2.4.3 2.9-.1 4.6-.8 3.8-1.2-1.1-1.2-4-.1-5.3.7-.9.7-1.7-.1-2.6-.6-.8-.8-1.7-.4-2 1-1 1.3-.8 1.1.5zm24.2 1.2c0 .7-.6 1.9-1.3 2.5-1.1.8-1.3.6-1.1-1.2.3-2.8.2-2.7 1.4-2.7.6 0 1 .6 1 1.4zm-.3 15.1c-.1 10.3-.4 11.8-2.1 13.3-1.4 1.2-1.7 1.2-1 .2.6-.8 1.2-3.1 1.2-5.1.1-2.1.2-4.1.3-4.5.1-.5.1-1.1 0-1.4-.7-1.8-.4-10 .3-10 .4 0 .6-.6.3-1.4-.5-1.2 0-2.6.9-2.6.1 0 .2 5.2.1 11.5zm-23.5-2.6c.2 1.7.1 2.8-.4 2.5-.8-.5-1.2-5.4-.4-5.4.2 0 .6 1.3.8 2.9zm.8 9.3c0 .4-.4.8-.9.8-.6 0-1.2-.4-1.5-.8-.3-.5.1-.9.9-.9s1.5.4 1.5.9zm-.8 3.6c-.7.2-1 1.3-.6 2.7.3 1.2.1 2.5-.4 2.9-.5.3-.8-1.1-.7-3.2.3-4.6.2-4.5 1.7-3.6.9.6.9.9 0 1.2zM583.7 798.1c-.9.6-1.4 1.5-1.1 2.1.4.6.8 8.6.8 17.7l.2 16.6 3 .3 3 .3-.4-15.8c-.5-21.5-.4-20.7-1.6-21.5-1.4-1-1.7-1-3.9.3zm3 3.9c-.2.9-.1 3.8.3 6.3.5 3.2.3 4.7-.4 4.7-.6 0-.4.5.4 1 1.3.9 1.3 1 0 1s-1.6-1.5-1.6-7.9c0-4.6.3-7.8.9-7.4.5.3.7 1.3.4 2.3zm.2 16.9c-1.5.5-2.2-.6-1.4-1.9.6-.9 1-.9 1.6.1.5.8.4 1.5-.2 1.8zm0 5.2c-.8.5-.9.9-.3.9.5 0 1.1 1.8 1.2 4 .2 2.2-.1 4-.6 4-1.5 0-3.4-2.8-2.4-3.4.5-.3.7-1.6.5-3-.3-1.3 0-2.7.6-3 .5-.4.8-1.4.5-2.4-.5-1.4-.3-1.4.6.2 1 1.5.9 2-.1 2.7zM599.9 797.5c-.5 0-.3 23.6.3 25.2.4 1.2.4 2.4 0 2.7-.4.2-.7 2.6-.7 5.3.1 4.5.3 4.8 2.8 4.9 2.7.1 3-.2 3-3.1 0-6.2-.4-8.9-1.1-7.7-.5.7-.7 2.8-.6 4.7.2 1.9-.1 3.7-.6 4-.6.4-1-.6-1.1-2.2 0-1.5-.1-4.7-.2-7.1-.2-2.4.1-4.9.5-5.5.5-.7.8-.1.8 1.5s.5 2.8 1 2.8c.6 0 1-1.8 1-4s.5-4 1-4c.6 0 .9.5.8 1.1-.3 1.2 1.7 1.9 7.5 2.4 2.8.2 4-.2 4.7-1.5 1.1-2.1-1-3-7.5-3-5.5 0-6.3-.8-6.3-6.3 0-2.8.4-4.7 1.1-4.8.7-.1 4.6-.2 8.7-.3 7.3-.1 7.5-.2 7.5-2.6v-2.5h-22.6zm3.5 10.3c-.3 9.7-.2 9.2-1.5 9.2-.8 0-.8-.5.1-1.5.7-.8.8-1.5.3-1.5s-.9-3.3-.8-7.4c0-4.9.4-7.2 1.1-6.9.7.2 1 3.3.8 8.1zM625.9 799.1c-1.4 2.7-1.2 2.9 4 2.9 3 0 5.1.5 5.3 1.2.3.7.4 7.9.3 16-.1 8.2.1 14.8.4 14.9 5.8.8 5.1 3.1 5.4-18.6l.2-12 5.5-1.1c6.8-1.2 7.7-3.8 1.5-4.1-2.2-.1-8-.3-12.8-.6-7.7-.3-8.9-.1-9.8 1.4zm4.8.5c-.3.3-1.2.4-1.9.1-.8-.3-.5-.6.6-.6 1.1-.1 1.7.2 1.3.5zm8.8 1c-.8.8-1.2 2.2-.9 3.2.5 1.4.4 1.4-.4.2-.6-.8-.8-1.8-.6-2.2.3-.4 0-.8-.5-.8-2.3 0-1-1.5 1.4-1.6 2.1-.2 2.2 0 1 1.2zm-.7 16.4c.2 2.2-.1 4-.6 4-.6 0-.9-6.6-.3-7.8.4-.9.7.3.9 3.8zm.6 8.8c.3.5-.1.9-.9.9s-1.5-.4-1.5-.9c0-.4.4-.8.9-.8.6 0 1.2.4 1.5.8zm-.7 4.1c0 1.1-.5 1.7-.9 1.5-1.1-.7-1-3.4.1-3.4.6 0 .9.9.8 1.9zM659.8 797.8c-1.3.3-1.5 2.6-1.2 18 .2 9.7.4 18 .4 18.3 0 .3 3.9.7 8.8.7 4.8 0 9.6.4 10.8.7 2.8.9 5.2-2 3.7-4.3-.7-1.3-2.6-1.7-6.9-1.8-3.2 0-6.4.3-6.9.7-.6.4-1.9.2-3-.4-1.6-.9-2-2.3-2.1-6v-4.8c.1 0 3.2-.3 7.1-.5 7.1-.5 9-1.6 7.5-4.4-.7-1.4-2.1-1.6-7.7-1.3l-6.8.5v-4.1c0-2.2.6-4.6 1.3-5.3.7-.7 4.2-1.3 8-1.5 3.7-.1 7-.2 7.5-.2.4-.1.7-1.2.7-2.5 0-2.3-.1-2.3-9.8-2.2-5.4.1-10.5.2-11.4.4zm3.7 2.8c-1.8 1.3-3.5 1.1-3.5-.5 0-.5 1.2-.9 2.7-.9 2.5 0 2.5.1.8 1.4zm-2 3.3c.3.5.2 1.2-.3 1.5-.5.3-.9-.1-.9-.9 0-1.7.3-1.9 1.2-.6zm.2 6c-.1 1.7-.5 2.7-.9 2.3-.7-.7 0-5.2.8-5.2.2 0 .2 1.3.1 2.9zm14 6.3c-.3.8-.6.5-.6-.6-.1-1.1.2-1.7.5-1.3.3.3.4 1.2.1 1.9zM665 816c0 .5-.2 1-.4 1-.3 0-.8-.5-1.1-1-.3-.6-.1-1 .4-1 .6 0 1.1.4 1.1 1zm4.1.3c-.7.7-1.4.8-2.1.1-.6-.6-.2-1 1.2-1.1 1.6-.2 1.8.1.9 1zm8.4 15.7c.3.5-.1 1-.9 1-.9 0-1.6-.5-1.6-1 0-.6.4-1 .9-1 .6 0 1.3.4 1.6 1zm3 0c.3.5.1 1-.4 1-.6 0-1.1-.5-1.1-1 0-.6.2-1 .4-1 .3 0 .8.4 1.1 1zM691.5 798c-3.2.6-3.2.5-3.4 11 0 2.5-.1 5.6-.2 7-.1 4.1-.2 14.3 0 16.7.1 1.7.6 2.1 2.2 1.8 1.2-.2 5.1-.7 8.8-1.1 9.7-.9 11.4-1.1 13.8-1.9 2.4-.8 7.7-9.1 6.7-10.6-.3-.5-.1-.9.3-.9.5 0 .9-2 .9-4.5s-.4-4.5-.9-4.5c-.4 0-.6-.4-.3-.8 1-1.7-2.7-6.9-7-9.6-3.7-2.4-5.7-2.9-11.2-3-3.7-.1-8 .1-9.7.4zm2.1 2.5c-2.3 1.7-3.6 1.9-3.6.6 0-.5 1-1.2 2.3-1.4 1.2-.2 2.4-.5 2.7-.5.3-.1-.4.5-1.4 1.3zm21 4c1.9 1.9 4.1 7.8 3.6 9.7-.1.5.3.8.9.8.8 0 .8.4-.1 1.5-.6.8-.9 1.8-.6 2.3.3.5-.1 2-.9 3.5s-1.1 2.7-.8 2.7c1 0-3 3.6-5.5 4.9-1.5.8-2.3.8-2.8-.1-.4-.6-.3-.9.2-.5 3 1.8 8.8-8 8.6-14.4-.1-3.8-4.4-10.7-7.3-11.9-4.1-1.7-4.7-3.2-.7-1.8 1.8.6 4.3 2.1 5.4 3.3zm-12.1-2.4c.4.5 1.6.9 2.8.9 3.2 0 8.5 5.4 9.3 9.5.9 5.2-.3 10.2-3.3 12.9-1.5 1.4-3 2.3-3.5 2-.4-.3-.8-.1-.8.4 0 1.2-14 1.3-14.1.1 0-.5-.1-2.7-.1-4.9s.1-7.8.1-12.4l.1-8.5 2.8-.3c1.5-.2 3.5-.4 4.4-.5 1-.1 2 .2 2.3.8zm-11.5 3.6c0 1.9-.3 2.4-1 1.7-.6-.6-.8-1.8-.4-2.7.9-2.4 1.4-2.1 1.4 1zm.5 14.7c0 7.6-.4 11.2-1.1 10.9-1.4-.5-1.3-22.3.1-22.3.6 0 1 4.5 1 11.4zm5.2 11.1c0 .6-.9 1.1-1.9 1.1-1 0-1.8-.5-1.8-1.1 0-.6.8-1.1 1.8-1.1s1.9.5 1.9 1.1zm5.3-.3c0 .4-.9.8-2 .8s-2-.4-2-.8.9-.8 2-.8 2 .4 2 .8zM738.9 798.3c-.1.7-.1 2.1-.1 3.2s.1 8.4.2 16.3c.1 9.1.5 14 1.2 13.6.5-.3.8-1.5.5-2.5-.4-1.3 0-1.9 1.3-1.9 1.4 0 1.7-.7 1.5-4.3-.1-2.3.1-4.5.6-4.8.5-.3 3.8-.4 7.4-.3 5.1.2 6.5 0 6.5-1.1s-.6-1.2-2.5-.5c-1.3.5-2.7.5-3 .1-.2-.5-2.1-.7-4-.5-1.9.1-3.7-.2-4.1-.8-.4-.7.9-.9 4-.7 2.5.2 4.8 0 5.1-.6.3-.6.7-.5 1.1.3.6 1.3 2.4.7 2.4-.9 0-.5-2.1-.9-4.7-.8-7.9.3-8.1.2-8.1-3.4-.1-6.9-.5-9.8-1.6-10.5-1.9-1.1-3.6-1.1-3.7.1zm2.5 2.3c.3.8.2 1.2-.4.9-.6-.3-1-1-1-1.6 0-1.4.7-1.1 1.4.7zm1.2 5.3c-.1 2.2-.4 2.7-1.4 1.9-.8-.7-.9-1.4-.2-2.3.5-.6.7-1.5.3-1.8-.3-.4-.2-.7.4-.7.6 0 1 1.3.9 2.9zm-1.1 4.1c.3.5.1 1-.4 1-.6 0-1.1-.5-1.1-1 0-.6.2-1 .4-1 .3 0 .8.4 1.1 1zm1.5 2.4c0 .3-.4.8-1 1.1-.5.3-1 .1-1-.4 0-.6.5-1.1 1-1.1.6 0 1 .2 1 .4zm0 4.1c0 .8-.4 1.5-1 1.5-.5 0-1-.7-1-1.5s.5-1.5 1-1.5c.6 0 1 .7 1 1.5zm-.8 6.1c-.5 4-1.5 3.7-1.8-.6-.2-1.8.2-3 1-3s1.1 1.2.8 3.6zM766.8 797.8c-1.9.4-2.5 3.2-.8 3.2.6 0 1-.5 1-1 0-.6.4-1 .8-1s.8 1.8.8 4-.3 4-.8 4c-.4 0-.7-.3-.7-.8.4-2.1-.2-4.2-1.1-4.2-.7 0-.9 1.5-.6 3.7.7 4.8-.2 6.2-4.2 6.5-2.3.2-3.1.6-2.7 1.6.3.7.5 2 .5 2.8 0 .9.5 1.2 1 .9.6-.3 1-.1 1 .5s.4.9.9.5c1.7-1 3 3.1 2.8 8.6-.2 5 0 5.5 2.6 6.7 1.6.8 3 1.2 3.3.9 1-1 .2-29.4-1-34.6-.6-2.8-.6-2.8-2.8-2.3zm-2.7 16.6c-.1 1.6-3.1 1.5-3.1-.1 0-.8.7-1.3 1.6-1.1.8.2 1.5.7 1.5 1.2zm4-.5c.7-1.1.9-1 .9.4 0 2-2.2 1.9-2.6-.1-.2-.9-.1-.9.3-.1s.8.7 1.4-.2zm1.9 6.3c0 .4-.5 1-1 1.3-.8.5-.8 1.1-.1 1.9 1.3 1.6.4 2.7-1.5 1.9-1-.4-1.1-1-.3-2.4.8-1.5.6-1.9-.6-1.9-.9 0-1.4-.4-1-.9.6-1.1 4.5-1 4.5.1zm-1 8.3c0 .8-.4 1.5-.9 1.5s-1.1-.7-1.5-1.5c-.3-.9 0-1.5.9-1.5.8 0 1.5.7 1.5 1.5zm-.3 3.1c-.3.3-1.2.4-1.9.1-.8-.3-.5-.6.6-.6 1.1-.1 1.7.2 1.3.5zM788.2 798.2c-.6.6-1.2 1.7-1.2 2.3 0 .5-1.6 5-3.5 9.8-1.9 4.9-3.4 9.2-3.3 9.5.1.4-.3 1.7-1 2.9-.7 1.3-1.1 2.3-.8 2.3.3 0-.2 1.6-1 3.5-1.8 4.3-1.8 5.1.1 5.9 1.8.6 4.7-.3 4-1.3-.2-.4.2-2.5.9-4.6l1.4-3.9 5.7-.1c6.3-.1 9.2 1.6 9.8 5.6.5 3.1 7.7 6.9 7.7 4.1 0-1.3-4-13.4-5.3-16.1-.6-1.3-1.2-2.9-1.2-3.5 0-.6-.8-2.8-1.8-5-.9-2.1-1.7-4.4-1.8-5 0-.6-.8-2.5-1.8-4.1-1.9-3.3-4.9-4.3-6.9-2.3zm5.4 2.5c.4 1 .8 2.3.9 2.8 0 .6.8 2 1.7 3.3 1.5 2.2 1.4 5.7-.1 6.7-.4.2-1.3-1.3-2.1-3.3-1.9-5.3-5-6.7-5-2.3 0 2.2-3.9 7.3-4 5.2 0-.8.8-2 1.8-2.8.9-.8 1.1-1.2.4-.8-1 .5-1.1 0-.6-2.2.4-1.5 1.1-3.2 1.5-3.8.5-.5.9-1.7.9-2.7 0-2.3 3.5-2.4 4.6-.1zm-.7 11.6c2.5 6.8 2.6 6.7-1.8 6.7s-5.1-1.1-2.6-4.4c.8-1.1 1.5-2.8 1.5-3.9 0-2.3 1.8-1.3 2.9 1.6zm6.8 5.7c.8 1.8 1.4 4.9 1.4 7.3 0 .9.4 1.5 1 1.2.5-.4.9.3.9 1.4 0 1.2.5 2.1 1.1 2.1.5 0 .7.4.4 1-.3.5-1.1 1-1.6 1-.6 0-.7-.5-.4-1 .3-.6.2-1-.3-1-.9 0-2.4-3.1-2.6-5.7-.1-.6-.5-1.5-1-2s-.6-.2-.1.6c.5.9.4 1.2-.3.7-.7-.4-.9-1.9-.6-3.5.4-1.6.1-3.2-.5-3.5-.8-.5-.8-1.3.1-2.9l1.3-2.2.3 2.5c.2 1.4.6 3.2.9 4zm-13.7-2.2c0 .5-.7.9-1.5.9s-1.5-.4-1.5-.9c0-.4.7-.8 1.5-.8s1.5.4 1.5.8zm-1.8 2.9c-.6.2-.9 1-.6 1.5.4.7.2.8-.4.4-1.8-1.1-1.4-2.6.6-2.5 1 0 1.2.3.4.6zm3.8 2.7c0 .2-.7.7-1.6 1-.8.3-1.2.2-.9-.4.6-1 2.5-1.4 2.5-.6zm6.5.6c-.7 1.2-5.5 1.4-5.5.2 0-.4 1.4-.8 3-.9 1.8-.1 2.8.2 2.5.7zm-14.5 8.4c0 .3-.4.8-1 1.1-.5.3-1 .1-1-.4 0-.6.5-1.1 1-1.1.6 0 1 .2 1 .4zM853 798c-3.2.5-3.5.8-3.7 4-.5 7.7-.9 30.6-.5 31.7.2.6 1.3 1 2.5.7 1.2-.2 5.1-.7 8.7-1 14.5-1.1 16.2-1.8 19.2-8.4 2-4.1 2.6-10.2 1.5-15.3-.6-3.2-5.4-8.3-9.4-10.2-3.8-1.8-11.6-2.5-18.3-1.5zm.7 3.1c-1.4.8-1.7 2.4-1.7 8.2 0 4-.4 6.6-.8 6-1.5-2.3-.4-13.7 1.5-15 .9-.7 1.9-1 2.2-.7.3.3-.2 1-1.2 1.5zm24 6.7c1.7 4.1 2.5 12 1.2 12.8-.4.2-.6 1-.4 1.7.6 1.5-4 7-6 7.3-.8.1-1.5-.2-1.5-.7 0-.5.6-.9 1.3-.9 1.6 0 4-3.8 4.5-6.9.2-1.4.8-3.3 1.3-4.3s.6-1.8.1-1.8c-.4 0-.8-.9-.9-2.1-.3-3.4-3.7-8.3-7.1-10-1.7-.9-2.9-1.9-2.5-2.2.3-.3 2.3.3 4.5 1.4 2.7 1.4 4.4 3.2 5.5 5.7zm-12.3-5.2c6.6 1.4 11.2 8.9 10 16.4-.7 3.9-2.3 7.5-3.1 6.7-.2-.3-1.3.3-2.2 1.2-1.3 1.3-3.5 1.9-7.6 2-3.1 0-6.1.3-6.5.6-1.9 1.2-2.7-3.4-2.4-13.5.1-5.8.3-11.1.3-11.8.1-.7 1.1-1.6 2.4-2.1 2.2-.8 3.2-.8 9.1.5zM852 819.5v3c0 .3-.3.5-.7.5-.4 0-.8-1.3-.9-3-.1-1.6.3-3 .7-3 .5 0 .9 1.1.9 2.5zm-.2 8c-.4 1.8 0 2.6 1.4 3.1 1.1.3 1.7.8 1.5 1.1-.3.3-1.5.2-2.6-.2-1.6-.5-2.1-1.4-1.9-3.6.1-1.6.6-2.9 1.1-2.9.5 0 .7 1.1.5 2.5zm12.7 3.5c-.6.9-5.5 1-5.5.1 0-.3 1.3-.7 3-.7 1.6-.1 2.8.2 2.5.6zM892.2 798.3c-4.3 1.3-7.5 5.8-6.9 9.6.8 5 1 5.1 17.5 12.2 1.7.8 3.2 1.8 3.3 2.4 0 .5.2 1.9.4 3.1.8 3.9-6.8 6-13.9 3.9-6.3-1.9-6.3-1.9-6.9.6-1 3.8 1.4 5 10.2 5 7.4-.1 13.5-2.2 13.9-5 .2-1.2.7-2.1 1.1-2.1.5 0 .7-1.9.6-4.2-.3-4.5-2.8-7.3-7.5-8.4-3.6-.9-11.2-4.4-13.1-6.1-2.4-2-1.2-5.3 2.4-6.8 2.5-1.1 3.9-1 7.5.1 2.5.7 4.9 1.7 5.5 2.3 1.5 1.5 3.4-.9 2.9-3.6-.2-1.3-.8-2.6-1.4-2.9-1.7-1.1-12.3-1.1-15.6-.1zm12.9 1.1c1.4.3 2.6 1.2 2.6 2.1 0 1.3-.3 1.3-1.6.1-.9-.7-2.4-1.2-3.3-1.1-1 .2-1.8-.1-1.8-.6 0-.6-.5-.7-1.2-.3-.7.4-.8.3-.4-.4.4-.6 1.2-.9 1.9-.7.7.2 2.4.6 3.8.9zm.3 19.2c.5 1.4.4 1.5-.9.4-1.7-1.4-1.9-2-.6-2 .5 0 1.2.7 1.5 1.6zm4.6 3.3c.5 1.1.7 2.2.2 2.5-.4.2-1.2-.7-1.9-2-1.3-2.8.2-3.3 1.7-.5zm-2 8.6c-.7.9-1.5 1.3-1.7 1.1-.7-.7.7-2.6 1.9-2.6.6 0 .6.6-.2 1.5zm-19.3 1.7c-.3.8-.6.5-.6-.6-.1-1.1.2-1.7.5-1.3.3.3.4 1.2.1 1.9zm3.8-1.1c-.4.6-.1 1 .6.8 3-.4 5 .2 4.4 1.1-.4.7-1.2.7-1.8.2-.7-.4-2.2-.7-3.4-.6-1.4.1-2-.3-1.6-1.2.3-.8.9-1.4 1.5-1.4.5 0 .6.5.3 1.1zm11.8.9c-1.3 1.3-4.6 1.6-4.9.5-.2-.6 1-1.1 2.7-1.1 1.7-.1 2.7.2 2.2.6z"/><path d="M742.5 829c.3.5-.3 1.8-1.4 2.9-2 2-2 2.1-.1 3.1 2.7 1.5 3.3 1.3 2.7-1-.3-1.3-.1-1.8.6-1.3.7.4.8 0 .4-1.1-.4-1-.7-2.2-.7-2.7s-.5-.9-1.1-.9c-.5 0-.8.4-.4 1z"/></svg>